<svg width="29" height="21" viewBox="0 0 29 21" fill="none" xmlns="http://www.w3.org/2000/svg">
<path d="M4.44717 19.0098C5.17665 20.2456 6.4708 20.9982 7.86446 21H25.0197C27.2098 21.0053 28.9897 19.1668 29 16.8913V4.1087C28.9897 1.83322 27.2098 -0.00532969 25.0197 1.16086e-05H7.86446C6.47247 1.16086e-05 5.18003 0.754322 4.45574 1.99017L0.447984 8.84712C-0.149328 9.86183 -0.149328 11.1386 0.447984 12.1533L4.44717 19.0098ZM12.0917 7.82506C11.5768 7.29184 11.5734 6.42696 12.0832 5.89019C12.5947 5.35163 13.4254 5.34451 13.9454 5.87057L16.5732 8.57404L19.201 5.87057C19.7211 5.3463 20.5518 5.3552 21.0616 5.89197C21.5714 6.42873 21.5679 7.29185 21.0564 7.82506L18.4458 10.5L21.0564 13.1749C21.5714 13.7082 21.5765 14.573 21.065 15.1116C20.8196 15.3702 20.4866 15.5182 20.1365 15.5218C19.7863 15.5253 19.4499 15.3844 19.201 15.1294L16.5732 12.426L13.9454 15.1294C13.6966 15.3844 13.3602 15.5253 13.0117 15.5218C12.6616 15.5182 12.3269 15.3702 12.0832 15.1116C11.5717 14.573 11.5751 13.7082 12.0917 13.1749L14.7024 10.5L12.0917 7.82506Z" fill="#0B1705"/>
</svg>
