<svg width="17" height="17" viewBox="0 0 17 17" fill="none" xmlns="http://www.w3.org/2000/svg">
<path d="M4.8125 5.5C4.8125 5.31766 4.88493 5.1428 5.01386 5.01386C5.1428 4.88493 5.31766 4.8125 5.5 4.8125H11C11.1823 4.8125 11.3572 4.88493 11.4861 5.01386C11.6151 5.1428 11.6875 5.31766 11.6875 5.5C11.6875 5.68234 11.6151 5.8572 11.4861 5.98614C11.3572 6.11507 11.1823 6.1875 11 6.1875H5.5C5.31766 6.1875 5.1428 6.11507 5.01386 5.98614C4.88493 5.8572 4.8125 5.68234 4.8125 5.5ZM5.5 8.9375H11C11.1823 8.9375 11.3572 8.86507 11.4861 8.73614C11.6151 8.60721 11.6875 8.43234 11.6875 8.25C11.6875 8.06766 11.6151 7.8928 11.4861 7.76386C11.3572 7.63493 11.1823 7.5625 11 7.5625H5.5C5.31766 7.5625 5.1428 7.63493 5.01386 7.76386C4.88493 7.8928 4.8125 8.06766 4.8125 8.25C4.8125 8.43234 4.88493 8.60721 5.01386 8.73614C5.1428 8.86507 5.31766 8.9375 5.5 8.9375ZM8.25 10.3125H5.5C5.31766 10.3125 5.1428 10.3849 5.01386 10.5139C4.88493 10.6428 4.8125 10.8177 4.8125 11C4.8125 11.1823 4.88493 11.3572 5.01386 11.4861C5.1428 11.6151 5.31766 11.6875 5.5 11.6875H8.25C8.43234 11.6875 8.60721 11.6151 8.73614 11.4861C8.86507 11.3572 8.9375 11.1823 8.9375 11C8.9375 10.8177 8.86507 10.6428 8.73614 10.5139C8.60721 10.3849 8.43234 10.3125 8.25 10.3125ZM16.5 1.375V10.7155C16.5006 10.8962 16.4652 11.0751 16.3961 11.242C16.3269 11.4088 16.2252 11.5603 16.097 11.6875L11.6875 16.097C11.5603 16.2252 11.4088 16.3269 11.242 16.3961C11.0751 16.4652 10.8962 16.5006 10.7155 16.5H1.375C1.01033 16.5 0.660591 16.3551 0.402728 16.0973C0.144866 15.8394 0 15.4897 0 15.125V1.375C0 1.01033 0.144866 0.660591 0.402728 0.402728C0.660591 0.144866 1.01033 0 1.375 0H15.125C15.4897 0 15.8394 0.144866 16.0973 0.402728C16.3551 0.660591 16.5 1.01033 16.5 1.375ZM1.375 15.125H10.3125V11C10.3125 10.8177 10.3849 10.6428 10.5139 10.5139C10.6428 10.3849 10.8177 10.3125 11 10.3125H15.125V1.375H1.375V15.125ZM11.6875 11.6875V14.1539L14.153 11.6875H11.6875Z" fill="#A4F675"/>
</svg>
