<svg width="13" height="13" viewBox="0 0 13 13" fill="none" xmlns="http://www.w3.org/2000/svg">
<g clip-path="url(#clip0_31_6877)">
<path fill-rule="evenodd" clip-rule="evenodd" d="M12.7466 1.47644C12.9042 1.31331 12.9914 1.09482 12.9894 0.868041C12.9874 0.641257 12.8965 0.424321 12.7361 0.263954C12.5757 0.103588 12.3588 0.0126235 12.132 0.0106528C11.9052 0.00868213 11.6867 0.0958632 11.5236 0.253418L6.51303 5.264L1.50246 0.253418C1.33933 0.0958632 1.12084 0.00868213 0.894059 0.0106528C0.667275 0.0126235 0.450338 0.103588 0.289972 0.263954C0.129606 0.424321 0.0386411 0.641257 0.0366704 0.868041C0.0346997 1.09482 0.121881 1.31331 0.279436 1.47644L5.29001 6.48702L0.279436 11.4976C0.196826 11.5774 0.130933 11.6728 0.0856024 11.7783C0.0402719 11.8839 0.0164115 11.9974 0.0154135 12.1122C0.0144155 12.2271 0.0362997 12.341 0.0797895 12.4473C0.123279 12.5536 0.187504 12.6501 0.268715 12.7313C0.349926 12.8125 0.446498 12.8768 0.552796 12.9203C0.659093 12.9638 0.772988 12.9856 0.887834 12.9846C1.00268 12.9836 1.11618 12.9598 1.2217 12.9144C1.32723 12.8691 1.42267 12.8032 1.50246 12.7206L6.51303 7.71004L11.5236 12.7206C11.6867 12.8782 11.9052 12.9654 12.132 12.9634C12.3588 12.9614 12.5757 12.8704 12.7361 12.7101C12.8965 12.5497 12.9874 12.3328 12.9894 12.106C12.9914 11.8792 12.9042 11.6607 12.7466 11.4976L7.73606 6.48702L12.7466 1.47644Z" fill="white"/>
</g>
<defs>
<clipPath id="clip0_31_6877">
<rect width="13" height="13" fill="white"/>
</clipPath>
</defs>
</svg>
