<svg width="9" height="9" viewBox="0 0 9 9" fill="none" xmlns="http://www.w3.org/2000/svg">
<g clip-path="url(#clip0_95_21894)">
<path fill-rule="evenodd" clip-rule="evenodd" d="M8.82457 1.02212C8.93364 0.909186 8.994 0.757927 8.99263 0.600923C8.99127 0.443919 8.92829 0.293732 8.81727 0.18271C8.70625 0.0716867 8.55606 0.00871118 8.39906 0.00734685C8.24205 0.00598253 8.09079 0.0663387 7.97786 0.175415L4.509 3.64428L1.04013 0.175415C0.927198 0.0663387 0.77594 0.00598253 0.618936 0.00734685C0.461932 0.00871118 0.311745 0.0716867 0.200722 0.18271C0.0896989 0.293732 0.0267233 0.443919 0.025359 0.600923C0.0239947 0.757927 0.0843509 0.909186 0.193428 1.02212L3.66229 4.49098L0.193428 7.95984C0.136236 8.01508 0.0906176 8.08116 0.059235 8.15421C0.0278524 8.22727 0.0113336 8.30584 0.0106427 8.38535C0.00995182 8.46486 0.0251024 8.54371 0.0552107 8.6173C0.085319 8.69089 0.129782 8.75775 0.186005 8.81397C0.242228 8.8702 0.309086 8.91466 0.382676 8.94477C0.456267 8.97488 0.535117 8.99003 0.614626 8.98934C0.694134 8.98864 0.772709 8.97213 0.845765 8.94074C0.918822 8.90936 0.984896 8.86374 1.04013 8.80655L4.509 5.33769L7.97786 8.80655C8.09079 8.91563 8.24205 8.97598 8.39906 8.97462C8.55606 8.97326 8.70625 8.91028 8.81727 8.79926C8.92829 8.68823 8.99127 8.53805 8.99263 8.38104C8.994 8.22404 8.93364 8.07278 8.82457 7.95984L5.3557 4.49098L8.82457 1.02212Z" fill="#909090"/>
</g>
<defs>
<clipPath id="clip0_95_21894">
<rect width="9" height="9" fill="white"/>
</clipPath>
</defs>
</svg>
