<svg width="26" height="26" viewBox="0 0 26 26" fill="none" xmlns="http://www.w3.org/2000/svg">
<path d="M20.312 4.62451C20.594 4.62451 20.8647 4.73669 21.064 4.93604C21.2632 5.13527 21.3754 5.40528 21.3755 5.68701C21.3755 5.96892 21.2633 6.23962 21.064 6.43896L14.5025 12.9995L21.064 19.561C21.1627 19.6597 21.2411 19.7768 21.2945 19.9058C21.3478 20.0346 21.3755 20.1726 21.3755 20.312C21.3755 20.4516 21.3479 20.5903 21.2945 20.7192C21.241 20.8482 21.1627 20.9653 21.064 21.064C20.9653 21.1627 20.8482 21.241 20.7193 21.2944C20.5903 21.3479 20.4516 21.3755 20.312 21.3755C20.1726 21.3754 20.0346 21.3478 19.9058 21.2944C19.7768 21.241 19.6598 21.1627 19.5611 21.064L12.9995 14.5024L6.439 21.064C6.23965 21.2633 5.96895 21.3755 5.68704 21.3755C5.40531 21.3754 5.1353 21.2632 4.93607 21.064C4.73672 20.8646 4.62454 20.5939 4.62454 20.312C4.62466 20.0303 4.73683 19.7603 4.93607 19.561L11.4966 12.9995L4.93607 6.43896C4.73672 6.23962 4.62454 5.96892 4.62454 5.68701C4.62466 5.40526 4.73683 5.13527 4.93607 4.93604C5.1353 4.7368 5.40529 4.62463 5.68704 4.62451C5.96895 4.62451 6.23965 4.73669 6.439 4.93604L12.9995 11.4966L19.5611 4.93604C19.7603 4.7368 20.0303 4.62463 20.312 4.62451Z" fill="white" stroke="white" stroke-width="0.5"/>
</svg>
