<svg width="17" height="17" viewBox="0 0 17 17" fill="none" xmlns="http://www.w3.org/2000/svg">
<path d="M9.425 16.725C8.69167 16.725 8.10417 16.5 7.6625 16.05C7.22083 15.6 7 15 7 14.25C7 13.15 7.4875 12.1792 8.4625 11.3375C9.4375 10.4958 10.6333 10.0083 12.05 9.875C11.9667 8.94167 11.7708 8.2625 11.4625 7.8375C11.1542 7.4125 10.7083 7.2 10.125 7.2C9.525 7.2 8.91667 7.42083 8.3 7.8625C7.68333 8.30417 6.925 9.075 6.025 10.175C5.15833 11.2583 4.42917 12.0167 3.8375 12.45C3.24583 12.8833 2.65833 13.1 2.075 13.1C1.44167 13.1 0.9375 12.8792 0.5625 12.4375C0.1875 11.9958 0 11.3917 0 10.625C0 9.925 0.158333 9.17917 0.475 8.3875C0.791667 7.59583 1.28333 6.73333 1.95 5.8C2.41667 5.15 2.74583 4.625 2.9375 4.225C3.12917 3.825 3.225 3.48333 3.225 3.2C3.225 2.96667 3.1625 2.79583 3.0375 2.6875C2.9125 2.57917 2.73333 2.525 2.5 2.525C2.25 2.525 1.99167 2.60417 1.725 2.7625C1.45833 2.92083 1.16667 3.16667 0.85 3.5L0 2.675C0.433333 2.225 0.854167 1.8875 1.2625 1.6625C1.67083 1.4375 2.08333 1.325 2.5 1.325C3.06667 1.325 3.52917 1.5 3.8875 1.85C4.24583 2.2 4.425 2.65 4.425 3.2C4.425 3.63333 4.3125 4.1 4.0875 4.6C3.8625 5.1 3.45833 5.76667 2.875 6.6C2.29167 7.45 1.86667 8.19583 1.6 8.8375C1.33333 9.47917 1.2 10.075 1.2 10.625C1.2 11.0083 1.28333 11.3167 1.45 11.55C1.61667 11.7833 1.825 11.9 2.075 11.9C2.29167 11.9 2.5125 11.8417 2.7375 11.725C2.9625 11.6083 3.21667 11.425 3.5 11.175C3.71667 10.9917 3.94583 10.7583 4.1875 10.475C4.42917 10.1917 4.71667 9.85833 5.05 9.475C6.11667 8.19167 7.025 7.29167 7.775 6.775C8.525 6.25833 9.3 6 10.1 6C11.0333 6 11.775 6.34167 12.325 7.025C12.875 7.70833 13.1833 8.65833 13.25 9.875H15.425V11.075H13.25C13.15 12.7917 12.75 14.1625 12.05 15.1875C11.35 16.2125 10.475 16.725 9.425 16.725ZM9.425 15.525C10.1417 15.525 10.7417 15.1167 11.225 14.3C11.7083 13.4833 11.9833 12.4083 12.05 11.075C11 11.1583 10.0958 11.5125 9.3375 12.1375C8.57917 12.7625 8.2 13.4583 8.2 14.225C8.2 14.6083 8.30833 14.9208 8.525 15.1625C8.74167 15.4042 9.04167 15.525 9.425 15.525ZM12.7375 4.0125C12.2792 3.55417 12.05 3 12.05 2.35C12.05 1.7 12.2792 1.14583 12.7375 0.6875C13.1958 0.229167 13.75 0 14.4 0C15.05 0 15.6042 0.229167 16.0625 0.6875C16.5208 1.14583 16.75 1.7 16.75 2.35C16.75 3 16.5208 3.55417 16.0625 4.0125C15.6042 4.47083 15.05 4.7 14.4 4.7C13.75 4.7 13.1958 4.47083 12.7375 4.0125Z" fill="#0B1705"/>
</svg>
