<svg width="14" height="16" viewBox="0 0 14 16" fill="none" xmlns="http://www.w3.org/2000/svg">
<path fill-rule="evenodd" clip-rule="evenodd" d="M1.3998 5.09108V13.0907C1.3998 14.6971 2.6539 16 4.20007 16H9.79993C11.3461 16 12.6002 14.6971 12.6002 13.0907V5.09108H11.2004V13.0907C11.2004 13.8946 10.5737 14.545 9.79995 14.545H4.20008C3.42635 14.545 2.80029 13.8946 2.80029 13.0907V5.09108H1.3998ZM4.9003 6.54537V12.3632H6.3001V6.54537H4.9003ZM7.6999 6.54537V12.3632H9.10035V6.54537H7.6999ZM3.49983 2.64469H0V4.09898H14V2.64469H10.5002V1.79447C10.5002 0.803123 9.72709 0 8.77293 0H5.22724C4.27303 0 3.5 0.803176 3.5 1.79447L3.49983 2.64469ZM9.10037 2.64469V1.79447C9.10037 1.6063 8.95402 1.45494 8.7729 1.45494H5.2272C5.04608 1.45494 4.90039 1.6063 4.90039 1.79447V2.64469H9.10037Z" fill="white"/>
</svg>
