<svg width="286" height="146" viewBox="0 0 286 146" fill="none" xmlns="http://www.w3.org/2000/svg">
<path d="M142.796 138.802C180.983 138.802 211.94 107.845 211.94 69.6584C211.94 31.4714 180.983 0.514648 142.796 0.514648C104.609 0.514648 73.6523 31.4714 73.6523 69.6584C73.6523 107.845 104.609 138.802 142.796 138.802Z" fill="#0B1705"/>
<path d="M73.1367 69.658C73.1367 31.2485 104.385 0 142.795 0C181.204 0 212.453 31.2485 212.453 69.658C212.453 108.067 181.204 139.316 142.795 139.316C104.385 139.316 73.1367 108.067 73.1367 69.658ZM74.1653 69.658C74.1653 107.5 104.952 138.287 142.795 138.287C180.637 138.287 211.424 107.5 211.424 69.658C211.424 31.8157 180.637 1.02857 142.795 1.02857C104.952 1.02857 74.1653 31.8157 74.1653 69.658Z" fill="white"/>
<path d="M130.473 69.9585C130.473 67.5207 131.196 65.1376 132.55 63.1107C133.904 61.0838 135.829 59.504 138.081 58.5711C140.334 57.6382 142.812 57.3941 145.203 57.8696C147.594 58.3452 149.79 59.5191 151.514 61.2429C153.238 62.9667 154.412 65.1629 154.887 67.5538C155.363 69.9448 155.119 72.4231 154.186 74.6753C153.253 76.9275 151.673 78.8525 149.646 80.2068C147.619 81.5612 145.236 82.2841 142.798 82.2841C139.529 82.2841 136.394 80.9855 134.083 78.674C131.771 76.3625 130.473 73.2274 130.473 69.9585ZM142.798 58.2341C139.69 58.2376 136.71 59.4739 134.512 61.6719C132.314 63.8699 131.077 66.8501 131.074 69.9585C131.074 72.2773 131.762 74.5441 133.05 76.4722C134.338 78.4003 136.169 79.903 138.312 80.7904C140.454 81.6778 142.811 81.91 145.086 81.4576C147.36 81.0052 149.449 79.8885 151.089 78.2489C152.728 76.6092 153.845 74.5201 154.297 72.2458C154.75 69.9715 154.518 67.6141 153.63 65.4717C152.743 63.3294 151.24 61.4983 149.312 60.21C147.384 58.9217 145.117 58.2341 142.798 58.2341Z" fill="white"/>
<path d="M119.348 69.9585C119.348 65.3208 120.723 60.7872 123.299 56.9311C125.876 53.075 129.538 50.0695 133.823 48.2947C138.108 46.5199 142.822 46.0556 147.371 46.9603C151.92 47.8651 156.098 50.0984 159.377 53.3778C162.657 56.6571 164.89 60.8353 165.795 65.3839C166.699 69.9325 166.235 74.6473 164.46 78.932C162.685 83.2167 159.68 86.8789 155.824 89.4554C151.968 92.032 147.434 93.4073 142.796 93.4073C139.717 93.4073 136.668 92.8007 133.823 91.6223C130.978 90.4439 128.393 88.7167 126.216 86.5393C124.038 84.3619 122.311 81.7769 121.133 78.9319C119.954 76.087 119.348 73.0378 119.348 69.9585ZM142.796 47.111C138.278 47.111 133.86 48.451 130.103 50.9615C126.346 53.472 123.417 57.0403 121.688 61.2152C119.959 65.39 119.506 69.9839 120.388 74.4158C121.269 78.8478 123.445 82.9188 126.641 86.1141C129.836 89.3094 133.907 91.4854 138.339 92.367C142.771 93.2486 147.365 92.7961 151.54 91.0668C155.715 89.3376 159.283 86.4092 161.793 82.6519C164.304 78.8947 165.644 74.4773 165.644 69.9585C165.637 63.9011 163.228 58.0937 158.944 53.8104C154.661 49.5272 148.854 47.1178 142.796 47.111Z" fill="white"/>
<path d="M97.1016 69.9587C97.1016 60.9211 99.7815 52.0864 104.803 44.5719C109.824 37.0574 116.96 31.2006 125.31 27.742C133.66 24.2835 142.847 23.3786 151.711 25.1417C160.575 26.9049 168.717 31.2569 175.108 37.6475C181.498 44.038 185.85 52.1801 187.614 61.044C189.377 69.908 188.472 79.0957 185.013 87.4454C181.555 95.7951 175.698 102.932 168.183 107.953C160.669 112.974 151.834 115.654 142.797 115.654C130.682 115.64 119.067 110.821 110.5 102.255C101.934 93.6883 97.1152 82.0736 97.1016 69.9587ZM142.797 24.865C133.878 24.865 125.159 27.5097 117.744 32.4646C110.328 37.4196 104.548 44.4623 101.135 52.7021C97.7223 60.9419 96.8293 70.0087 98.5693 78.7561C100.309 87.5034 104.604 95.5383 110.91 101.845C117.217 108.151 125.252 112.446 133.999 114.186C142.747 115.926 151.813 115.033 160.053 111.62C168.293 108.207 175.336 102.427 180.291 95.0114C185.246 87.5958 187.89 78.8774 187.89 69.9587C187.877 58.0033 183.122 46.5413 174.668 38.0876C166.214 29.6338 154.752 24.8785 142.797 24.865Z" fill="white"/>
<path d="M142.798 75.37C145.952 75.37 148.51 72.8127 148.51 69.6582C148.51 66.5036 145.952 63.9463 142.798 63.9463C139.643 63.9463 137.086 66.5036 137.086 69.6582C137.086 72.8127 139.643 75.37 142.798 75.37Z" fill="url(#paint0_linear_351_2091)"/>
<path d="M128.067 91.9042C131.222 91.9042 133.779 89.3469 133.779 86.1923C133.779 83.0378 131.222 80.4805 128.067 80.4805C124.913 80.4805 122.355 83.0378 122.355 86.1923C122.355 89.3469 124.913 91.9042 128.067 91.9042Z" fill="url(#paint1_linear_351_2091)"/>
<path d="M185.536 89.4989C188.691 89.4989 191.248 86.9416 191.248 83.7871C191.248 80.6325 188.691 78.0752 185.536 78.0752C182.382 78.0752 179.824 80.6325 179.824 83.7871C179.824 86.9416 182.382 89.4989 185.536 89.4989Z" fill="url(#paint2_linear_351_2091)"/>
<path d="M142.795 72.3634C144.29 72.3634 145.501 71.152 145.501 69.6578C145.501 68.1635 144.29 66.9521 142.795 66.9521C141.301 66.9521 140.09 68.1635 140.09 69.6578C140.09 71.152 141.301 72.3634 142.795 72.3634Z" fill="white"/>
<path d="M185.534 86.4933C187.028 86.4933 188.239 85.2819 188.239 83.7877C188.239 82.2934 187.028 81.082 185.534 81.082C184.039 81.082 182.828 82.2934 182.828 83.7877C182.828 85.2819 184.039 86.4933 185.534 86.4933Z" fill="white"/>
<path d="M128.065 89.1984C129.559 89.1984 130.771 87.987 130.771 86.4927C130.771 84.9985 129.559 83.7871 128.065 83.7871C126.571 83.7871 125.359 84.9985 125.359 86.4927C125.359 87.987 126.571 89.1984 128.065 89.1984Z" fill="white"/>
<path d="M16.5337 42.0001C18.028 42.0001 19.2394 40.7888 19.2394 39.2945C19.2394 37.8002 18.028 36.5889 16.5337 36.5889C15.0395 36.5889 13.8281 37.8002 13.8281 39.2945C13.8281 40.7888 15.0395 42.0001 16.5337 42.0001Z" fill="url(#paint3_linear_351_2091)"/>
<path d="M142.645 39.445H23.8984V38.8438H143.247V69.8077H142.645V39.445Z" fill="white"/>
<path d="M8.71875 39.2948C8.71875 37.7489 9.17716 36.2377 10.036 34.9523C10.8949 33.6669 12.1156 32.6651 13.5438 32.0735C14.9721 31.4819 16.5437 31.3271 18.0599 31.6287C19.5761 31.9303 20.9688 32.6747 22.0619 33.7678C23.155 34.861 23.8995 36.2537 24.2011 37.7699C24.5027 39.2861 24.3479 40.8577 23.7563 42.2859C23.1647 43.7141 22.1629 44.9349 20.8775 45.7937C19.5921 46.6526 18.0809 47.111 16.535 47.111C15.5086 47.111 14.4922 46.9089 13.5439 46.5161C12.5955 46.1233 11.7339 45.5475 11.0081 44.8217C10.2823 44.0959 9.70653 43.2343 9.31372 42.2859C8.92092 41.3376 8.71875 40.3212 8.71875 39.2948ZM16.535 32.0798C15.108 32.0798 13.7131 32.5029 12.5266 33.2957C11.3401 34.0885 10.4153 35.2153 9.86921 36.5337C9.32313 37.8521 9.18024 39.3028 9.45863 40.7024C9.73702 42.1019 10.4242 43.3875 11.4332 44.3966C12.4423 45.4056 13.7278 46.0928 15.1274 46.3711C16.527 46.6495 17.9777 46.5067 19.2961 45.9606C20.6144 45.4145 21.7413 44.4897 22.5341 43.3032C23.3268 42.1167 23.75 40.7218 23.75 39.2948C23.7478 37.3819 22.987 35.548 21.6344 34.1954C20.2818 32.8428 18.4479 32.082 16.535 32.0798Z" fill="white"/>
<path d="M34.5728 119.862C36.0671 119.862 37.2784 118.651 37.2784 117.157C37.2784 115.663 36.0671 114.451 34.5728 114.451C33.0785 114.451 31.8672 115.663 31.8672 117.157C31.8672 118.651 33.0785 119.862 34.5728 119.862Z" fill="url(#paint4_linear_351_2091)"/>
<path d="M26.7539 117.157C26.7539 115.611 27.2123 114.1 28.0712 112.815C28.93 111.529 30.1508 110.527 31.579 109.936C33.0072 109.344 34.5788 109.189 36.095 109.491C37.6112 109.793 39.0039 110.537 40.0971 111.63C41.1902 112.723 41.9346 114.116 42.2362 115.632C42.5378 117.148 42.383 118.72 41.7914 120.148C41.1998 121.576 40.198 122.797 38.9126 123.656C37.6273 124.515 36.1161 124.973 34.5701 124.973C32.4971 124.973 30.5091 124.15 29.0432 122.684C27.5774 121.218 26.7539 119.23 26.7539 117.157ZM34.5701 109.942C33.1432 109.942 31.7482 110.365 30.5617 111.158C29.3752 111.951 28.4504 113.078 27.9044 114.396C27.3583 115.714 27.2154 117.165 27.4938 118.565C27.7722 119.964 28.4593 121.25 29.4684 122.259C30.4774 123.268 31.763 123.955 33.1626 124.233C34.5621 124.512 36.0128 124.369 37.3312 123.823C38.6496 123.277 39.7764 122.352 40.5692 121.166C41.362 119.979 41.7851 118.584 41.7851 117.157C41.7829 115.244 41.0221 113.41 39.6695 112.058C38.3169 110.705 36.483 109.944 34.5701 109.942Z" fill="white"/>
<path d="M269.409 54.6271C270.903 54.6271 272.114 53.4157 272.114 51.9214C272.114 50.4272 270.903 49.2158 269.409 49.2158C267.914 49.2158 266.703 50.4272 266.703 51.9214C266.703 53.4157 267.914 54.6271 269.409 54.6271Z" fill="url(#paint5_linear_351_2091)"/>
<path d="M261.594 51.9207C261.594 50.3748 262.052 48.8636 262.911 47.5783C263.77 46.2929 264.991 45.2911 266.419 44.6995C267.847 44.1079 269.419 43.9531 270.935 44.2547C272.451 44.5563 273.844 45.3007 274.937 46.3938C276.03 47.4869 276.774 48.8797 277.076 50.3959C277.378 51.9121 277.223 53.4837 276.631 54.9119C276.04 56.3401 275.038 57.5609 273.752 58.4197C272.467 59.2786 270.956 59.737 269.41 59.737C268.384 59.737 267.367 59.5348 266.419 59.142C265.471 58.7492 264.609 58.1735 263.883 57.4477C263.157 56.7219 262.582 55.8602 262.189 54.9119C261.796 53.9636 261.594 52.9472 261.594 51.9207ZM269.41 44.7058C267.497 44.708 265.663 45.4688 264.311 46.8214C262.958 48.174 262.197 50.0079 262.195 51.9207C262.195 53.3477 262.618 54.7427 263.411 55.9292C264.204 57.1157 265.331 58.0405 266.649 58.5865C267.967 59.1326 269.418 59.2755 270.818 58.9971C272.217 58.7187 273.503 58.0315 274.512 57.0225C275.521 56.0135 276.208 54.7279 276.486 53.3283C276.765 51.9287 276.622 50.478 276.076 49.1597C275.53 47.8413 274.605 46.7145 273.418 45.9217C272.232 45.1289 270.837 44.7058 269.41 44.7058Z" fill="white"/>
<path d="M185.234 52.8271L261.889 51.6201L261.899 52.221L185.836 53.419V83.787H185.234V52.8271Z" fill="white"/>
<path d="M42.0859 116.856H127.764V86.4932H128.365V117.457H42.0859V116.856Z" fill="white"/>
<path d="M33.0688 53.4238H0V55.5282H33.0688V53.4238Z" fill="white"/>
<path d="M33.0688 59.4365H0V61.5409H33.0688V59.4365Z" fill="white"/>
<path d="M33.0688 65.4492H0V67.5536H33.0688V65.4492Z" fill="white"/>
<path d="M51.1078 131.286H18.0391V133.391H51.1078V131.286Z" fill="white"/>
<path d="M51.1078 137.299H18.0391V139.403H51.1078V137.299Z" fill="white"/>
<path d="M51.1078 143.312H18.0391V145.416H51.1078V143.312Z" fill="white"/>
<path d="M285.944 66.3516H252.875V68.4559H285.944V66.3516Z" fill="white"/>
<path d="M285.944 72.3633H252.875V74.4677H285.944V72.3633Z" fill="white"/>
<path d="M285.944 78.376H252.875V80.4803H285.944V78.376Z" fill="white"/>
<defs>
<linearGradient id="paint0_linear_351_2091" x1="137.086" y1="63.9463" x2="147.509" y2="77.5109" gradientUnits="userSpaceOnUse">
<stop stop-color="#2B3422"/>
<stop offset="0.3125" stop-color="#A4F675"/>
<stop offset="0.822868" stop-color="#7DAF5C"/>
</linearGradient>
<linearGradient id="paint1_linear_351_2091" x1="122.355" y1="80.4805" x2="132.778" y2="94.0451" gradientUnits="userSpaceOnUse">
<stop stop-color="#2B3422"/>
<stop offset="0.3125" stop-color="#A4F675"/>
<stop offset="0.822868" stop-color="#7DAF5C"/>
</linearGradient>
<linearGradient id="paint2_linear_351_2091" x1="179.824" y1="78.0752" x2="190.247" y2="91.6398" gradientUnits="userSpaceOnUse">
<stop stop-color="#2B3422"/>
<stop offset="0.3125" stop-color="#A4F675"/>
<stop offset="0.822868" stop-color="#7DAF5C"/>
</linearGradient>
<linearGradient id="paint3_linear_351_2091" x1="13.8281" y1="36.5889" x2="18.7652" y2="43.0142" gradientUnits="userSpaceOnUse">
<stop stop-color="#2B3422"/>
<stop offset="0.3125" stop-color="#A4F675"/>
<stop offset="0.822868" stop-color="#7DAF5C"/>
</linearGradient>
<linearGradient id="paint4_linear_351_2091" x1="31.8672" y1="114.451" x2="36.8043" y2="120.877" gradientUnits="userSpaceOnUse">
<stop stop-color="#2B3422"/>
<stop offset="0.3125" stop-color="#A4F675"/>
<stop offset="0.822868" stop-color="#7DAF5C"/>
</linearGradient>
<linearGradient id="paint5_linear_351_2091" x1="266.703" y1="49.2158" x2="271.64" y2="55.6412" gradientUnits="userSpaceOnUse">
<stop stop-color="#2B3422"/>
<stop offset="0.3125" stop-color="#A4F675"/>
<stop offset="0.822868" stop-color="#7DAF5C"/>
</linearGradient>
</defs>
</svg>
