<svg width="32" height="31" viewBox="0 0 32 31" fill="none" xmlns="http://www.w3.org/2000/svg">
<path fill-rule="evenodd" clip-rule="evenodd" d="M17.9735 1.43694L30.9146 26.3235C31.5941 27.6302 31.0857 29.2402 29.779 29.9196C29.399 30.1172 28.977 30.2204 28.5487 30.2204H2.66667C1.19391 30.2204 0 29.0266 0 27.5538C0 27.1255 0.103161 26.7035 0.300756 26.3235L13.2418 1.43694C13.9213 0.130286 15.5313 -0.378156 16.8379 0.301306C17.3242 0.554156 17.7207 0.950689 17.9735 1.43694ZM13.6077 12.2204V18.2204C13.6077 19.325 14.5031 20.2204 15.6077 20.2204C16.7122 20.2204 17.6077 19.325 17.6077 18.2204V12.2204C17.6077 11.1159 16.7122 10.2204 15.6077 10.2204C14.5031 10.2204 13.6077 11.1159 13.6077 12.2204ZM15.6077 26.2204C16.7122 26.2204 17.6077 25.325 17.6077 24.2204C17.6077 23.1159 16.7122 22.2204 15.6077 22.2204C14.5031 22.2204 13.6077 23.1159 13.6077 24.2204C13.6077 25.325 14.5031 26.2204 15.6077 26.2204Z" fill="#E42628"/>
</svg>
