<svg preserveAspectRatio="none" width="100%" height="100%" overflow="visible" style="display: block;" viewBox="0 0 23 30" fill="none" xmlns="http://www.w3.org/2000/svg">
<g id="Frame 35">
<g id="CFA franc">
<mask id="path-1-outside-1_0_93" maskUnits="userSpaceOnUse" x="-0.5" y="-0.5" width="24" height="31" fill="black">
<rect fill="white" x="-0.5" y="-0.5" width="24" height="31"/>
<path d="M22.5 3.98047H8.17871V12.873H20.2168V16.3535H8.17871V21.7666H15.0283V24.667H8.17871V29.5H4.02832V24.667H0.5V21.7666H4.02832V0.5H22.5V3.98047Z"/>
</mask>
<path d="M22.5 3.98047H8.17871V12.873H20.2168V16.3535H8.17871V21.7666H15.0283V24.667H8.17871V29.5H4.02832V24.667H0.5V21.7666H4.02832V0.5H22.5V3.98047Z" fill="var(--fill-0, #A4F675)"/>
<path d="M22.5 3.98047V4.48047H23V3.98047H22.5ZM8.17871 3.98047V3.48047H7.67871V3.98047H8.17871ZM8.17871 12.873H7.67871V13.373H8.17871V12.873ZM20.2168 12.873H20.7168V12.373H20.2168V12.873ZM20.2168 16.3535V16.8535H20.7168V16.3535H20.2168ZM8.17871 16.3535V15.8535H7.67871V16.3535H8.17871ZM8.17871 21.7666H7.67871V22.2666H8.17871V21.7666ZM15.0283 21.7666H15.5283V21.2666H15.0283V21.7666ZM15.0283 24.667V25.167H15.5283V24.667H15.0283ZM8.17871 24.667V24.167H7.67871V24.667H8.17871ZM8.17871 29.5V30H8.67871V29.5H8.17871ZM4.02832 29.5H3.52832V30H4.02832V29.5ZM4.02832 24.667H4.52832V24.167H4.02832V24.667ZM0.5 24.667H0V25.167H0.5V24.667ZM0.5 21.7666V21.2666H0V21.7666H0.5ZM4.02832 21.7666V22.2666H4.52832V21.7666H4.02832ZM4.02832 0.5V0H3.52832V0.5H4.02832ZM22.5 0.5H23V0H22.5V0.5ZM22.5 3.98047V3.48047H8.17871V3.98047V4.48047H22.5V3.98047ZM8.17871 3.98047H7.67871V12.873H8.17871H8.67871V3.98047H8.17871ZM8.17871 12.873V13.373H20.2168V12.873V12.373H8.17871V12.873ZM20.2168 12.873H19.7168V16.3535H20.2168H20.7168V12.873H20.2168ZM20.2168 16.3535V15.8535H8.17871V16.3535V16.8535H20.2168V16.3535ZM8.17871 16.3535H7.67871V21.7666H8.17871H8.67871V16.3535H8.17871ZM8.17871 21.7666V22.2666H15.0283V21.7666V21.2666H8.17871V21.7666ZM15.0283 21.7666H14.5283V24.667H15.0283H15.5283V21.7666H15.0283ZM15.0283 24.667V24.167H8.17871V24.667V25.167H15.0283V24.667ZM8.17871 24.667H7.67871V29.5H8.17871H8.67871V24.667H8.17871ZM8.17871 29.5V29H4.02832V29.5V30H8.17871V29.5ZM4.02832 29.5H4.52832V24.667H4.02832H3.52832V29.5H4.02832ZM4.02832 24.667V24.167H0.5V24.667V25.167H4.02832V24.667ZM0.5 24.667H1V21.7666H0.5H0V24.667H0.5ZM0.5 21.7666V22.2666H4.02832V21.7666V21.2666H0.5V21.7666ZM4.02832 21.7666H4.52832V0.5H4.02832H3.52832V21.7666H4.02832ZM4.02832 0.5V1H22.5V0.5V0H4.02832V0.5ZM22.5 0.5H22V3.98047H22.5H23V0.5H22.5Z" fill="var(--stroke-0, #A4F675)" mask="url(#path-1-outside-1_0_93)"/>
</g>
</g>
</svg>
