<svg width="21" height="20" viewBox="0 0 21 20" fill="none" xmlns="http://www.w3.org/2000/svg">
<path d="M14.1654 17.8334V16C14.1654 15.0276 13.7791 14.0949 13.0914 13.4073C12.4038 12.7197 11.4712 12.3334 10.4987 12.3334H4.9987C4.02624 12.3334 3.09361 12.7197 2.40597 13.4073C1.71834 14.0949 1.33203 15.0276 1.33203 16V17.8334" stroke="#A4F675" stroke-width="2.66667" stroke-linecap="round" stroke-linejoin="round"/>
<path d="M7.7487 8.66671C9.77374 8.66671 11.4154 7.02508 11.4154 5.00004C11.4154 2.975 9.77374 1.33337 7.7487 1.33337C5.72365 1.33337 4.08203 2.975 4.08203 5.00004C4.08203 7.02508 5.72365 8.66671 7.7487 8.66671Z" stroke="#A4F675" stroke-width="2.66667" stroke-linecap="round" stroke-linejoin="round"/>
<path d="M15.082 5.91663L19.6654 10.5" stroke="#A4F675" stroke-width="2.66667" stroke-linecap="round" stroke-linejoin="round"/>
<path d="M19.6654 5.91663L15.082 10.5" stroke="#A4F675" stroke-width="2.66667" stroke-linecap="round" stroke-linejoin="round"/>
</svg>
