<svg width="20" height="18" viewBox="0 0 20 18" fill="none" xmlns="http://www.w3.org/2000/svg">
<path d="M6 18C6.55 18 7.02083 17.8042 7.4125 17.4125C7.80417 17.0208 8 16.55 8 16L8 12C8 11.45 7.80417 10.9792 7.4125 10.5875C7.02083 10.1958 6.55 10 6 10L2 10C1.45 10 0.979167 10.1958 0.587501 10.5875C0.195835 10.9792 1.41902e-06 11.45 1.37266e-06 12L1.03549e-06 16C9.89125e-07 16.55 0.195834 17.0208 0.5875 17.4125C0.979167 17.8042 1.45 18 2 18L6 18ZM6 16L2 16L2 12L6 12L6 16ZM20 15L20 13L11 13L11 15L20 15ZM6 8C6.55 8 7.02083 7.80417 7.4125 7.4125C7.80417 7.02083 8 6.55 8 6L8 2C8 1.45 7.80417 0.979166 7.4125 0.587499C7.02083 0.195832 6.55 -1.13375e-06 6 -1.18011e-06L2 -1.51729e-06C1.45 -1.56365e-06 0.979168 0.195832 0.587502 0.587498C0.195835 0.979165 2.26196e-06 1.45 2.2156e-06 2L1.87842e-06 6C1.83206e-06 6.55 0.195835 7.02083 0.587501 7.4125C0.979168 7.80417 1.45 8 2 8L6 8ZM6 6L2 6L2 2L6 2L6 6ZM20 5L20 3L11 3L11 5L20 5Z" fill="#0B1705"/>
</svg>
