<svg xmlns="http://www.w3.org/2000/svg" xmlns:xlink="http://www.w3.org/1999/xlink" xmlns:inkscape="http://www.inkscape.org/namespaces/inkscape" version="1.1" width="1084.99" height="590.16" viewBox="0 0 1084.99 590.16">
<defs>
<clipPath id="clip_1">
<path transform="matrix(1,0,0,-1,0,590.16)" d="M0 590.16H1084.986V0H0Z"/>
</clipPath>
</defs>
<path transform="matrix(1,0,0,-1,12.5071,292.35139)" d="M0 0 76.66-122.373 74.544-250.763 1012.57-207.277V-165.585L1059.974-119.036V-2.151Z" fill="#ffffff"/>
<g clip-path="url(#clip_1)">
<path transform="matrix(1,0,0,-1,110.3689,575.6977)" d="M0 0H-.327C-25.72 .079-49.52 9.397-67.343 26.237-81.266 39.392-97.862 63.193-97.862 101.886-97.862 118.357-89.591 132.966-75.737 140.962-61.552 149.148-43.225 149.145-29.046 140.955-15.2 132.956-6.936 118.352-6.938 101.886-6.938 94.395-4.602 90.596 .005 90.596 .968 90.596 2.791 90.802 4.17 92.176 5.878 93.881 6.858 97.42 6.858 101.886V164.991C6.858 178.406 12.194 190.477 21.882 198.981 30.161 206.248 40.971 210.251 52.32 210.251 63.669 210.251 74.479 206.248 82.759 198.981 92.447 190.477 97.782 178.406 97.782 164.991L97.766 101.073C97.526 62.465 80.79 38.812 66.792 25.767 48.954 9.144 25.244 .001 0 0" fill="#ffffff"/>
<path transform="matrix(1,0,0,-1,116.1578,476.37937)" d="M0 0ZM-58.185 35.308C-64.136 35.308-70.079 33.81-75.273 30.81-85.213 25.075-91.148 14.52-91.148 2.569-91.148-31.665-76.681-52.523-64.543-63.993-49.042-78.643-28.282-86.744-6.073-86.813L-5.788-99.318V-86.813C16.282-86.813 36.969-78.855 52.478-64.405 64.673-53.04 79.254-32.324 79.474 1.832L79.49 65.675C79.49 75.432 75.664 84.167 68.719 90.265 56.719 100.791 36.342 100.791 24.342 90.265 17.398 84.167 13.571 75.432 13.571 65.671V2.569C13.571-5.426 11.373-11.845 7.213-15.997 3.826-19.372-.79-21.228-5.788-21.228-14.76-21.228-25.229-14.996-25.229 2.569-25.229 14.516-31.156 25.075-41.088 30.81-46.282 33.806-52.234 35.308-58.185 35.308M-5.788-111.823H-6.114C-34.738-111.737-61.58-101.207-81.721-82.173-97.433-67.323-116.158-40.571-116.158 2.569-116.158 23.565-105.55 42.22-87.778 52.474-69.794 62.846-46.551 62.846-28.584 52.466-21.737 48.513-15.957 43.315-11.438 37.217V65.671C-11.438 82.738-4.592 98.146 7.848 109.063 18.407 118.332 32.149 123.436 46.535 123.436 60.912 123.436 74.654 118.332 85.213 109.063 97.653 98.146 104.5 82.738 104.5 65.671L104.483 1.75C104.215-41.398 85.319-67.983 69.525-82.702 49.376-101.479 22.632-111.823-5.788-111.823" fill="#ffffff"/>
<path transform="matrix(1,0,0,-1,189.6432,525.14999)" d="M0 0C-.003-.007-.005-.014-.008-.02ZM106.909-50.282C101.793-50.282 96.71-49.426 91.875-47.707 82.875-44.507 75.372-38.6 70.075-30.681H49.82C42.857-41.036 32.084-47.977 19.599-49.805 3.418-52.176-13.585-45.413-23.724-32.583-33.627-20.052-35.912-3.451-29.835 11.827L17.781 131.232C24.769 148.622 41.316 159.814 59.964 159.814H59.975C78.626 159.81 95.168 148.613 102.119 131.289L149.749 11.851C154.708-.613 154.21-13.781 148.355-25.246 143.356-35.037 134.808-42.735 124.285-46.923 118.665-49.16 112.765-50.282 106.909-50.282" fill="#ffffff"/>
<path transform="matrix(1,0,0,-1,189.6235,525.14889)" d="M0 0-5.585 11.166ZM43.181-18.179H76.771L80.483-23.727C84.31-29.438 89.707-33.655 96.082-35.923 103.563-38.593 111.998-38.361 119.691-35.304 127.384-32.239 133.621-26.65 137.235-19.559 141.436-11.349 141.754-1.84 138.147 7.221L90.521 126.656C85.49 139.189 73.506 147.306 59.992 147.31 46.478 147.31 34.47 139.169 29.406 126.57L-18.195 7.193C-21.077-.033-21.387-7.649-19.278-14.564L12.513 64.913 12.521-7.73-15.916-21.961C-15.297-22.95-14.63-23.906-13.897-24.835-6.472-34.221 5.984-39.196 17.813-37.433 26.695-36.134 34.388-31.258 39.46-23.707ZM106.926-62.789C100.323-62.789 93.851-61.677 87.705-59.487 78.415-56.186 70.299-50.609 63.916-43.189H56.011C47.137-53.516 35.08-60.183 21.436-62.182 .863-65.154-20.654-56.605-33.517-40.339-46.225-24.252-49.181-3.02-41.43 16.449L6.187 135.863C15.094 158.02 36.204 172.32 59.984 172.32 83.781 172.315 104.882 158.036 113.74 135.945L161.382 16.482C167.699 .619 167.032-16.217 159.509-30.94 153.135-43.425 142.275-53.231 128.931-58.543 121.84-61.36 114.44-62.789 106.926-62.789" fill="#ffffff"/>
<path transform="matrix(1,0,0,-1,396.5058,453.9513)" d="M0 0C-3.458 0-8.738-1.023-12.849-6.328-17.738-12.638-16.229-19.272-15.353-21.832-14.28-24.966-11.38-30.51-4.004-32.41 3.179-34.256 10.978-30.916 14.532-24.46 16.132-21.552 17.978-18.872 20.043-16.445 17.976-14.014 16.126-11.331 14.523-8.416 10.716-1.5 4.046-.263 1.356-.052 .947-.02 .491 0 0 0M.109-123.704C-33.002-123.704-64.219-108.546-84.673-82.153-106.847-53.539-113.091-16.015-101.376 18.224-89.637 52.534-61.674 78.416-26.575 87.459 20.838 99.673 70.479 78.259 94.138 35.386L94.17 35.329C100.619 23.58 101.751 10.442 97.357-1.664 95.375-7.127 92.337-12.133 88.447-16.445 92.341-20.762 95.381-25.772 97.365-31.241 101.756-43.352 100.618-56.491 94.16-68.237 76.705-99.943 44.722-120.548 8.599-123.372 5.759-123.594 2.927-123.704 .109-123.704" fill="#ffffff"/>
<path transform="matrix(1,0,0,-1,396.5062,466.45527)" d="M0 0C-1.506 0-2.271-.594-2.963-1.482-3.818-2.593-4.014-3.863-3.525-5.267-2.833-7.294-1.563-7.62-.887-7.795 .757-8.218 2.768-7.384 3.582-5.919 3.948-5.251 4.323-4.592 4.714-3.94 4.323-3.281 3.94-2.617 3.566-1.942 2.931-.782 1.856-.13 .374-.016ZM-.081-32.902C-2.434-32.902-4.795-32.613-7.124-32.015-16.657-29.556-23.968-22.767-27.183-13.384-30.383-4.066-28.722 6.114-22.73 13.84-17.153 21.041-9.077 25.01 0 25.01 .839 25.01 1.62 24.973 2.336 24.92 12.147 24.147 20.801 18.615 25.474 10.119 26.662 7.958 28.038 5.955 29.569 4.164L36.472-3.948 29.56-12.053C28.038-13.836 26.67-15.83 25.49-17.972 20.369-27.265 10.307-32.902-.081-32.902M.204 90.863C-7.645 90.863-15.582 89.882-23.455 87.855-54.464 79.865-79.173 56.996-89.544 26.683-99.892-3.566-94.372-36.712-74.793-61.987-55.189-87.285-24.578-100.946 7.612-98.398 39.533-95.907 67.791-77.703 83.202-49.702 87.9-41.162 88.755-31.673 85.612-22.999 84.188-19.087 82.014-15.484 79.156-12.309L71.609-3.932 79.164 4.441C82.014 7.596 84.179 11.186 85.604 15.114 88.747 23.78 87.9 33.269 83.202 41.817 66.22 72.599 34.103 90.863 .204 90.863M.106-123.705C-37.197-123.705-71.707-106.796-94.559-77.308-119.317-45.354-126.285-3.456-113.203 34.775-100.095 73.083-68.882 101.976-29.691 112.075 23.292 125.707 78.676 101.793 105.086 53.931 113.333 38.907 114.749 22.115 109.116 6.578 107.772 2.886 106.071-.627 104.027-3.94 106.079-7.262 107.781-10.779 109.124-14.467 114.758-30.016 113.333-46.807 105.118-61.759 85.629-97.169 49.905-120.184 9.574-123.334 6.407-123.583 3.248-123.705 .106-123.705" fill="#ffffff"/>
<path transform="matrix(1,0,0,-1,587.9705,400.70698)" d="M0 0C-.005-.005-.01-.009-.015-.014ZM8.596-174.994C-2.007-174.995-12.451-171.113-20.999-163.7L-21.2-163.525-43.289-144.016C-45.719-151.483-50.046-158.109-56.04-163.37-64.319-170.638-75.129-174.64-86.479-174.64-97.828-174.64-108.638-170.638-116.918-163.37-126.605-154.866-131.941-142.795-131.941-129.38V-10C-131.941 3.415-126.605 15.486-116.918 23.99-108.638 31.258-97.828 35.26-86.479 35.26-75.129 35.26-64.319 31.258-56.04 23.99-50.082 18.76-45.77 12.181-43.333 4.768L-20.992 24.326C-10.868 33.1 1.739 36.962 14.495 35.21 25.391 33.71 35.479 28.17 42.9 19.608 50.328 11.039 54.379 .258 54.308-10.749 54.224-23.623 48.601-35.549 38.475-44.328L9.283-69.694 38.5-95.08C50.912-105.842 56.53-121.647 53.501-137.338 50.401-153.395 38.41-167.223 22.952-172.568 18.243-174.196 13.402-174.993 8.596-174.994" fill="#ffffff"/>
<path transform="matrix(1,0,0,-1,580.4472,390.71418)" d="M0 0 .016 .012ZM15.012-20.011 15.029-19.999ZM-41.756-132.037-5.398-164.142C3.672-172.006 15.672-174.444 26.385-170.744 37.702-166.832 46.478-156.709 48.749-144.957 50.923-133.71 46.836-122.329 37.832-114.521L-2.263-79.686 37.799-44.882C45.175-38.483 49.27-29.886 49.327-20.666 49.384-12.696 46.413-4.852 40.974 1.425 35.536 7.693 28.201 11.744 20.32 12.83 11.121 14.088 2.076 11.255-5.275 4.885L-41.797-27.073-47.691-9.126C-49.457-3.757-52.51 .863-56.768 4.608-68.752 15.118-89.146 15.126-101.146 4.6-108.09-1.498-111.916-10.233-111.916-19.995V-139.372C-111.916-149.134-108.09-157.865-101.146-163.963-89.146-174.497-68.76-174.493-56.76-163.967-52.486-160.21-49.425-155.557-47.65-150.135ZM16.119-197.492C2.426-197.492-10.991-192.396-21.664-183.139L-32.125-173.903C-34.502-177.127-37.229-180.098-40.266-182.761-50.825-192.029-64.559-197.138-78.953-197.138-93.338-197.138-107.08-192.029-117.64-182.756-130.079-171.843-136.926-156.436-136.926-139.372V-19.995C-136.926-2.927-130.079 12.48-117.64 23.398-107.08 32.666-93.338 37.771-78.953 37.771-64.567 37.771-50.825 32.666-40.266 23.398-37.246 20.744-34.535 17.788-32.166 14.585L-21.696 23.744C-8.792 34.942 7.294 39.879 23.723 37.604 37.62 35.695 50.459 28.665 59.87 17.809 69.297 6.936 74.426-6.786 74.337-20.825 74.231-37.343 67.075-52.596 54.187-63.77L35.87-79.686 54.22-95.634C70.055-109.356 77.186-129.57 73.303-149.699 69.371-170.064 54.163-187.6 34.559-194.378 28.592-196.446 22.388-197.492 16.119-197.492" fill="#ffffff"/>
<path transform="matrix(1,0,0,-1,645.6398,574.64218)" d="M0 0C-11.349 0-22.158 4.002-30.438 11.269-40.126 19.773-45.462 31.844-45.462 45.26V164.64C-45.462 189.708-25.068 210.102 0 210.102L53.693 210.084C79.196 209.692 101.903 200.055 117.63 182.948 131.863 167.467 139.676 146.986 139.631 125.28 139.586 103.541 131.654 83.111 117.295 67.753 106.097 55.776 85.838 41.421 52.92 41.051 52.095 41.042 51.213 41.019 50.291 40.994 48.787 40.956 47.099 40.912 45.271 40.905 44.241 29.244 39.066 18.841 30.438 11.269 22.159 4.002 11.349 0 0 0" fill="#ffffff"/>
<path transform="matrix(1,0,0,-1,645.6415,377.04518)" d="M0 0C-18.171 0-32.955-14.784-32.955-32.955V-152.337C-32.955-162.102-29.129-170.834-22.193-176.927-10.193-187.462 10.193-187.458 22.193-176.931 28.388-171.489 32.06-164.109 32.817-155.589L33.826-144.241 45.216-144.188C46.795-144.18 48.261-144.143 49.588-144.11L52.795-144.041C81.289-143.72 98.63-131.5 108.155-121.307 120.351-108.257 127.091-90.855 127.124-72.293 127.165-53.74 120.521-36.277 108.424-23.113 95.048-8.56 75.542-.354 53.495-.016ZM0-210.103C-14.385-210.103-28.128-204.994-38.687-195.721-51.118-184.812-57.965-169.405-57.965-152.337V-32.955C-57.965-.993-31.962 25.01 0 25.01L53.691 24.993C82.861 24.541 108.766 13.47 126.839-6.187 143.203-23.992 152.19-47.487 152.134-72.346 152.085-97.25 142.958-120.705 126.424-138.383 113.87-151.82 91.474-167.866 55.637-168.994 52.632-179.341 46.82-188.585 38.695-195.721 28.128-204.994 14.393-210.103 0-210.103" fill="#ffffff"/>
<path transform="matrix(1,0,0,-1,840.7394,455.2295)" d="M0 0C-2.082 0-4.211-.405-6.165-1.23-10.771-3.174-12.832-9.627-12.832-15.159-12.833-20.695-10.771-27.152-6.164-29.098-1.66-31 3.792-30.67 7.401-28.276 10.787-26.031 12.504-21.619 12.504-15.164 12.504-8.706 10.788-4.294 7.403-2.049 5.359-.694 2.721 0 0 0M-.078-120.983C-26.865-120.983-52.013-111.454-70.888-94.151-85.801-80.481-103.577-55.68-103.577-15.164-103.577 24.757-85.312 58.197-53.465 76.583-21.029 95.307 20.887 95.307 53.319 76.579 85.16 58.194 103.421 24.752 103.42-15.164V-15.166C103.42-55.68 85.644-80.481 70.732-94.151 51.857-111.454 26.709-120.983-.078-120.983" fill="#ffffff"/>
<path transform="matrix(1,0,0,-1,840.6218,468.27888)" d="M0 0C-.122-.586-.212-1.307-.212-2.109-.212-2.91-.122-3.631 0-4.221 .065-3.684 .114-2.988 .114-2.113 .114-1.233 .065-.537 0 0M.065-29.764C-3.655-29.764-7.425-29.044-10.909-27.574-19.604-23.898-25.221-13.905-25.221-2.109-25.221 9.68-19.604 19.669-10.917 23.341-2.613 26.821 7.449 26.056 14.434 21.419 19.303 18.191 25.124 11.487 25.124-2.113 25.124-15.688 19.319-22.4 14.451-25.641 10.331-28.368 5.243-29.764 .065-29.764M.041 91.205C-16.372 91.205-32.776 87.07-47.096 78.806-74.972 62.715-90.953 33.22-90.953-2.113-90.953-38.092-75.387-59.915-62.32-71.882-45.761-87.07-23.617-95.43 .041-95.43 23.691-95.43 45.835-87.07 62.402-71.882 75.46-59.907 91.034-38.08 91.034-2.117 91.034 33.216 75.053 62.707 47.186 78.802 32.866 87.07 16.453 91.205 .041 91.205M.041-120.44C-29.886-120.44-58.038-109.743-79.221-90.318-95.984-74.96-115.962-47.186-115.962-2.113-115.962 42.399-95.422 79.783-59.601 100.462-23.365 121.384 23.471 121.38 59.691 100.458 95.504 79.779 116.044 42.391 116.044-2.113 116.044-47.17 96.065-74.947 79.303-90.318 58.112-109.743 29.959-120.44 .041-120.44" fill="#ffffff"/>
<path transform="matrix(1,0,0,-1,979.6149,575.3473)" d="M0 0C-11.349 0-22.159 4.003-30.439 11.27-40.126 19.774-45.462 31.845-45.462 45.26V119.178H-47.615C-61.03 119.178-73.102 124.514-81.605 134.202-88.872 142.482-92.874 153.292-92.874 164.64-92.874 175.989-88.872 186.799-81.605 195.078-73.102 204.766-61.03 210.102-47.615 210.102H47.607C61.023 210.102 73.094 204.766 81.598 195.078 88.865 186.799 92.867 175.989 92.867 164.64 92.867 153.292 88.865 142.482 81.598 134.202 73.094 124.514 61.023 119.178 47.607 119.178H45.462V45.26C45.462 31.845 40.126 19.774 30.439 11.27 22.159 4.003 11.349 0 0 0" fill="#ffffff"/>
<path transform="matrix(1,0,0,-1,931.998,377.7494)" d="M0 0C-9.761 0-18.497-3.826-24.594-10.771-29.854-16.763-32.752-24.643-32.752-32.959-32.752-41.272-29.854-49.152-24.594-55.144-18.497-62.088-9.761-65.915 0-65.915H14.662V-152.337C14.662-162.102 18.489-170.834 25.425-176.927 37.425-187.462 57.81-187.458 69.81-176.931 76.747-170.834 80.573-162.102 80.573-152.337V-65.915H95.227C104.988-65.915 113.724-62.088 119.821-55.144 125.08-49.148 127.979-41.267 127.979-32.959 127.979-24.651 125.08-16.767 119.813-10.767 113.724-3.826 104.988 0 95.227 0ZM47.617-210.103C33.232-210.103 19.49-204.994 8.931-195.721-3.501-184.812-10.347-169.405-10.347-152.337V-90.057C-23.243-87.855-34.722-81.509-43.384-71.646-52.657-61.087-57.761-47.349-57.761-32.959-57.761-18.566-52.657-4.828-43.384 5.731-32.467 18.163-17.064 25.01 0 25.01H95.227C112.291 25.01 127.694 18.163 138.611 5.731 147.884-4.84 152.988-18.578 152.988-32.959 152.988-47.337 147.884-61.075 138.619-71.642 129.957-81.505 118.47-87.851 105.582-90.057V-152.337C105.582-169.405 98.736-184.812 86.304-195.725 75.745-204.994 62.003-210.103 47.617-210.103" fill="#ffffff"/>
<path transform="matrix(1,0,0,-1,217.0755,417.8838)" d="M0 0H-112.382C-163.213 0-204.568 41.355-204.568 92.186V242.498C-204.568 263.628-198.013 283.132-185.842 298.888-188.348 307.481-189.649 316.505-189.649 325.698-189.649 348.66-181.533 370.553-166.795 387.344-149.509 407.038-125.021 417.884-97.84 417.884L1.208 417.87C1.445 417.87 1.681 417.868 1.918 417.866 51.974 417.288 94.64 393.894 118.975 353.683 135.379 326.579 141.694 294.582 137.714 263.627 149.216 247.883 157.856 229.903 163.255 210.256 172.124 177.976 171.271 142.82 160.854 111.265 150.293 79.279 130.631 52.057 103.992 32.54 75.538 11.695 39.82 .444 .7 .004 .466 .001 .234 0 0 0" fill="#ffffff"/>
<path transform="matrix(1,0,0,-1,606.1931,421.81459)" d="M0 0C-11.797-.001-23.635 .994-35.403 3.008-86.392 11.736-132.008 39.17-163.848 80.257-206.679 135.523-218.74 208.001-196.112 274.135-173.437 340.402-119.428 390.391-51.635 407.857 39.933 431.445 135.802 390.087 181.511 307.288 181.519 307.271 181.529 307.255 181.537 307.239 196.167 280.683 197.146 250.147 184.579 223.932 190.752 209.178 192.036 195.704 192.604 189.733 194.01 174.981 193.737 157.897 193.39 136.267 193.206 124.765 192.998 111.729 192.998 96.931 192.998 75.201 185.467 54.241 171.792 37.909 159.348 23.048 142.709 12.618 123.677 7.749 104.683 2.889 85.113 4.029 67.072 11.041 45.53 3.739 22.854 .001 0 0" fill="#ffffff"/>
<path transform="matrix(1,0,0,-1,392.3736,417.52119)" d="M0 0C-22.962 0-44.855 8.117-61.647 22.855-81.341 40.141-92.186 64.63-92.186 91.81V313.938C-92.186 341.112-81.345 365.598-61.66 382.883-44.873 397.625-22.982 405.745-.021 405.749H-.005C22.953 405.749 44.84 397.636 61.632 382.901 81.327 365.62 92.177 341.136 92.186 313.959V313.938 91.81C92.186 64.63 81.341 40.141 61.647 22.855 44.855 8.117 22.962 0 0 0" fill="#ffffff"/>
<path transform="matrix(1,0,0,-1,1019.7493,153.87589)" d="M0 0C.005-.019 .008-.038 .013-.058 .008-.038 .005-.019 0 0M-74.669-267.925H-163.047C-213.039-267.925-258.548-238.505-279.086-192.948-286.557-176.629-290.345-159.027-290.345-140.626-290.345-132.739-289.617-124.927-288.172-117.296V-5.886C-288.172-2.078-287.822 1.722-287.127 5.466-276.769 61.272-235.502 108.195-179.405 127.97-160.679 134.674-140.831 138.073-120.411 138.073-100.062 138.073-80.214 134.686-61.413 128.006-29.234 116.707-.785 95.725 18.748 68.885 31.906 51.082 40.917 31.216 45.534 9.832 50.349-12.567 46.151-35.437 33.728-54.627 31.628-57.869 29.338-60.939 26.871-63.827 31.903-70.473 36.291-77.622 39.959-85.191 48.316-102.358 52.732-121.525 52.732-140.626 52.732-158.58 49.002-176.019 41.644-192.461 21.21-238.304-24.442-267.925-74.669-267.925" fill="#ffffff"/>
<path transform="matrix(1,0,0,-1,0,590.16)" d="M178.788 115.719H899.319V267.391H178.788Z" fill="#161f13"/>
<path transform="matrix(1,0,0,-1,134.6886,175.38516)" d="M0 0V-120.344H82.387C145.828-120.344 146.641-34.936 82.387-34.936 63.828-34.936 27.334-39.254 27.334-4.953 27.334 29.348 63.815 25.029 82.387 25.029 105.898 25.029 105.096 53.217 82.387 53.217H-15.454C-54.928 53.217-54.928 113.182-15.454 113.182L83.587 113.168C150.547 112.395 172.898 47.56 150.699 3.946 218.39-47.409 198.922-178.983 82.387-180.294H-29.995C-46.552-180.294-59.978-166.868-59.978-150.312V0C-59.978 39.475 0 39.475 0 0" fill="#f05922"/>
<path transform="matrix(1,0,0,-1,172.9678,257.44929)" d="M0 0V12.197C11.155 9.173 22.128 8.675 31.174 8.675 34.072 8.675 36.785 8.729 39.178 8.777 41.009 8.814 42.738 8.849 44.107 8.849 49.146 8.849 52.046 7.738 52.999 6.786 53.644 6.14 53.714 5.062 53.714 4.628 53.714 4.143 53.628 2.927 52.822 2.116 51.807 1.093 48.984 0 44.107 0ZM-53.728 233.526H-53.733C-73.927 233.526-92.03 225.571-104.707 211.128-115.612 198.703-121.618 182.415-121.618 165.264-121.618 153.887-118.975 142.889-114.012 133.147-114.053 133.112-114.094 133.076-114.134 133.04-128.581 120.363-136.537 102.259-136.537 82.064V-68.248C-136.537-105.887-105.914-136.509-68.275-136.509H44.107C44.251-136.509 44.394-136.509 44.538-136.507 61.818-136.313 78.256-133.788 93.396-129.002 108.228-124.313 121.876-117.447 133.96-108.594 156.557-92.039 173.253-68.897 182.242-41.668 191.198-14.542 191.926 15.699 184.292 43.483 178.767 63.59 169.295 81.628 156.436 96.758 158.394 105.995 159.243 115.525 158.931 125.105 158.282 145.015 152.64 164.296 142.614 180.862 133.078 196.621 119.597 209.702 103.631 218.691 86.607 228.277 67.132 233.262 45.749 233.509 45.603 233.511 45.458 233.512 45.313 233.512ZM-53.733 195.246 45.307 195.232C112.268 194.459 134.619 129.625 112.419 86.01 180.111 34.655 160.642-96.919 44.107-98.23H-68.275C-84.831-98.23-98.257-84.804-98.257-68.248V82.064C-98.257 101.801-83.263 111.67-68.268 111.67-53.274 111.67-38.279 101.801-38.279 82.064V-38.279H44.107C107.549-38.279 108.362 47.129 44.107 47.129 40.375 47.129 35.914 46.954 31.174 46.954 12.343 46.954-10.945 49.708-10.945 77.111-10.945 104.512 12.336 107.268 31.169 107.268 35.912 107.268 40.371 107.093 44.107 107.093 67.619 107.093 66.817 135.281 44.107 135.281H-53.733C-93.207 135.281-93.207 195.246-53.733 195.246" fill="#161f13"/>
<path transform="matrix(1,0,0,-1,733.2465,144.58878)" d="M0 0C18.986-34.466-33.472-63.373-52.471-28.81-81.626 24.146-156.603 31.003-194.421-17.785-231.717-65.911-207.75-137.356-148.407-152.644-114.713-161.322-79.157-148.421-58.735-121.033-96.28-121.033-145.467-129.877-145.467-91.051-145.467-74.493-132.043-61.068-115.485-61.068 20.697-61.068 3.74-44.097 3.74-180.294 3.74-211.27-37.763-221.687-52.554-194.671-112.492-230.269-194.643-219.631-241.734-158.866-305.741-76.274-263.907 44.442-163.169 70.395-98.941 86.939-32.036 58.033 0 0" fill="#f05922"/>
<path transform="matrix(1,0,0,-1,564.4218,193.08698)" d="M0 0C1.311 2.519 2.865 4.948 4.661 7.264 16.872 23.019 32.975 25.37 41.486 25.369 42.747 25.369 43.996 25.323 45.232 25.231 26.987 23.062 10.926 13.669 0 0M41.988 161.793V161.793H41.985 41.984C26.559 161.792 11.124 159.831-3.893 155.963-34.313 148.126-62.227 132.703-84.62 111.361-105.849 91.129-122.13 65.645-131.704 37.663-141.258 9.739-144-20.295-139.634-49.194-135.022-79.721-122.411-108.983-103.166-133.816-68.211-178.921-15.415-204.791 41.684-204.791 65.158-204.791 88.273-200.366 109.798-191.852 119.495-197.13 130.534-199.985 142.191-199.985 159.504-199.985 176.042-193.656 188.758-182.165 203-169.295 210.844-151.407 210.844-131.796 210.844-116.796 211.055-103.651 211.241-92.053 211.587-70.437 211.837-54.82 210.578-41.43 209.6-31.051 207.309-16.884 199.136-4.07 200.166-2.606 201.138-1.102 202.047 .438 207.821 10.21 210.976 21.301 211.17 32.51 211.375 44.382 208.408 55.976 202.353 66.968 170.058 125.47 108.616 161.793 41.988 161.793M41.985 123.513C93.853 123.515 142.822 95.601 168.824 48.498 181.762 25.013 161.526 4.108 141.307 4.108 131.854 4.108 122.406 8.677 116.353 19.689 100.502 48.481 71.096 63.645 41.49 63.649 16.644 63.651-8.34 52.975-25.596 30.713-62.893-17.413-38.925-88.858 20.417-104.145 27.432-105.952 34.529-106.824 41.552-106.824 68.262-106.824 93.919-94.221 110.09-72.535 98.341-72.535 85.446-73.401 73.281-73.401 46.572-73.401 23.357-69.229 23.357-42.553 23.357-25.995 36.781-12.57 53.34-12.57 80.503-12.57 101.583-11.895 117.91-11.895 183.44-11.895 172.565-22.765 172.565-131.796 172.565-150.496 157.434-161.706 142.191-161.706 132.185-161.706 122.132-156.879 116.271-146.173 93.56-159.661 67.658-166.511 41.684-166.511-.891-166.511-43.662-148.108-72.909-110.368-136.917-27.775-95.083 92.94 5.655 118.894 17.753 122.01 29.948 123.513 41.985 123.513" fill="#161f13"/>
<path transform="matrix(1,0,0,-1,422.3557,103.58237)" d="M0 0V-222.129C0-261.603-59.965-261.603-59.965-222.129V0C-59.965 39.476-.013 39.476 0 0" fill="#f05922"/>
<path transform="matrix(1,0,0,-1,392.368,35.69635)" d="M0 0C-17.151 0-33.44-6.007-45.864-16.914-60.304-29.591-68.257-47.694-68.257-67.886V-290.015C-68.257-310.208-60.303-328.311-45.859-340.989-33.435-351.894-17.146-357.9 .005-357.9 17.157-357.9 33.445-351.894 45.87-340.988 60.313-328.311 68.267-310.208 68.267-290.015V-67.886C68.26-47.684 60.304-29.585 45.863-16.911 33.437-6.006 17.15 0 0 0M0-38.279C14.99-38.279 29.981-48.148 29.988-67.886V-290.015C29.988-309.752 14.996-319.62 .005-319.62-14.986-319.62-29.977-309.752-29.977-290.015V-67.886C-29.977-48.148-14.989-38.279 0-38.279" fill="#161f13"/>
<path transform="matrix(1,0,0,-1,963.7084,294.50239)" d="M0 0C0 7.555-4.761 15.316-11.488 18.524H-107.006C-117.252 18.524-125.531 10.245-125.531 0-125.531-1.967-125.22-3.83-124.599-5.589-122.322-13.144-115.285-18.525-107.006-18.525H-18.628C-8.383-18.525 0-10.246 0 0M46.57 0C46.57-9.418 44.5-18.421 40.877-26.493 30.736-49.261 7.865-65.094-18.628-65.094H-107.006C-133.5-65.094-156.267-49.261-166.409-26.597-170.134-18.525-172.1-9.521-172.1 0-172.1 5.692-171.376 11.176-169.927 16.454V134.741C-163.511 169.306-137.328 197.765-102.557 209.976-90.759 214.22-77.823 216.496-64.37 216.496-50.917 216.496-37.98 214.22-26.079 209.976-5.382 202.732 12.418 189.589 24.63 172.721 32.392 162.268 37.98 150.264 40.774 137.328 43.465 124.806 35.496 112.387 22.871 109.696 10.348 107.006-2.07 114.975-4.761 127.497-8.176 143.123-19.56 156.059-34.979 163.406-43.672 167.546-53.814 169.926-64.37 169.926-75.028 169.926-85.067 167.546-93.76 163.406-108.559 156.266-119.529 144.055-123.357 129.67V62.92C-118.183 64.369-112.699 65.093-107.006 65.093H-18.628C7.141 65.093 29.494 50.088 40.05 28.252 44.189 19.766 46.57 10.141 46.57 0" fill="#f05922"/>
<path transform="matrix(1,0,0,-1,886.4996,165.61249)" d="M0 0C3.827 1.804 8.263 2.757 12.839 2.757 17.385 2.757 21.978 1.763 25.769-.043 30.71-2.398 34.263-6.033 35.044-9.533 36.257-15.137 38.253-20.515 40.935-25.517H-7.869V-6.399C-6.445-4.293-3.906-1.901 0 0M12.839 125.885C-4.857 125.885-22.021 122.947-38.181 117.151-86.239 100.216-121.552 60.259-130.354 12.837-130.782 10.533-130.997 8.194-130.997 5.851V-107.927C-132.441-114.748-133.171-121.775-133.171-128.89-133.171-143.859-130.102-158.136-124.047-171.331-107.38-208.353-70.411-232.263-29.797-232.263H58.581C99.37-232.263 136.444-208.213 153.039-170.991 159.023-157.631 162.058-143.467 162.058-128.89 162.058-113.388 158.471-97.832 151.685-83.901 145.376-70.878 136.438-59.376 125.476-50.075 134.056-45.251 141.393-38.386 146.895-29.888 155.84-16.07 158.864 .397 155.408 16.48 151.496 34.591 143.86 51.398 132.704 66.473 115.997 89.462 91.577 107.458 63.899 117.173 47.654 122.954 30.477 125.885 12.839 125.885M-29.797-147.415H58.581C68.826-147.415 77.209-139.136 77.209-128.89 77.209-121.336 72.448-113.574 65.721-110.366H-29.797C-40.043-110.366-48.322-118.645-48.322-128.89-48.322-130.856-48.012-132.719-47.391-134.479-45.114-142.034-38.077-147.415-29.797-147.415M12.839 87.606C26.292 87.606 39.229 85.33 51.129 81.086 71.827 73.842 89.627 60.699 101.839 43.831 109.601 33.378 115.189 21.374 117.982 8.438 120.673-4.084 112.705-16.502 100.08-19.193 98.438-19.546 96.797-19.716 95.181-19.716 84.467-19.716 74.786-12.273 72.448-1.393 69.033 14.233 57.649 27.169 42.229 34.516 33.536 38.656 23.395 41.036 12.839 41.036 2.18 41.036-7.858 38.656-16.551 34.516-31.35 27.376-42.32 15.165-46.149 .78V-65.97C-40.975-64.521-35.49-63.796-29.797-63.796H58.581C84.35-63.796 106.703-78.802 117.259-100.638 121.398-109.124 123.779-118.749 123.779-128.89 123.779-138.308 121.708-147.311 118.086-155.383 107.945-178.15 85.074-193.984 58.581-193.984H-29.797C-56.291-193.984-79.058-178.15-89.2-155.487-92.925-147.415-94.892-138.411-94.892-128.89-94.892-123.198-94.167-117.714-92.718-112.436V5.851C-86.302 40.416-60.119 68.875-25.348 81.086-13.55 85.33-.614 87.606 12.839 87.606" fill="#161f13"/>
<path transform="matrix(1,0,0,-1,0,590.16)" d="M172.162 332.451H241.843V350.141H172.162Z" fill="#161f13"/>
<path transform="matrix(1,0,0,-1,0,590.16)" d="M866.103 387.964H935.78408V435.651H866.103Z" fill="#161f13"/>
<path transform="matrix(1,0,0,-1,0,590.16)" d="M564.506 387.964H634.187V435.651H564.506Z" fill="#161f13"/>
<path transform="matrix(1,0,0,-1,110.3681,563.12)" d="M0 0H-.287C-42.525 .132-85.283 30.851-85.283 89.308-85.283 101.41-79.511 111.682-69.448 117.491-59.086 123.473-45.696 123.469-35.337 117.486-25.28 111.676-19.513 101.406-19.515 89.308-19.515 71.691-8.999 65.44 .005 65.44 5.023 65.44 9.657 67.306 13.053 70.694 17.229 74.86 19.437 81.297 19.437 89.308V152.413C19.437 171.045 33.574 185.096 52.321 185.096 71.068 185.096 85.205 171.045 85.205 152.413L85.19 88.573C85.072 69.739 80.298 42.968 58.218 22.392 42.717 7.946 22.051 0 0 0" fill="#161f13"/>
<path transform="matrix(1,0,0,-1,57.9731,449.4607)" d="M0 0C-4.486 0-8.972-1.128-12.887-3.391-20.41-7.734-24.554-15.175-24.554-24.35-24.554-77.353 14.027-105.204 52.136-105.322L52.396-113.658V-105.322C72.326-105.322 90.985-98.166 104.931-85.169 124.844-66.615 129.143-42.228 129.249-25.038L129.265 38.756C129.265 52.86 118.942 63.098 104.72 63.098 90.489 63.098 80.166 52.86 80.166 38.752V-24.35C80.166-34.628 77.113-43.107 71.333-48.867 56.866-63.318 24.554-58.23 24.546-24.35 24.546-15.175 20.402-7.734 12.887-3.395 8.972-1.132 4.486 0 0 0M52.396-121.995H52.111C5.715-121.853-41.227-88.266-41.227-24.35-41.227-9.191-33.932 3.712-21.224 11.052-8.328 18.493 8.328 18.501 21.224 11.043 33.932 3.712 41.219-9.191 41.219-24.35 41.219-38.369 49.034-39.883 52.396-39.883 55.189-39.883 57.737-38.882 59.561-37.063 62.092-34.535 63.493-30.02 63.493-24.35V38.752C63.493 62.137 81.216 79.771 104.72 79.771 128.215 79.771 145.938 62.137 145.938 38.752L145.922-25.091C145.8-45.611 140.557-74.76 116.296-97.364 99.257-113.247 76.559-121.995 52.396-121.995" fill="#141d10"/>
<path transform="matrix(1,0,0,-1,296.4814,562.89718)" d="M0 0C-12.547-.001-23.954 7.242-29.343 19.644H-64.423C-69.018 9.016-77.944 2.014-89.061 .387-100.872-1.341-113.29 3.594-120.694 12.963-127.883 22.059-129.447 33.709-124.986 44.925L-77.374 164.32C-72.324 176.889-60.358 184.983-46.874 184.983H-46.866C-33.381 184.981-21.42 176.882-16.392 164.353L31.227 44.939C38.101 27.663 30.176 9.428 12.796 2.511 8.525 .811 4.198 0 0 0" fill="#161f13"/>
<path transform="matrix(1,0,0,-1,226.5761,534.9183)" d="M0 0H46.022L48.204-5.015C52.128-14.035 60.44-19.641 69.9-19.641H69.908C73.156-19.641 76.421-18.997 79.612-17.723 92.793-12.476 98.589 .814 93.387 13.877L45.77 133.283C42.025 142.621 33.102 148.665 23.039 148.669 12.977 148.669 4.038 142.608 .269 133.234L-47.341 13.856C-50.719 5.369-49.62-3.053-44.255-9.847-38.654-16.921-29.324-20.654-20.361-19.343-12.098-18.134-5.642-13.05-2.174-5.031ZM69.9-36.314C55.555-36.314 42.814-28.917 35.487-16.673H10.575C4.339-27.183-5.805-34.067-17.951-35.841-32.662-37.999-48.106-31.852-57.33-20.186-66.415-8.687-68.418 5.972-62.825 20.027L-15.208 139.429C-8.882 155.178 6.122 165.343 23.031 165.343 39.949 165.338 54.953 155.182 61.246 139.474L108.871 20.052C117.509-1.64 107.577-24.537 85.783-33.216 80.614-35.271 75.273-36.314 69.908-36.314Z" fill="#141d10"/>
<path transform="matrix(1,0,0,-1,396.4559,441.3711)" d="M0 0C-8.973 0-17.161-4.003-22.742-11.205-28.824-19.053-30.45-28.996-27.204-38.484-23.983-47.896-16.652-54.708-7.091-57.17 5.772-60.481 19.219-54.698 25.6-43.106 29.161-36.631 34.326-31.86 40.287-29.025 34.324-26.19 29.157-21.417 25.595-14.937 20.904-6.415 12.226-.862 2.386-.093 1.585-.031 .789 0 0 0M53.956-58.257ZM.169-123.705C-29.066-123.706-56.625-110.327-74.681-87.028-94.254-61.771-99.766-28.65-89.426 1.572-79.061 31.865-54.373 54.716-23.387 62.699 18.469 73.484 62.289 54.577 83.175 16.729L83.193 16.696C92.149 .382 86.527-18.718 70.116-27.734 69.26-28.204 68.398-28.634 67.529-29.026 68.402-29.419 69.269-29.853 70.128-30.325 86.539-39.349 92.153-58.451 83.188-74.757 67.786-102.734 39.556-120.919 7.669-123.412 5.16-123.609 2.658-123.705 .169-123.705" fill="#161f13"/>
<path transform="matrix(1,0,0,-1,396.4574,449.70899)" d="M0 0C-6.431 0-12.171-2.833-16.16-7.974-20.483-13.559-21.639-20.658-19.319-27.452-16.991-34.254-11.91-38.984-5.015-40.759 4.185-43.12 13.742-39.012 18.293-30.749 20.377-26.963 22.942-23.585 25.913-20.691 22.942-17.788 20.369-14.406 18.285-10.612 14.955-4.559 8.768-.615 1.742-.069 1.14-.02 .562 0 0 0M.269 65.707C-6.887 65.707-14.125 64.812-21.305 62.964-49.563 55.685-72.082 34.84-81.542 7.213-90.969-20.349-85.946-50.556-68.093-73.584-50.231-96.635-22.339-109.104 7.018-106.763 36.098-104.487 61.84-87.904 75.884-62.398 82.665-50.06 78.554-36.134 66.114-29.292 65.447-28.93 64.771-28.588 64.087-28.278L53.658-23.552 43.864-28.213C39.305-30.383 35.512-34.042 32.898-38.788 24.692-53.715 7.351-61.173-9.167-56.903-21.493-53.732-30.944-44.964-35.096-32.85-39.265-20.646-37.164-7.86-29.333 2.239-21.598 12.224-9.59 17.634 3.061 16.551 15.68 15.57 26.849 8.418 32.898-2.577 35.512-7.331 39.297-10.986 43.864-13.156L53.658-17.817 64.095-13.091C64.763-12.786 65.439-12.452 66.106-12.086 78.448-5.304 82.6 8.463 76.038 20.74L75.867 21.041C60.407 49.067 31.148 65.707 .269 65.707M.171-123.705C-31.938-123.705-61.62-109.161-81.265-83.797-102.57-56.32-108.57-20.28-97.319 12.611-86.036 45.566-59.17 70.425-25.465 79.107 19.848 90.798 67.344 70.453 90.179 29.613L90.505 29.044C100.022 11.699 96.432-8.153 82.6-20.687 96.44-33.232 100.03-53.088 90.489-70.437 73.734-100.877 43.01-120.672 8.32-123.387 5.593-123.599 2.866-123.705 .171-123.705" fill="#141d10"/>
<path transform="matrix(1,0,0,-1,596.5079,409.91926)" d="M0 0ZM-95.698-.401ZM-.054-153.237C-7.629-153.238-15.028-150.421-21.297-144.985L-21.412-144.885-62.132-108.923V-120.168C-62.132-138.799-76.269-152.85-95.016-152.85-113.763-152.85-127.9-138.799-127.9-120.168V-.788C-127.9 17.844-113.763 31.895-95.016 31.895-76.269 31.895-62.132 17.844-62.132-.788V-11.72L-21.293 24.033C-7.243 36.209 12.6 34.726 24.858 20.581 37.118 6.438 35.76-13.421 21.698-25.612L-18.43-60.481 21.712-95.363C30.834-103.271 34.812-114.349 32.614-125.742 30.35-137.467 21.594-147.565 10.305-151.468 6.877-152.654 3.393-153.237-.054-153.237" fill="#161f13"/>
<path transform="matrix(1,0,0,-1,526.0399,500.35908)" d="M0 0 54.578-48.196C61.474-54.171 69.957-55.954 78.057-53.149 86.573-50.202 93.192-42.574 94.901-33.721 96.538-25.209 93.639-17.219 86.719-11.218L39.33 29.959 86.695 71.121C97.344 80.353 98.321 94.836 89.023 105.558 79.718 116.292 65.259 117.391 54.635 108.171L0 60.342V89.65C0 103.759-10.323 113.996-24.546 113.996-38.776 113.996-49.099 103.759-49.099 89.65V-29.727C-49.099-43.836-38.776-54.073-24.546-54.073-10.323-54.073 0-43.836 0-29.727ZM70.413-71.133C60.708-71.133 51.476-67.576 43.71-60.843L16.16-36.513C13.091-56.443-3.379-70.747-24.546-70.747-48.049-70.747-65.772-53.113-65.772-29.727V89.65C-65.772 113.036-48.049 130.669-24.546 130.669-3.452 130.669 12.993 116.455 16.128 96.623L43.677 120.745C61.36 136.055 86.264 134.223 101.626 116.479 116.996 98.748 115.279 73.836 97.629 58.531L64.747 29.959 97.653 1.372C109.083-8.544 114.049-22.486 111.265-36.879 108.448-51.476 97.555-64.046 83.504-68.907 79.221-70.384 74.817-71.133 70.413-71.133" fill="#141d10"/>
<path transform="matrix(1,0,0,-1,678.5239,442.886)" d="M0 0V-13.042C5.965-12.06 11.795-12.197 16.49-12.307 17.635-12.334 18.717-12.361 19.706-12.361 23.087-12.361 25.738-11.572 27.171-10.14 28.474-8.838 28.668-7.171 28.668-6.294 28.668-3.943 27.503 0 19.699 0ZM-32.884-119.178C-41.178-119.178-49.041-116.286-55.025-111.034-61.953-104.953-65.768-96.24-65.768-86.497V32.884C-65.768 51.016-51.016 65.768-32.884 65.768L20.616 65.752C69 65.008 94.242 28.867 94.169-6.45 94.097-41.655 68.561-77.581 19.894-78.128 19.011-78.138 18.067-78.163 17.082-78.189 12.218-78.313 6.166-78.471 0-77.443V-86.497C0-105.128-14.137-119.178-32.884-119.178" fill="#161f13"/>
<path transform="matrix(1,0,0,-1,670.187,465.74708)" d="M0 0V31.197H28.038C39.989 31.197 45.338 23.849 45.338 16.567 45.338 12.822 43.938 9.362 41.406 6.826 37.767 3.195 32.337 2.015 24.619 2.223 20.304 2.312 14.898 2.438 9.688 1.592ZM-24.546 80.292C-38.076 80.292-49.091 69.281-49.091 55.746V-63.635C-49.091-70.946-46.282-77.434-41.186-81.908-36.725-85.824-30.814-87.981-24.546-87.981-10.323-87.981 0-77.744 0-63.635V-44.744L9.704-46.36C15.094-47.255 20.695-47.109 25.197-46.995L28.12-46.93C71.406-46.445 94.103-14.691 94.169 16.429 94.234 47.658 71.805 79.616 28.82 80.276ZM-24.546-104.654C-34.86-104.654-44.679-101.028-52.185-94.437-60.945-86.752-65.764-75.814-65.764-63.635V55.746C-65.764 78.472-47.276 96.965-24.546 96.965L28.95 96.949C82.861 96.118 110.923 55.799 110.842 16.396 110.76-22.901 82.388-62.996 28.323-63.603L25.881-63.656C23.178-63.725 20.052-63.798 16.673-63.704 16.641-87.053-1.066-104.654-24.546-104.654" fill="#141d10"/>
<path transform="matrix(1,0,0,-1,840.7009,442.66816)" d="M0 0C-3.737 0-7.52-.726-11.019-2.204-17.958-5.133-25.371-13.373-25.372-27.719-25.373-42.07-17.958-50.315-11.019-53.247-2.665-56.774 7.308-56.019 14.392-51.32 21.41-46.665 25.12-38.505 25.12-27.725 25.12-16.942 21.411-8.783 14.393-4.129 10.278-1.399 5.183 0 0 0M-.04-120.967C-23.672-120.967-45.801-112.612-62.351-97.441-75.402-85.476-90.96-63.669-90.96-27.725-90.96 7.58-74.988 37.05-47.138 53.128-18.524 69.649 18.455 69.646 47.068 53.126 74.912 37.048 90.882 7.575 90.881-27.725V-27.726C90.881-47.565 85.917-75.764 62.271-97.441 45.721-112.612 23.592-120.967-.04-120.967" fill="#161f13"/>
<path transform="matrix(1,0,0,-1,840.7032,451.00337)" d="M0 0C-2.687 0-5.381-.537-7.783-1.551-12.261-3.44-17.039-9.114-17.039-19.384-17.039-29.658-12.252-35.341-7.775-37.234-2.035-39.664 5.031-39.187 9.778-36.037 14.426-32.959 16.779-27.358 16.779-19.388 16.779-11.418 14.426-5.821 9.786-2.744 7.115-.973 3.647 0 0 0M-.049-55.425C-4.885-55.425-9.769-54.493-14.271-52.592-23.666-48.619-33.712-37.807-33.712-19.384-33.712-.961-23.666 9.843-14.263 13.811-3.582 18.322 9.81 17.235 19.001 11.153 28.323 4.974 33.452-5.874 33.452-19.388 33.452-32.906 28.315-43.755 18.993-49.934 13.522-53.565 6.773-55.425-.049-55.425M-.041 65.536C-14.988 65.536-29.927 61.771-42.969 54.244-68.174 39.696-82.624 12.859-82.624-19.388-82.624-52.303-68.54-72.126-56.719-82.958-41.707-96.717-21.582-104.296-.041-104.296 21.501-104.296 41.626-96.717 56.638-82.958 78.049-63.33 82.543-37.555 82.543-19.392 82.543 12.851 68.093 39.692 42.896 54.24 29.854 61.771 14.906 65.536-.041 65.536M-.041-120.969C-25.759-120.969-49.889-111.835-67.987-95.251-82.274-82.156-99.298-58.364-99.298-19.388-99.298 18.977-81.802 51.078-51.305 68.683-20.174 86.675 20.084 86.667 51.232 68.683 81.729 51.069 99.216 18.973 99.216-19.388 99.216-40.901 93.786-71.524 67.905-95.251 49.807-111.835 25.677-120.969-.041-120.969" fill="#141d10"/>
<path transform="matrix(1,0,0,-1,979.6149,562.7695)" d="M0 0C-8.294 0-16.158 2.893-22.141 8.145-29.069 14.225-32.884 22.94-32.884 32.683V119.178H-47.615C-66.246 119.178-80.296 133.315-80.296 152.062-80.296 170.81-66.246 184.946-47.615 184.946H47.607C66.239 184.946 80.289 170.81 80.289 152.062 80.289 133.315 66.239 119.178 47.607 119.178H32.884V32.683C32.884 14.051 18.747 0 0 0" fill="#161f13"/>
<path transform="matrix(1,0,0,-1,931.998,386.15928)" d="M0 0C-14.109 0-24.342-10.323-24.342-24.55-24.342-38.772-14.109-49.095 0-49.095H23.072V-143.927C23.072-151.238 25.881-157.726 30.977-162.2 35.438-166.116 41.349-168.273 47.617-168.273 61.84-168.273 72.163-158.036 72.163-143.927V-49.095H95.227C109.336-49.095 119.569-38.772 119.569-24.55 119.569-10.323 109.336 0 95.227 0ZM47.617-184.946C37.303-184.946 27.484-181.32 19.978-174.729 11.218-167.044 6.399-156.106 6.399-143.927V-65.768H0C-23.381-65.768-41.015-48.049-41.015-24.55-41.015-1.05-23.381 16.673 0 16.673H95.227C118.608 16.673 136.242-1.05 136.242-24.55 136.242-48.049 118.608-65.768 95.227-65.768H88.836V-143.927C88.836-167.313 71.113-184.946 47.617-184.946" fill="#141d10"/>
<path transform="matrix(1,0,0,-1,899.2382,512.5633)" d="M0 0-141.83 18.13-206.513 9.662-541.993 4.346V92.131H0Z" fill="#161f13"/>
<path transform="matrix(1,0,0,-1,74.0823,473.81169)" d="M0 0C0-54.095 72.493-54.273 72.493 0V63.105C72.493 84.321 104.72 84.321 104.72 63.105L104.705-.63C104.105-96.793-32.227-96.43-32.227 0-32.227 21.216 .007 21.216 0 0" fill="#f05922"/>
<path transform="matrix(1,0,0,-1,233.5654,494.24818)" d="M0 0H32.079L16.04 40.221ZM48.719-41.756 44.922-32.235H-12.859L-16.655-41.756C-24.464-61.414-54.288-49.535-46.487-29.921L1.119 89.459C6.533 102.933 25.553 102.933 30.959 89.459L78.566-29.921C86.367-49.527 56.542-61.407 48.719-41.756" fill="#f05922"/>
<path transform="matrix(1,0,0,-1,464.9484,432.74476)" d="M0 0C10.189-18.561-17.997-34.044-28.201-15.484-43.869 12.977-84.172 16.662-104.49-9.559-124.534-35.423-111.661-73.821-79.767-82.036-59.627-87.22-38.249-78.07-28.201-59.821-17.99-41.252 10.196-56.758 0-75.304-27.059-124.453-95.703-129.532-129.918-85.381-164.318-40.992-141.834 23.885-87.695 37.833-53.176 46.724-17.211 31.189 0 0" fill="#f05922"/>
<path transform="matrix(1,0,0,-1,517.6052,530.08657)" d="M0 0C0-21.216-32.227-21.216-32.227 0V119.38C-32.227 140.596 0 140.596 0 119.38V71.476L68.593 131.527C84.55 145.356 105.618 121.1 89.615 107.226L34.905 59.686 89.615 12.146C105.618-1.728 84.55-25.984 68.593-12.147L0 48.429Z" fill="#f05922"/>
<path transform="matrix(1,0,0,-1,698.2223,426.1153)" d="M0 0H-36.469V-103.267C-36.469-124.482-68.696-124.482-68.696-103.267V16.114C-68.696 25.011-61.481 32.227-52.583 32.227L.66 32.213C76.505 31.048 77.142-77.262 .007-78.129-11.175-78.255-31.078-80.509-31.078-62.015-31.078-43.254-10.701-45.901 .007-45.901 34.541-45.901 34.096 0 0 0" fill="#f05922"/>
<path transform="matrix(1,0,0,-1,882.5919,470.39299)" d="M0 0C0 38.316-34.252 51.604-59.434 40.97-92.233 27.126-92.233-27.118-59.434-40.97-34.252-51.604 0-38.308 0 0M32.22 0C32.22-101.962-116.081-101.962-116.081 0-116.081 101.962 32.227 101.962 32.22 0" fill="#f05922"/>
<path transform="matrix(1,0,0,-1,932.0005,426.82026)" d="M0 0C-21.215 0-21.215 32.227 0 32.227H95.221C116.437 32.227 116.437 0 95.221 0H63.728V-103.266C63.728-124.482 31.501-124.482 31.501-103.266V0Z" fill="#f05922"/>
</g>
</svg>
