<?xml version="1.0" encoding="UTF-8"?>
<svg id="Layer_1" data-name="Layer 1" xmlns="http://www.w3.org/2000/svg" viewBox="0 0 279.49 128.69">
  <defs>
    <style>
      .cls-1 {
        fill: #ff615b;
      }
    </style>
  </defs>
  <g>
    <g>
      <path class="cls-1" d="M100.74,36.81c0,11.44-4.24,18.82-11.44,23.62,11.99,5.72,18.82,15.5,18.82,29.33,0,23.62-19.93,38.93-50.55,38.93H0V3.23h53.87c28.41,0,46.86,13.84,46.86,33.58h0ZM55.72,50.83c11.25,0,16.6-4.8,16.6-12.18s-7.2-12.18-18.45-12.18h-25.46c0,15.87,12.55,24.35,27.31,24.35ZM79.7,89.76c0-9.96-8.12-15.68-22.14-15.68-10.7,0-20.66-2.4-29.15-7.38v38.74h29.15c14.02,0,22.14-5.72,22.14-15.68Z"/>
      <path class="cls-1" d="M152.84,38.65v90.03h-28.41V38.65h28.41Z"/>
    </g>
    <path class="cls-1" d="M279.49,87.62c0,24.64-21.12,41.07-52.61,41.07s-53.19-16.43-53.19-41.07c0-36.18,31.09-69.23,48.11-84.87h34.61c-.39.2-24.44,19.95-39.7,45.56,3.32-.39,6.65-.59,10.17-.59,30.9,0,52.61,16.43,52.61,39.89ZM253.09,87.81c0-9.19-9.78-16.43-26.2-16.43s-26.79,7.24-26.79,16.43c0,9.97,9.78,17.21,26.79,17.21s26.2-7.24,26.2-17.21Z"/>
  </g>
  <circle class="cls-1" cx="138.64" cy="15.58" r="15.58"/>
</svg>