<?xml version="1.0" encoding="UTF-8"?>
<svg id="Layer_1" data-name="Layer 1" xmlns="http://www.w3.org/2000/svg" viewBox="0 0 491.78 131.36">
  <defs>
    <style>
      .cls-1 {
        fill: #3ec6aa;
      }
    </style>
  </defs>
  <path class="cls-1" d="M28.41,2.95v32.29C44.83,15.31,68.45,2.95,94.83,2.95v23.25c-14.02,0-26.57,4.98-36.71,12.18l23.62,42.8c6.46,11.62,14.02,23.25,20.11,23.25,1.66,0,2.58-.74,3.69-1.85h3.32v25.83c-31.18,0-39.11-9.23-58.85-45.39l-12.55-23.06c-5.17,7.93-8.3,16.05-9.04,22.88v45.57H0V2.95h28.41Z"/>
  <path class="cls-1" d="M216.17,2.95v23.25h-65.31c0,16.61,18.82,25.28,57.75,25.28v23.25c-22.32,0-42.8-3.14-57.75-13.28v43.73h65.31v23.25h-93.72V2.95h93.72Z"/>
  <path class="cls-1" d="M311.95,61.62V2.95h28.41v125.46h-28.41c0-32.84-25.09-65.87-49.45-92.25v92.25h-28.41V2.95h28.41c9.04,9.96,31.92,31.18,49.45,58.67Z"/>
  <path class="cls-1" d="M356.72,65.68c0-38.01,28.41-65.68,67.53-65.68s67.53,27.67,67.53,65.68-28.41,65.68-67.53,65.68-67.53-27.67-67.53-65.68ZM424.25,108.12c22.51,0,38.75-17.9,38.75-42.43s-16.24-42.43-38.75-42.43-38.74,17.9-38.74,42.43,16.24,42.43,38.74,42.43Z"/>
</svg>