<svg width="21" height="15" viewBox="0 0 21 15" fill="none" xmlns="http://www.w3.org/2000/svg">
<path d="M16.6797 0.25L16.6094 0.556641L15.9053 3.59961H17.541L17.6152 3.7002L20.2402 7.20019L20.3076 7.28906L20.2861 7.39844L19.4609 11.5986L19.4209 11.7998H18.5547C18.5015 12.4106 18.2503 12.944 17.8047 13.3896C17.2994 13.8948 16.6817 14.1503 15.9658 14.1504C15.2497 14.1504 14.6313 13.895 14.126 13.3896C13.6804 12.944 13.4301 12.4106 13.377 11.7998H8.85449C8.80132 12.4106 8.55011 12.944 8.10449 13.3896C7.5992 13.8948 6.98154 14.1504 6.26562 14.1504C5.54971 14.1504 4.93205 13.8948 4.42676 13.3896C3.98114 12.944 3.72993 12.4106 3.67676 11.7998H1.45605L1.52148 11.498L1.6709 10.7979L1.71387 10.5996H3.83887C4.01472 10.1447 4.30318 9.7642 4.70215 9.46289C5.1558 9.12034 5.68039 8.95019 6.26562 8.95019C6.85086 8.95019 7.37545 9.12034 7.8291 9.46289C8.22807 9.7642 8.51653 10.1447 8.69238 10.5996H13.0674L13.7646 7.57422L14.0967 6.09473V6.09375L14.9473 2.39355V2.3916L15.1729 1.4502H4.24512L4.29395 1.15918C4.33727 0.899258 4.46428 0.67952 4.66699 0.508789C4.87263 0.335616 5.11802 0.25 5.39062 0.25H16.6797ZM6.26562 10.1504C5.88355 10.1504 5.55949 10.2853 5.28027 10.5645C5.00108 10.8436 4.86528 11.1678 4.86523 11.5498C4.86523 11.9319 5.00103 12.2569 5.28027 12.5361C5.55942 12.8151 5.88368 12.9502 6.26562 12.9502C6.64757 12.9502 6.97183 12.8151 7.25098 12.5361C7.53022 12.2569 7.66602 11.9319 7.66602 11.5498C7.66597 11.1678 7.53017 10.8436 7.25098 10.5645C6.97176 10.2853 6.6477 10.1504 6.26562 10.1504ZM15.9658 10.1504C15.5837 10.1504 15.2587 10.2852 14.9795 10.5645C14.7005 10.8436 14.5655 11.1679 14.5654 11.5498C14.5654 11.9319 14.7003 12.2569 14.9795 12.5361C15.2587 12.8154 15.5837 12.9502 15.9658 12.9502C16.3477 12.9501 16.672 12.8151 16.9512 12.5361C17.2304 12.2569 17.3652 11.9319 17.3652 11.5498C17.3652 11.1678 17.2304 10.8436 16.9512 10.5645C16.672 10.2853 16.3479 10.1504 15.9658 10.1504ZM5.31055 7.15039L5.2334 7.46094L5.05859 8.16016L5.01074 8.34961H0.320313L0.398438 8.03906L0.573242 7.33984L0.620117 7.15039H5.31055ZM14.8057 8.27539H18.8857L19.0234 7.58496L16.9395 4.7998H15.6143L14.8057 8.27539ZM8.31055 3.7002L8.2334 4.01074L8.05859 4.71094L8.01074 4.90039H2.32031L2.39844 4.58984L2.57324 3.88965L2.62012 3.7002H8.31055Z" fill="#0B1705" stroke="#0B1705" stroke-width="0.5"/>
</svg>
