<svg xmlns="http://www.w3.org/2000/svg" xmlns:xlink="http://www.w3.org/1999/xlink" width="163" height="22" viewBox="0 0 163 22">
  <defs>
    <clipPath id="clip-Intersektion_-_Logo">
      <rect width="163" height="22"/>
    </clipPath>
  </defs>
  <g id="Intersektion_-_Logo" data-name="Intersektion - Logo" clip-path="url(#clip-Intersektion_-_Logo)">
    <g id="Group_73" data-name="Group 73" transform="translate(-30 720.12)">
      <path id="Path_2" data-name="Path 2" d="M777.433,1130h3.561l-5.142,6.547-1.759-2.5Z" transform="translate(-644.533 -1850.12)" fill="#fff"/>
      <g id="Group_2" data-name="Group 2" transform="translate(30 -2678.58)">
        <path id="Path_1" data-name="Path 1" d="M719.9,1130h3.3v8.42l3.261-3.639,10.9,17.46h-4.046l-7.285-12.792-2.83,3.109v5.8h-3.3Z" transform="translate(-627.772 828.492)" fill="#eab02a"/>
        <path id="Path_5" data-name="Path 5" d="M1083.885,3418.872v-16.154H1078v-1.792h13.941v1.792h-5.8v16.154Z" transform="translate(-1057.697 -1442.396)" fill="#fff"/>
        <path id="Path_36" data-name="Path 36" d="M1083.885,3418.872v-16.154H1078v-1.792h13.941v1.792h-5.8v16.154Z" transform="translate(-970.542 -1442.396)" fill="#fff"/>
        <path id="Path_8" data-name="Path 8" d="M1422.07,3410.644h2.306v.111a2.065,2.065,0,0,0,1.039,1.992,5.826,5.826,0,0,0,2.762.561,3.8,3.8,0,0,0,2.528-.855,2.8,2.8,0,0,0,1.022-2.254,2.294,2.294,0,0,0-.878-1.855,10.537,10.537,0,0,0-2.667-1.422l-.924-.366a11.567,11.567,0,0,1-2.81-1.494,5,5,0,0,1-1.385-1.638,4.582,4.582,0,0,1,.963-5.309,6.282,6.282,0,0,1,4.441-1.344,5.909,5.909,0,0,1,3.9,1,3.029,3.029,0,0,1,1.129,2.331v.111h-2.306v-.111a1.288,1.288,0,0,0-.348-.833,1.983,1.983,0,0,0-1.042-.594,5.984,5.984,0,0,0-1.526-.183,3.39,3.39,0,0,0-2.512.828,2.613,2.613,0,0,0-.814,1.882,2.5,2.5,0,0,0,.388,1.339,3.139,3.139,0,0,0,1.066,1.038,20.311,20.311,0,0,0,2.286,1.1l1.083.456a8.254,8.254,0,0,1,3.477,2.307,4.392,4.392,0,0,1,.866,2.607,4.929,4.929,0,0,1-.708,2.513,4.612,4.612,0,0,1-1.963,1.841,7.546,7.546,0,0,1-3.344.626,10.271,10.271,0,0,1-3.316-.459,3.816,3.816,0,0,1-2.02-1.511,4.109,4.109,0,0,1-.691-2.3Z" transform="translate(-1357.73 -1438.112)" fill="#fff"/>
        <path id="Path_14" data-name="Path 14" d="M642.824,3138.051v-19.3h2.818v19.3Z" transform="translate(-642.824 -1160.217)" fill="#fff"/>
        <path id="Path_37" data-name="Path 37" d="M642.824,3138.051v-19.3h2.818v19.3Z" transform="translate(-519.043 -1160.217)" fill="#fff"/>
        <path id="Path_15" data-name="Path 15" d="M706.623,3138.12l-8.547-14.976h-.047v14.976h-2.522v-19.374h2.756l8.407,14.74h.047v-14.74h2.522v19.374Z" transform="translate(-690.814 -1160.286)" fill="#fff"/>
        <path id="Path_38" data-name="Path 38" d="M706.623,3138.12l-8.547-14.976h-.047v14.976h-2.522v-19.374h2.756l8.407,14.74h.047v-14.74h2.522v19.374Z" transform="translate(-546.118 -1160.286)" fill="#fff"/>
        <path id="Path_17" data-name="Path 17" d="M928.18,3137.133v-18.387h10.589v2.46h-7.723v5.417h7.723v2.46h-7.723v5.59h7.723v2.46Z" transform="translate(-891.553 -1160.217)" fill="#fff"/>
        <path id="Path_35" data-name="Path 35" d="M928.18,3137.133v-18.387h10.589v2.46h-7.723v5.417h7.723v2.46h-7.723v5.59h7.723v2.46Z" transform="translate(-848.774 -1160.217)" fill="#fff"/>
        <path id="Path_24" data-name="Path 24" d="M1633.7,3134.005a9.065,9.065,0,1,1,9.229-9.182A9.1,9.1,0,0,1,1633.7,3134.005Zm6.68-9.017a6.542,6.542,0,1,0-6.538,6.68A6.6,6.6,0,0,0,1640.384,3124.988Z" transform="translate(-1495.931 -1157.219)" fill="#fff"/>
        <g id="Group_1" data-name="Group 1" transform="translate(49.602 1958.529)">
          <g id="Rectangle_2" data-name="Rectangle 2" transform="translate(0 2.682)">
            <path id="Path_28" data-name="Path 28" d="M1390.5,2604.26a2.808,2.808,0,0,1-2.81,2.81h-7.28v-.064h7.28a2.746,2.746,0,1,0,0-5.491h-7.28v-.064h7.28A2.81,2.81,0,0,1,1390.5,2604.26Z" transform="translate(-1380.41 -2601.45)" fill="none"/>
          </g>
          <g id="Rectangle_3" data-name="Rectangle 3" transform="translate(0 0)">
            <rect id="Rectangle_2-2" data-name="Rectangle 2" width="0.064" height="0.064" transform="translate(0 10.409)" fill="none"/>
            <path id="Path_29" data-name="Path 29" d="M1390.5,2604.26a2.808,2.808,0,0,1-2.81,2.81h-7.28v-.064h7.28a2.746,2.746,0,1,0,0-5.491h-7.28v-.064h7.28A2.81,2.81,0,0,1,1390.5,2604.26Z" transform="translate(-1380.41 -2598.768)" fill="none"/>
            <path id="Path_30" data-name="Path 30" d="M1409.419,2661.95l-.65.064h-2.859v-.064Z" transform="translate(-1402.653 -2651.542)" fill="none"/>
            <path id="Path_31" data-name="Path 31" d="M1393.309,2585.686a5.245,5.245,0,0,1-3.552,4.96l-.021-.04-.1.009a5.172,5.172,0,0,0-1.567-10.1h-7.663v-.064h7.663A5.237,5.237,0,0,1,1393.309,2585.686Z" transform="translate(-1380.41 -2580.45)" fill="none"/>
            <path id="Path_32" data-name="Path 32" d="M1394.052,2599.273h-3.667l-3.859-7.915.65-.064h-3.51v7.79h-3.193v-7.79h-.064v-2.107h7.28a2.81,2.81,0,0,0,0-5.62h-7.28v-2.618h7.663a5.173,5.173,0,0,1,1.567,10.1l.1-.009.021.04Z" transform="translate(-1380.41 -2580.886)" fill="#fff"/>
            <path id="Path_33" data-name="Path 33" d="M1390.5,2604.26a2.808,2.808,0,0,1-2.81,2.81h-7.28v-.064h7.28a2.746,2.746,0,1,0,0-5.491h-7.28v-.064h7.28A2.81,2.81,0,0,1,1390.5,2604.26Z" transform="translate(-1380.41 -2598.768)" fill="none"/>
          </g>
          <g id="Rectangle_4" data-name="Rectangle 4" transform="translate(0 10.409)">
            <path id="Path_34" data-name="Path 34" d="M1383.73,2661.95v7.854h-3.321v-7.854h.064v7.79h3.193v-7.79Z" transform="translate(-1380.41 -2661.95)" fill="#fff"/>
          </g>
          <line id="Line_1" data-name="Line 1" y1="0.064" transform="translate(0 8.237)" fill="none"/>
          <line id="Line_2" data-name="Line 2" y1="0.064" transform="translate(0 0)" fill="none"/>
          <line id="Line_3" data-name="Line 3" y1="0.064" transform="translate(0 2.682)" fill="none"/>
        </g>
      </g>
    </g>
  </g>
</svg>
