<svg width="44" height="30" viewBox="0 0 44 30" fill="none" xmlns="http://www.w3.org/2000/svg">
<path d="M34.7116 14.4865C33.5957 14.7856 32.5911 14.8665 31.6979 14.7293C30.8116 14.5902 30.0697 14.2463 29.4723 13.6976C28.8731 13.142 28.448 12.3958 28.1969 11.459L26.0512 3.45103C25.9977 3.25127 26.0475 3.07917 26.2008 2.93474C26.3522 2.78342 26.6174 2.657 26.9962 2.55548L27.6162 2.38936C27.9951 2.28784 28.2845 2.26568 28.4844 2.32286C28.6893 2.37131 28.8185 2.49542 28.8721 2.69519L30.968 10.5171C31.0824 10.9442 31.2882 11.2988 31.5853 11.581C31.8892 11.8613 32.2565 12.0472 32.6871 12.1385C33.1158 12.223 33.5747 12.1997 34.0638 12.0687C34.5528 11.9376 34.9619 11.7283 35.2909 11.4408C35.625 11.1446 35.8536 10.7991 35.9767 10.4043C36.0998 10.0096 36.1041 9.59865 35.9897 9.17156L33.8938 1.34961C33.8403 1.14985 33.8867 0.97867 34.0331 0.836086C34.1845 0.684767 34.4496 0.558349 34.8285 0.456831L35.4381 0.293479C35.817 0.191961 36.1064 0.169794 36.3063 0.226978C36.5112 0.275427 36.6405 0.399536 36.694 0.599304L38.8397 8.60724C39.0908 9.54408 39.0957 10.4029 38.8545 11.1837C38.6115 11.9576 38.1375 12.6272 37.4326 13.1927C36.7346 13.7562 35.8276 14.1875 34.7116 14.4865Z" fill="#F7D956"/>
<path d="M15.0359 19.6258C14.2988 19.8233 13.8786 19.7292 13.7752 19.3434L10.6245 7.58465C10.5709 7.38489 10.6208 7.21279 10.7741 7.06836C10.9255 6.91704 11.1906 6.79062 11.5695 6.6891L12.5408 6.42885C13.1263 6.27196 13.5538 6.33829 13.8234 6.62783L18.383 11.2867L18.61 11.5139L18.6792 11.152L20.333 4.88357C20.4286 4.4962 20.7691 4.22406 21.3547 4.06717L22.3156 3.80969C23.0527 3.61219 23.4747 3.71321 23.5818 4.11274L26.7325 15.8715C26.8359 16.2572 26.5191 16.5489 25.782 16.7464L25.2447 16.8903C24.5076 17.0878 24.0874 16.9937 23.984 16.608L21.9435 8.99267L21.8656 8.99138L20.4761 14.4691C20.3805 14.7458 20.1673 14.9284 19.8366 15.017L19.3097 15.1582C19.1375 15.2044 18.9854 15.2156 18.8535 15.1918C18.7198 15.1612 18.5959 15.0984 18.4819 15.0035L14.5293 10.9571L14.4626 10.9972L16.5031 18.6125C16.6064 18.9982 16.293 19.2889 15.5628 19.4846L15.0359 19.6258Z" fill="#F7D956"/>
<path d="M4.55814 22.4332C3.82107 22.6307 3.40085 22.5366 3.29749 22.1508L0.193807 10.5677C0.125513 10.3129 0.135153 10.1146 0.222725 9.97304C0.308452 9.82456 0.478754 9.71617 0.73363 9.64788L4.5981 8.61239C5.7416 8.30599 6.82897 8.31365 7.86021 8.63536C8.89146 8.95708 9.61657 9.89978 10.0356 11.4635C10.3235 12.5381 10.2929 13.4433 9.94372 14.1792C9.59271 14.9082 9.12457 15.4619 8.53931 15.8402C7.96094 16.2167 7.42376 16.4714 6.92779 16.6043L4.98522 17.1248L6.12868 21.3922C6.23204 21.778 5.91519 22.0696 5.17811 22.2671L4.55814 22.4332ZM5.96717 14.2591C6.40803 14.141 6.75208 13.9233 6.99931 13.606C7.25342 13.2869 7.30111 12.8311 7.14238 12.2387C6.98179 11.6394 6.71076 11.2617 6.32929 11.1055C5.94781 10.9493 5.54009 10.9293 5.10611 11.0456L3.47352 11.483L4.33458 14.6966L5.96717 14.2591Z" fill="#F7D956"/>
<path d="M41.2413 23.6442C40.5292 23.835 39.9285 23.7682 39.439 23.4437C38.9522 23.1147 38.5996 22.5428 38.3813 21.728C38.1629 20.9132 38.1844 20.2353 38.4458 19.6945C38.7062 19.15 39.1871 18.7839 39.8886 18.5959C40.583 18.4099 41.1732 18.4871 41.6594 18.8277C42.1446 19.1647 42.4973 19.7442 42.7175 20.5661C42.9368 21.3844 42.9209 22.0551 42.6699 22.578C42.4225 23.0999 41.9463 23.4553 41.2413 23.6442ZM41.0325 22.9712C41.493 22.8478 41.7932 22.6078 41.9331 22.2514C42.0721 21.8914 42.0576 21.3979 41.8896 20.7708C41.7206 20.1402 41.4859 19.7038 41.1856 19.4615C40.8853 19.2193 40.5048 19.1598 40.0443 19.2832C39.5873 19.4057 39.2911 19.6464 39.1556 20.0055C39.0193 20.3609 39.0361 20.8558 39.206 21.4899C39.3749 22.1205 39.6056 22.5561 39.8979 22.7967C40.1937 23.0364 40.5719 23.0946 41.0325 22.9712Z" fill="#F5F5F5"/>
<path d="M34.9835 19.9102C35.3767 19.8048 35.752 19.8238 36.1094 19.9673C36.4668 20.1107 36.7219 20.4676 36.8748 21.038L37.7533 24.3168C37.7723 24.3876 37.7564 24.4488 37.7057 24.5004C37.654 24.5484 37.5626 24.59 37.4315 24.6251L37.3997 24.6337C37.265 24.6697 37.1633 24.6799 37.0946 24.6641C37.0249 24.6449 36.9805 24.5998 36.9615 24.5289L36.1043 21.3299C36.0274 21.0429 35.8892 20.8389 35.6897 20.7177C35.4937 20.5955 35.2469 20.5743 34.9493 20.654C34.7013 20.7205 34.4958 20.8534 34.3328 21.0528C34.1724 21.2476 34.0511 21.4396 33.9688 21.6287C33.9987 21.7118 34.0193 21.7747 34.0307 21.8172L34.905 25.08C34.942 25.2181 34.833 25.3214 34.5779 25.3897L34.5407 25.3997C34.2892 25.4671 34.1449 25.4317 34.1079 25.2936L33.2507 22.0945C33.1738 21.8076 33.0356 21.6035 32.8361 21.4823C32.6401 21.3601 32.3933 21.3389 32.0957 21.4187C31.8902 21.4737 31.7157 21.5736 31.5723 21.7184C31.4278 21.8596 31.3141 22.0021 31.2311 22.1458C31.1517 22.2886 31.1139 22.3671 31.1177 22.3813L32.046 25.846C32.065 25.9169 32.0492 25.9781 31.9984 26.0297C31.9503 26.0767 31.8607 26.1178 31.7296 26.1529L31.6871 26.1643C31.556 26.1995 31.4561 26.2091 31.3873 26.1934C31.3211 26.1732 31.2786 26.1276 31.2596 26.0568L30.3711 22.7408C30.261 22.3299 30.1622 22.0393 30.0748 21.869C29.9865 21.6953 29.94 21.5995 29.9352 21.5818C29.9143 21.5039 29.9581 21.4333 30.0664 21.3701C30.1774 21.3024 30.2842 21.2548 30.387 21.2272C30.4755 21.2035 30.5539 21.2338 30.622 21.318C30.6902 21.4023 30.7464 21.4916 30.7907 21.5861C30.8385 21.6796 30.8698 21.7396 30.8845 21.766C31.0039 21.5176 31.1714 21.2923 31.3869 21.0903C31.6023 20.8883 31.85 20.7498 32.1299 20.6748C32.4168 20.5979 32.7 20.5847 32.9793 20.6351C33.2576 20.6821 33.4942 20.8351 33.6889 21.0943C33.8221 20.8118 34.0003 20.5628 34.2235 20.3473C34.4468 20.1318 34.7001 19.9861 34.9835 19.9102Z" fill="#F5F5F5"/>
<path d="M28.2536 27.1242C27.4707 27.334 26.8333 27.2864 26.3415 26.9816C25.8523 26.6722 25.4948 26.0959 25.2689 25.2527C25.0448 24.4167 25.0609 23.7327 25.3171 23.2008C25.5723 22.6654 26.0613 22.3009 26.784 22.1072C27.4288 21.9344 27.9701 22.0134 28.408 22.3441C28.8495 22.6739 29.1785 23.2426 29.3949 24.0504C29.4044 24.0858 29.3982 24.1406 29.3763 24.2148C29.357 24.2845 29.3275 24.3513 29.2876 24.4151C29.2504 24.4745 29.214 24.5089 29.1786 24.5184L26.1974 25.3172C26.3778 25.8346 26.6159 26.1847 26.9117 26.3674C27.2101 26.5457 27.5931 26.5722 28.0607 26.4469C28.3229 26.3766 28.5393 26.2845 28.71 26.1704C28.8842 26.0553 29.0475 25.928 29.2 25.7885C29.2158 25.7766 29.239 25.7571 29.2697 25.7299C29.3004 25.7027 29.3228 25.6872 29.337 25.6834C29.376 25.673 29.4288 25.693 29.4955 25.7435C29.5647 25.7895 29.6275 25.8467 29.6838 25.9151C29.7427 25.9791 29.7769 26.0288 29.7864 26.0642C29.8073 26.1421 29.7526 26.2498 29.6224 26.3872C29.4921 26.5246 29.305 26.6621 29.0608 26.7997C28.8203 26.9363 28.5512 27.0445 28.2536 27.1242ZM28.4703 23.9792C28.2045 22.9872 27.6943 22.5923 26.9397 22.7945C26.1284 23.0119 25.8202 23.6261 26.0152 24.637L28.4703 23.9792Z" fill="#F5F5F5"/>
<path d="M20.0343 29.2695C19.9352 29.2961 19.8564 29.2926 19.798 29.2588C19.7396 29.2251 19.6976 29.1604 19.6719 29.0648L18.0515 23.0174C18.025 22.9182 18.029 22.8412 18.0637 22.7864C18.0974 22.728 18.1638 22.6855 18.263 22.6589L20.1708 22.1477C21.0564 21.9104 21.8352 21.9827 22.5071 22.3646C23.179 22.7466 23.6692 23.5132 23.9777 24.6646C24.2881 25.8231 24.2479 26.7356 23.857 27.4023C23.466 28.069 22.8278 28.5211 21.9421 28.7584L20.0343 29.2695ZM21.6861 28.0581C22.3238 27.8872 22.7819 27.5423 23.0606 27.0234C23.3382 26.5009 23.357 25.7916 23.1168 24.8953C22.9555 24.293 22.7314 23.8253 22.4447 23.492C22.157 23.1552 21.8305 22.9427 21.4651 22.8546C21.0988 22.7629 20.7102 22.7721 20.2992 22.8822L19.0026 23.2296L20.3895 28.4055L21.6861 28.0581Z" fill="#F5F5F5"/>
</svg>
