<svg width="21" height="19" viewBox="0 0 21 19" fill="none" xmlns="http://www.w3.org/2000/svg">
<path d="M11.6318 0.25C10.3897 0.250053 9.2038 0.503652 8.12207 0.961914C6.99764 1.43845 5.98904 2.13459 5.14844 2.99707C4.85992 3.29321 4.86234 3.76953 5.1543 4.0625C5.44819 4.35713 5.92333 4.35477 6.21387 4.05664C6.91951 3.33255 7.76243 2.74909 8.69824 2.35254C9.59957 1.97077 10.5905 1.75979 11.6318 1.75977C13.7356 1.75977 15.6407 2.62488 17.0205 4.02539C18.4009 5.42607 19.2549 7.36142 19.2549 9.5C19.2549 11.6386 18.4014 13.5742 17.0215 14.9746C15.6415 16.3752 13.7365 17.2401 11.6328 17.2402C10.591 17.2402 9.5997 17.0284 8.69824 16.6465L8.35059 16.4893C7.55126 16.1018 6.82939 15.5769 6.21387 14.9453C5.92457 14.6472 5.45009 14.6445 5.15625 14.9375C4.86414 15.2291 4.86085 15.7038 5.14746 16L5.14844 16.001C5.99093 16.8656 6.99991 17.5625 8.12207 18.0381C9.2039 18.4966 10.3896 18.75 11.6318 18.75C14.1509 18.75 16.4306 17.7131 18.0801 16.0391C19.7297 14.3653 20.75 12.0531 20.75 9.5C20.75 6.94714 19.7302 4.63484 18.0811 2.96094C16.4316 1.28692 14.1506 0.25 11.6318 0.25ZM4.25977 6.19434C3.96762 5.89791 3.49231 5.89787 3.2002 6.19434L0.467773 8.96777C0.177695 9.26217 0.177763 9.73778 0.467773 10.0322L3.19629 12.7998L3.19531 12.8008C3.33028 12.9407 3.52016 13.0293 3.73047 13.0293C4.14671 13.0291 4.47754 12.6868 4.47754 12.2734V10.2559H11.6318C12.0482 10.2559 12.3799 9.9135 12.3799 9.5C12.3797 9.08666 12.0481 8.74512 11.6318 8.74512H4.47754V6.72656L4.46387 6.58301C4.43667 6.44127 4.36894 6.30514 4.25977 6.19434Z" fill="#2B2B2B" stroke="#2B2B2B" stroke-width="0.5"/>
</svg>
