<svg width="138" height="30" viewBox="0 0 138 30" fill="none" xmlns="http://www.w3.org/2000/svg">
<g clip-path="url(#clip0_414_2190)">
<path d="M70.8221 8.07794C71.2451 8.51271 71.457 9.02019 71.457 9.59964C71.457 9.91223 71.4008 10.1798 71.29 10.4025L65.8117 22.4426C65.611 22.8887 65.3108 23.2402 64.9095 23.4958C64.5081 23.7522 64.0746 23.8692 63.6067 23.8474C63.1612 23.8916 62.7322 23.7807 62.3204 23.5131C61.9079 23.2455 61.6024 22.8894 61.4017 22.4426L57.9277 14.583L54.4537 22.4426C54.253 22.8887 53.9528 23.2402 53.5515 23.4958C53.1509 23.7522 52.7167 23.8692 52.2487 23.8474C51.8032 23.8692 51.3802 23.7522 50.9796 23.4958C50.5783 23.2395 50.2781 22.8887 50.0774 22.4426L44.5654 10.4025C44.4538 10.1131 44.3984 9.84551 44.3984 9.59964C44.3984 9.02019 44.6096 8.51271 45.0333 8.07794C45.4564 7.64317 45.9797 7.42578 46.6034 7.42578C47.0489 7.42578 47.4607 7.55396 47.8395 7.81033C48.2176 8.06669 48.4961 8.40702 48.6743 8.83054L52.2487 17.2584L55.8231 8.83054C56.0013 8.40702 56.279 8.06744 56.6579 7.81033C57.036 7.55396 57.4478 7.42578 57.894 7.42578C58.362 7.42578 58.7902 7.54872 59.1803 7.79384C59.5696 8.03971 59.8534 8.38453 60.0323 8.83054L63.6067 17.2584L67.1811 8.83054C67.3593 8.40702 67.637 8.06744 68.0159 7.81033C68.394 7.55396 68.8065 7.42578 69.252 7.42578C69.8749 7.42578 70.399 7.64317 70.8221 8.07794Z" fill="white"/>
<path d="M73.329 5.10129C72.8386 4.62229 72.5938 4.01436 72.5938 3.27824C72.5938 2.54213 72.8386 1.93495 73.329 1.4552C73.8186 0.976202 74.4086 0.736328 75.0997 0.736328C75.7908 0.736328 76.38 0.976202 76.8704 1.4552C77.3601 1.93495 77.6056 2.54213 77.6056 3.27824C77.6056 4.01436 77.3601 4.62154 76.8704 5.10129C76.38 5.58103 75.79 5.82016 75.0997 5.82016C74.4094 5.82016 73.8186 5.58103 73.329 5.10129ZM73.5461 22.9607C73.1119 22.5259 72.8947 22.0079 72.8947 21.4052V9.69937C72.8947 9.09744 73.1119 8.57871 73.5461 8.14394C73.9804 7.70917 74.4977 7.49178 75.0997 7.49178C75.7017 7.49178 76.219 7.70917 76.6533 8.14394C77.0875 8.57871 77.3047 9.09669 77.3047 9.69937V21.4052C77.3047 22.0072 77.0875 22.5259 76.6533 22.9607C76.219 23.3954 75.7009 23.6128 75.0997 23.6128C74.4985 23.6128 73.9804 23.3954 73.5461 22.9607Z" fill="white"/>
<path d="M93.2174 9.01332C94.297 10.1617 94.8376 11.7614 94.8376 13.813V21.4388C94.8376 22.0407 94.6257 22.5542 94.2027 22.977C93.7797 23.4005 93.2675 23.6127 92.6663 23.6127C92.0651 23.6127 91.5522 23.4013 91.13 22.977C90.7069 22.5535 90.4951 22.0407 90.4951 21.4388V14.5492C90.4951 13.5679 90.1888 12.7823 89.5764 12.1916C88.9639 11.601 88.2122 11.3056 87.3213 11.3056C86.4303 11.3056 85.6396 11.6287 85.016 12.2756C84.3923 12.9225 84.0808 13.7253 84.0808 14.6833V21.4395C84.0808 22.0415 83.8689 22.555 83.4459 22.9777C83.0229 23.4013 82.5108 23.6134 81.9096 23.6134C81.3083 23.6134 80.7955 23.402 80.3732 22.9777C79.9502 22.5542 79.7383 22.0415 79.7383 21.4395V9.66697C79.7383 9.06504 79.9494 8.55231 80.3732 8.12878C80.7962 7.70525 81.3083 7.49311 81.9096 7.49311C82.4658 7.49311 82.945 7.67152 83.3456 8.02833C83.7461 8.38515 83.9805 8.83116 84.0471 9.36638C85.2046 7.98411 86.7972 7.29297 88.8239 7.29297C90.6718 7.29297 92.1362 7.86717 93.2166 9.01556L93.2174 9.01332Z" fill="white"/>
<path d="M109.787 8.36111C110.889 9.07474 111.757 10.0612 112.392 11.3213C113.027 12.5814 113.344 13.9914 113.344 15.5521C113.344 17.1128 113.027 18.5235 112.392 19.7829C111.757 21.043 110.889 22.0294 109.787 22.7431C108.684 23.4567 107.476 23.8135 106.162 23.8135C105.271 23.8135 104.425 23.6463 103.623 23.312C102.821 22.9777 102.097 22.5092 101.452 21.9072C101.34 22.3982 101.084 22.8053 100.684 23.1276C100.283 23.4507 99.8265 23.6126 99.3143 23.6126C98.7131 23.6126 98.195 23.3952 97.7608 22.9604C97.3265 22.5257 97.1094 22.0077 97.1094 21.405V2.20759C97.1094 1.60566 97.3265 1.08693 97.7608 0.652158C98.195 0.217386 98.7131 0 99.3143 0C99.9156 0 100.434 0.217386 100.868 0.652158C101.302 1.08693 101.519 1.60566 101.519 2.20759V9.16394C102.142 8.56201 102.85 8.0995 103.64 7.77567C104.43 7.45259 105.272 7.29067 106.163 7.29067C107.477 7.29067 108.684 7.64749 109.787 8.36111H109.787ZM107.782 18.5955C108.506 17.7927 108.868 16.7784 108.868 15.5521C108.868 14.3257 108.506 13.3115 107.782 12.5087C107.058 11.7059 106.173 11.3048 105.127 11.3048C104.08 11.3048 103.194 11.7059 102.471 12.5087C101.747 13.3115 101.385 14.3265 101.385 15.5521C101.385 16.7777 101.747 17.7927 102.471 18.5955C103.194 19.3983 104.08 19.7994 105.127 19.7994C106.173 19.7994 107.058 19.3983 107.782 18.5955Z" fill="white"/>
<path d="M115.751 5.10129C115.26 4.62229 115.016 4.01436 115.016 3.27824C115.016 2.54213 115.26 1.93495 115.751 1.4552C116.241 0.976202 116.831 0.736328 117.522 0.736328C118.213 0.736328 118.802 0.976202 119.292 1.4552C119.782 1.93495 120.028 2.54213 120.028 3.27824C120.028 4.01436 119.782 4.62154 119.292 5.10129C118.802 5.58103 118.212 5.82016 117.522 5.82016C116.831 5.82016 116.241 5.58103 115.751 5.10129ZM115.968 22.9607C115.534 22.5259 115.317 22.0079 115.317 21.4052V9.69937C115.317 9.09744 115.534 8.57871 115.968 8.14394C116.402 7.70917 116.92 7.49178 117.522 7.49178C118.124 7.49178 118.641 7.70917 119.075 8.14394C119.509 8.57871 119.727 9.09669 119.727 9.69937V21.4052C119.727 22.0072 119.509 22.5259 119.075 22.9607C118.641 23.3954 118.123 23.6128 117.522 23.6128C116.92 23.6128 116.402 23.3954 115.968 22.9607Z" fill="white"/>
<path d="M137.346 8.14286C137.78 8.57764 137.998 9.09561 137.998 9.6983V21.6043C137.998 22.8531 137.881 23.8786 137.647 24.6814C137.414 25.4843 137.018 26.2421 136.461 26.9557C135.682 27.9812 134.713 28.7451 133.555 29.2465C132.396 29.748 131.127 29.9991 129.747 29.9991C127.364 29.9991 125.215 29.4414 123.3 28.3268C123.01 28.1709 122.776 27.9422 122.598 27.6409C122.42 27.3395 122.331 27.0105 122.331 26.6544C122.331 26.1192 122.519 25.6619 122.898 25.2834C123.276 24.9041 123.733 24.7144 124.268 24.7144C124.623 24.7144 124.947 24.8036 125.236 24.982C126.483 25.6949 127.831 26.0525 129.279 26.0525C130.949 26.0525 132.185 25.539 132.986 24.5143C133.187 24.2467 133.332 23.9236 133.421 23.5443C133.509 23.1657 133.565 22.6305 133.588 21.9386C132.274 23.1875 130.726 23.8119 128.944 23.8119C127.63 23.8119 126.422 23.4558 125.32 22.7415C124.217 22.0286 123.349 21.0413 122.714 19.7813C122.079 18.5219 121.762 17.1112 121.762 15.5505C121.762 13.9898 122.079 12.5798 122.714 11.3197C123.349 10.0604 124.217 9.07388 125.32 8.3595C126.422 7.64588 127.63 7.28906 128.944 7.28906C129.834 7.28906 130.681 7.45622 131.483 7.79055C132.285 8.12487 133.008 8.59338 133.654 9.19531C133.766 8.70507 134.022 8.29803 134.422 7.97495C134.823 7.65187 135.28 7.48996 135.792 7.48996C136.393 7.48996 136.911 7.70734 137.345 8.14211L137.346 8.14286ZM132.636 18.5946C133.359 17.7918 133.722 16.7776 133.722 15.5512C133.722 14.3249 133.359 13.3107 132.636 12.5078C131.912 11.705 131.027 11.304 129.98 11.304C128.934 11.304 128.048 11.705 127.325 12.5078C126.601 13.3107 126.239 14.3256 126.239 15.5512C126.239 16.7768 126.601 17.7918 127.325 18.5946C128.048 19.3975 128.933 19.7985 129.98 19.7985C131.028 19.7985 131.912 19.3975 132.636 18.5946Z" fill="white"/>
<path d="M24.2607 22.4522C27.4001 22.4522 30.4174 21.1217 32.5385 18.8016L32.7684 18.591C33.0836 18.199 33.3838 17.7919 33.6616 17.3811C34.31 16.4209 34.8663 15.3932 35.317 14.328C36.2536 12.1107 36.7283 9.75764 36.7283 7.33341C36.7283 6.35593 36.649 5.37394 36.4925 4.41519C36.345 3.51042 35.8538 2.71808 35.1104 2.18287C34.3669 1.64765 33.4602 1.43476 32.5565 1.58318C32.1649 1.64765 31.7906 1.77733 31.4439 1.97073C31.414 1.98722 31.3907 2.00071 31.3675 2.01495L31.3443 2.0292C31.3294 2.03819 31.3099 2.05019 31.2904 2.06218L31.2657 2.07792C31.2485 2.08916 31.2313 2.10041 31.2141 2.11165L31.1916 2.12739C31.1751 2.13864 31.1601 2.14838 31.1459 2.15888L31.1167 2.17912C31.0987 2.19186 31.083 2.20385 31.0666 2.21585L31.0433 2.23309C31.0254 2.24658 31.0089 2.25933 30.9924 2.27207L30.9677 2.29081C30.9535 2.30205 30.934 2.31779 30.9153 2.33354L30.8966 2.34853C30.8816 2.36127 30.8614 2.37851 30.8419 2.39575L30.8322 2.40475C30.8097 2.42499 30.788 2.44448 30.7663 2.46547L30.7454 2.48571C30.7326 2.4977 30.7177 2.51269 30.7019 2.52768L30.6787 2.55092C30.666 2.56367 30.6525 2.57791 30.6383 2.5914L30.5537 2.68285C30.5417 2.69635 30.5297 2.70984 30.5185 2.72258L30.4923 2.75332C30.4826 2.76456 30.4706 2.77955 30.4586 2.79454L30.4376 2.82078C30.4242 2.83802 30.4114 2.85451 30.3987 2.871L30.3815 2.89274C30.3628 2.91748 30.3448 2.94147 30.3268 2.9662C29.7922 3.71056 29.5796 4.61834 29.7279 5.52311C29.8252 6.11755 29.8739 6.72623 29.8739 7.33341C29.8739 8.83412 29.5811 10.2876 29.0038 11.6541C28.4453 12.9757 27.6449 14.1638 26.6259 15.1848C26.5818 15.229 26.5361 15.2732 26.4904 15.3175L26.4597 15.3475C26.4163 15.3894 26.3706 15.4322 26.3257 15.4749L26.3077 15.4914C26.2643 15.5311 26.2224 15.5693 26.1797 15.6076L26.1557 15.6286C26.1078 15.6713 26.0614 15.7125 26.0142 15.753L25.991 15.7732C25.9424 15.8145 25.8974 15.8534 25.851 15.8909L25.8435 15.8969C25.7904 15.9411 25.741 15.9809 25.6915 16.0206L25.6661 16.0408C25.5628 16.1225 25.4587 16.202 25.3569 16.2777L25.3329 16.2957C25.2827 16.3324 25.2303 16.3707 25.1772 16.4081L25.1659 16.4156C25.1158 16.4516 25.0619 16.4884 25.008 16.5251L24.9967 16.5326C24.9428 16.5693 24.8867 16.606 24.8313 16.6428L24.8215 16.6488C24.704 16.7252 24.5879 16.7979 24.4764 16.8647L24.4562 16.8767C24.3461 16.9426 24.2263 17.0108 24.1103 17.0745L24.0998 17.0798C24.0399 17.1128 23.9792 17.145 23.9186 17.1772C23.6513 17.3174 23.375 17.4479 23.0972 17.5655C21.7323 18.1435 20.2806 18.4366 18.7817 18.4366C17.5485 18.4366 16.3438 18.2372 15.1953 17.8444C17.2999 20.7341 20.6684 22.4522 24.26 22.4522H24.2607Z" fill="#62100F"/>
<path d="M24.2598 24.1277C19.0668 24.1277 14.4045 21.0334 12.3822 16.2441L11.7907 14.8439C11.7032 14.7622 11.6163 14.679 11.5309 14.5935C10.5876 13.649 9.84784 12.5508 9.33197 11.329C8.79814 10.0659 8.52785 8.72184 8.52785 7.33432C8.52785 6.77211 8.57353 6.20916 8.66337 5.65895C8.84606 4.54203 8.57802 3.39738 7.91765 2.47836C7.25803 1.55935 6.26 0.940173 5.14367 0.757269C4.02808 0.574365 2.8848 0.842724 1.96687 1.50388C1.0482 2.16428 0.429762 3.16351 0.247076 4.28042C0.0831073 5.28414 0 6.31185 0 7.33357C0 9.87023 0.497146 12.3334 1.47796 14.6542C1.9489 15.7696 2.53215 16.8446 3.21049 17.8498C3.88208 18.8445 4.65251 19.78 5.50155 20.6301C6.35059 21.4801 7.28424 22.2515 8.27853 22.9239C9.28256 23.603 10.357 24.187 11.4703 24.6585C13.7883 25.6405 16.2486 26.1382 18.7822 26.1382C21.3159 26.1382 23.7762 25.6405 26.0942 24.6585C26.92 24.3084 27.7241 23.8969 28.4946 23.4306C27.1476 23.8871 25.7161 24.1277 24.2606 24.1277H24.2598Z" fill="white"/>
<path d="M37.3173 4.27922C37.1346 3.1623 36.5161 2.16308 35.5982 1.50192C34.6803 0.840771 33.537 0.572412 32.4214 0.755316C31.931 0.835524 31.4638 1.00044 31.0378 1.23731C31.0056 1.2553 30.9734 1.27404 30.942 1.29278C30.9345 1.29728 30.927 1.30178 30.9202 1.30628C30.8955 1.32127 30.8716 1.33551 30.8469 1.35125C30.8371 1.35725 30.8281 1.36325 30.8184 1.36924C30.7967 1.38349 30.7742 1.39773 30.7525 1.41197C30.742 1.41872 30.7323 1.42546 30.7218 1.43221C30.7009 1.44645 30.6799 1.4607 30.6597 1.47494C30.6492 1.48243 30.6395 1.48918 30.629 1.49668C30.6088 1.51167 30.5878 1.52666 30.5676 1.54165C30.5579 1.54915 30.5481 1.5559 30.5384 1.56339C30.5174 1.57913 30.4965 1.59562 30.4755 1.61212C30.4673 1.61886 30.4583 1.62561 30.45 1.63236C30.4261 1.65185 30.4021 1.67133 30.3789 1.69082C30.3737 1.69532 30.3692 1.69907 30.3639 1.70357C30.3347 1.7283 30.3063 1.75304 30.2778 1.77853C30.2501 1.80327 30.2232 1.828 30.1962 1.85349C30.188 1.86099 30.1805 1.86848 30.173 1.87598C30.1543 1.89397 30.1348 1.91271 30.1161 1.9307C30.1064 1.94044 30.0974 1.95019 30.0877 1.95918C30.0712 1.97567 30.054 1.99292 30.0375 2.01016C30.027 2.02065 30.0173 2.03115 30.0076 2.04239C29.9918 2.05888 29.9761 2.07537 29.9611 2.09261C29.9507 2.10386 29.9409 2.1151 29.9304 2.12635C29.9155 2.14284 29.9005 2.16008 29.8855 2.17732C29.8758 2.18856 29.8661 2.19981 29.8563 2.2118C29.8413 2.22979 29.8264 2.24778 29.8121 2.26502C29.8032 2.27627 29.7942 2.28751 29.7852 2.29876C29.7695 2.31825 29.7537 2.33848 29.738 2.35872C29.7305 2.36847 29.723 2.37821 29.7156 2.38796C29.6931 2.41794 29.6706 2.44793 29.6482 2.47866C28.9878 3.39768 28.7198 4.54233 28.9025 5.65924C28.9923 6.2087 29.038 6.77241 29.038 7.33461C29.038 8.72213 28.7677 10.0662 28.2339 11.3293C27.7172 12.5511 26.9775 13.6493 26.0349 14.5938C25.9937 14.635 25.9518 14.6763 25.9098 14.7167C25.9009 14.7257 25.8911 14.7347 25.8821 14.7437C25.841 14.7835 25.799 14.8232 25.7571 14.8622C25.7511 14.8674 25.7451 14.8727 25.7399 14.8787C25.701 14.9146 25.662 14.9499 25.6231 14.9851C25.6156 14.9918 25.6074 14.9993 25.5999 15.0061C25.5572 15.0443 25.5138 15.0825 25.4704 15.12C25.4629 15.1268 25.4546 15.1335 25.4471 15.1403C25.4052 15.1762 25.3633 15.2122 25.3206 15.2475C25.3169 15.2505 25.3139 15.2535 25.3101 15.2565C25.2645 15.2939 25.2188 15.3314 25.1731 15.3681C25.1649 15.3749 25.1574 15.3809 25.1492 15.3876C25.0556 15.4618 24.9605 15.5353 24.8639 15.6058C24.8572 15.611 24.8504 15.6155 24.8437 15.6208C24.795 15.6567 24.7463 15.692 24.6969 15.7265C24.6947 15.728 24.6917 15.7302 24.6894 15.7317C24.6408 15.7662 24.5914 15.8007 24.5412 15.8344C24.5382 15.8366 24.5345 15.8389 24.5315 15.8411C24.4806 15.8756 24.4296 15.9094 24.378 15.9431C24.3735 15.9461 24.3697 15.9483 24.3652 15.9513C24.2612 16.0188 24.1564 16.0848 24.05 16.1485C24.0455 16.1507 24.0418 16.1537 24.0373 16.156C23.9302 16.2204 23.8217 16.2819 23.7116 16.3426C23.7086 16.3441 23.7056 16.3456 23.7026 16.3479C23.6472 16.3786 23.5911 16.4086 23.5349 16.4378C23.2871 16.5675 23.034 16.6875 22.7757 16.7969C21.5141 17.3314 20.1717 17.602 18.7858 17.602C17.4 17.602 16.0575 17.3314 14.7959 16.7969C14.2209 16.5533 13.6736 16.2602 13.1562 15.9199C14.9861 20.2526 19.2702 23.2922 24.2642 23.2922C27.7861 23.2922 30.9756 21.8193 33.1799 19.4085L33.224 19.3613C33.6268 18.8771 34.0057 18.3726 34.3576 17.8516C35.0359 16.8464 35.6192 15.7707 36.0901 14.656C37.0709 12.3352 37.5681 9.87203 37.5681 7.33536C37.5681 6.3129 37.485 5.28594 37.321 4.28221L37.3173 4.27922Z" fill="#629246"/>
<path d="M13.6106 15.2178C14.0838 15.5296 14.5907 15.801 15.1155 16.0236C16.273 16.5139 17.5062 16.7627 18.7797 16.7627C20.0533 16.7627 21.2864 16.5139 22.4439 16.0236C22.6798 15.9239 22.9149 15.813 23.1417 15.6938C23.1837 15.6721 23.2256 15.6496 23.2668 15.6271L23.3042 15.6069C23.4038 15.5521 23.5041 15.4952 23.6029 15.4359L23.6224 15.4247C23.7093 15.373 23.8051 15.3123 23.9009 15.2508L23.9129 15.2433C23.9646 15.2096 24.011 15.1788 24.0574 15.1473L24.0649 15.1421C24.1128 15.1099 24.1577 15.0784 24.2019 15.0469L24.2124 15.0394C24.2543 15.0102 24.2985 14.9772 24.3434 14.9442L24.3644 14.9285C24.449 14.8655 24.5366 14.7988 24.6234 14.7298L24.6466 14.7118C24.6878 14.6788 24.7298 14.6444 24.7724 14.6099L24.7784 14.6054C24.8069 14.5821 24.8331 14.5597 24.8593 14.5372C24.9409 14.1346 24.9843 13.7178 24.9843 13.2906C24.9843 9.86037 22.2073 7.08008 18.7812 7.08008C15.3551 7.08008 12.5781 9.86037 12.5781 13.2906C12.5781 13.7523 12.6298 14.2013 12.7256 14.6339L13.6121 15.2178H13.6106Z" fill="#A4F675"/>
</g>
<defs>
<clipPath id="clip0_414_2190">
<rect width="138" height="30" fill="white"/>
</clipPath>
</defs>
</svg>
