<?xml version="1.0" encoding="UTF-8"?>
<svg id="Layer_1" data-name="Layer 1" xmlns="http://www.w3.org/2000/svg" viewBox="0 0 504.59 231.11">
  <defs>
    <style>
      .cls-1 {
        fill: #fca965;
      }
    </style>
  </defs>
  <g>
    <path class="cls-1" d="M94.09,128.41V55.72c-10.88,13.65-21.77,25.28-21.77,40.04h-22.14c0-14.76-10.89-26.38-21.77-40.04v72.69H0V2.95h28.41c0,19.56,19.74,36.53,32.84,57.93,13.1-21.4,32.84-38.38,32.84-57.93h28.41v125.46h-28.41Z"/>
    <path class="cls-1" d="M237.96,2.95v23.25h-65.31c0,16.6,18.82,25.28,57.75,25.28v23.25c-22.32,0-42.8-3.14-57.75-13.28v43.73h65.31v23.25h-93.73V2.95h93.73Z"/>
    <path class="cls-1" d="M316.75,0c15.68,0,29.52,4.43,40.59,12.18v29.52h-3.32c-11.25-14.39-26.38-18.45-37.27-18.45-22.51,0-38.74,17.9-38.74,42.43s16.24,42.43,40.59,42.43c7.2,0,12.73-.74,17.71-2.95v-42.62h28.41v56.64c-9.23,5.9-28.6,12.18-47.97,12.18-39.11,0-67.53-27.67-67.53-65.68S277.63,0,316.75,0Z"/>
    <path class="cls-1" d="M443.7,2.95l60.88,125.46h-31.37c-2.58-4.98-8.49-11.99-17.71-11.99-14.39,0-29.7,14.94-52.58,14.94s-37.82-23.25-15.13-66.97l31.92-61.44h23.99ZM431.71,42.99l-14.02,27.67c-7.2,14.21-17.53,35.61-4.24,35.61,10.7,0,26.57-13.1,41.88-14.94l-23.62-48.34Z"/>
  </g>
  <g>
    <path class="cls-1" d="M107.49,144.77h21.59l23.74,58.03,15.11-29.2-13.97-28.82h21.59l4.82,9.9c6.6-6.86,15.49-11.94,28.57-11.94,28.57,0,36.57,24.51,25.39,46.09l-21.97,42.28h-16.51l-17.14-35.3-17.9,35.3h-16.51l-36.82-86.34ZM204.12,203.56l9.65-19.05c7.62-14.98,5.08-25.9-5.97-25.9-7.62,0-12.44,5.46-18.03,15.49l14.35,29.46h0Z"/>
    <path class="cls-1" d="M269.06,144.77v86.34h-19.55v-86.34h19.55Z"/>
    <path class="cls-1" d="M337.55,185.15v-40.38h19.55v86.34h-19.55c0-22.6-17.27-45.33-34.03-63.49v63.49h-19.55v-86.34h19.55c6.22,6.86,21.97,21.46,34.03,40.38Z"/>
  </g>
</svg>