<svg width="25" height="25" viewBox="0 0 25 25" fill="none" xmlns="http://www.w3.org/2000/svg">
<path fill-rule="evenodd" clip-rule="evenodd" d="M10.9375 6.25C10.9375 5.38706 11.6371 4.6875 12.5 4.6875C13.3629 4.6875 14.0625 5.38706 14.0625 6.25C14.0625 7.11295 13.3629 7.8125 12.5 7.8125C11.6371 7.8125 10.9375 7.11294 10.9375 6.25ZM10.9375 12.5C10.9375 11.6371 11.6371 10.9375 12.5 10.9375C13.3629 10.9375 14.0625 11.6371 14.0625 12.5C14.0625 13.3629 13.3629 14.0625 12.5 14.0625C11.6371 14.0625 10.9375 13.3629 10.9375 12.5ZM10.9375 18.75C10.9375 17.8871 11.6371 17.1875 12.5 17.1875C13.3629 17.1875 14.0625 17.8871 14.0625 18.75C14.0625 19.6129 13.3629 20.3125 12.5 20.3125C11.6371 20.3125 10.9375 19.6129 10.9375 18.75Z" fill="white"/>
</svg>
