<svg width="21" height="15" viewBox="0 0 21 15" fill="none" xmlns="http://www.w3.org/2000/svg">
<path d="M20.7469 6.6675L16.7475 0.6675C16.6105 0.462152 16.4249 0.293791 16.2073 0.177352C15.9896 0.0609125 15.7465 -6.08522e-06 15.4997 4.55918e-10H0.749992C0.613162 1.43009e-06 0.47894 0.0374352 0.361858 0.108248C0.244777 0.179061 0.149298 0.280554 0.0857612 0.401738C0.0222241 0.522922 -0.00695015 0.659178 0.00139712 0.795753C0.00974439 0.932329 0.0552952 1.06402 0.133117 1.17656L4.49999 7.5L0.133117 13.8234C0.0552952 13.936 0.00974439 14.0677 0.00139712 14.2042C-0.00695015 14.3408 0.0222241 14.4771 0.0857612 14.5983C0.149298 14.7194 0.244777 14.8209 0.361858 14.8918C0.47894 14.9626 0.613162 15 0.749992 15H15.4997C15.7465 15 15.9896 14.9391 16.2073 14.8226C16.4249 14.7062 16.6105 14.5378 16.7475 14.3325L20.7469 8.3325C20.9113 8.08601 20.9991 7.79632 20.9991 7.5C20.9991 7.20368 20.9113 6.914 20.7469 6.6675Z" fill="#A4F675"/>
</svg>
