<svg width="153" height="163" viewBox="0 0 153 163" fill="none" xmlns="http://www.w3.org/2000/svg">
<path d="M76.2042 158.427L76.2043 157.918C75.1937 157.918 74.1678 157.897 73.1547 157.857L73.1344 158.365C74.1541 158.406 75.1868 158.427 76.2042 158.427ZM79.2731 158.368C80.2892 158.328 81.3202 158.267 82.3374 158.187L82.2974 157.68C81.2869 157.76 80.2627 157.821 79.2533 157.86L79.2731 158.368ZM70.0701 158.181L70.1106 157.674C69.102 157.593 68.0811 157.491 67.0767 157.369L67.0156 157.874C68.0269 157.996 69.0545 158.099 70.0701 158.181ZM85.3923 157.884C86.4058 157.763 87.4286 157.62 88.4325 157.459L88.3519 156.957C87.3548 157.117 86.3386 157.259 85.332 157.379L85.3923 157.884ZM63.9761 157.445L64.0572 156.943C63.0604 156.782 62.0511 156.598 61.0574 156.396L60.9562 156.893C61.9564 157.097 62.9725 157.283 63.9761 157.445ZM91.4531 156.911C92.4534 156.708 93.4613 156.482 94.4492 156.241L94.3283 155.747C93.347 155.987 92.3458 156.211 91.3523 156.412L91.4531 156.911ZM57.9607 156.22L58.0823 155.727C57.0981 155.484 56.107 155.219 55.1366 154.938L54.9951 155.426C55.9723 155.709 56.97 155.976 57.9607 156.22ZM97.4157 155.45C98.3958 155.167 99.3823 154.861 100.348 154.54L100.187 154.057C99.2282 154.376 98.2483 154.681 97.2747 154.962L97.4157 155.45ZM52.0644 154.512L52.2255 154.03C51.266 153.71 50.2997 153.365 49.3534 153.005L49.1727 153.48C50.1255 153.842 51.0984 154.19 52.0644 154.512ZM103.248 153.508C104.202 153.146 105.162 152.76 106.103 152.359L105.904 151.892C104.969 152.29 104.015 152.674 103.068 153.032L103.248 153.508ZM46.3333 152.336L46.5329 151.868C45.6037 151.471 44.6707 151.05 43.7601 150.617L43.5416 151.076C44.4585 151.512 45.3979 151.936 46.3333 152.336ZM108.909 151.097C109.832 150.658 110.758 150.196 111.66 149.721L111.423 149.272C110.527 149.742 109.608 150.202 108.691 150.637L108.909 151.097ZM40.8018 149.705L41.0386 149.255C40.1433 148.784 39.2466 148.289 38.3735 147.784L38.1188 148.224C38.9979 148.732 39.9006 149.231 40.8018 149.705ZM114.352 148.236C115.238 147.724 116.123 147.189 116.982 146.644L116.71 146.215C115.857 146.756 114.978 147.288 114.098 147.797L114.352 148.236ZM35.4966 146.635L35.7686 146.206C34.9166 145.666 34.062 145.101 33.2289 144.525L32.94 144.943C33.7786 145.523 34.6389 146.092 35.4966 146.635ZM119.545 144.949C120.385 144.368 121.224 143.763 122.037 143.151L121.731 142.745C120.923 143.353 120.091 143.953 119.256 144.531L119.545 144.949ZM30.4523 143.148L30.7581 142.742C29.9522 142.136 29.1453 141.503 28.3598 140.861L28.0381 141.255C28.8289 141.901 29.6412 142.538 30.4523 143.148ZM124.454 141.256C125.243 140.611 126.03 139.941 126.793 139.265L126.456 138.885C125.698 139.556 124.916 140.222 124.132 140.862L124.454 141.256ZM25.7011 139.266L26.0382 138.886C25.2809 138.215 24.5269 137.519 23.7972 136.819L23.4453 137.185C24.1797 137.891 24.9387 138.591 25.7011 139.266ZM129.05 137.183C129.783 136.479 130.514 135.749 131.221 135.013L130.855 134.661C130.152 135.392 129.426 136.117 128.698 136.816L129.05 137.183ZM21.2738 135.015L21.6401 134.663C20.9395 133.934 20.2433 133.18 19.5707 132.422L19.1904 132.759C19.8675 133.522 20.5684 134.281 21.2738 135.015ZM133.303 132.758C133.981 131.994 134.651 131.208 135.294 130.422L134.9 130.1C134.261 130.882 133.596 131.662 132.923 132.421L133.303 132.758ZM17.1987 130.422L17.5923 130.1C16.95 129.315 16.3161 128.507 15.708 127.7L15.3019 128.005C15.914 128.818 16.5524 129.631 17.1987 130.422ZM137.188 128.009C137.801 127.196 138.405 126.359 138.984 125.523L138.566 125.233C137.991 126.065 137.391 126.896 136.782 127.703L137.188 128.009ZM13.5033 125.514L13.9212 125.225C13.3439 124.391 12.7766 123.534 12.2352 122.68L11.8059 122.952C12.3509 123.812 12.922 124.674 13.5033 125.514ZM140.678 122.967C141.223 122.108 141.758 121.226 142.268 120.346L141.828 120.091C141.321 120.966 140.79 121.842 140.249 122.695L140.678 122.967ZM10.2122 120.324L10.652 120.069C10.1432 119.19 9.64655 118.29 9.1757 117.395L8.72597 117.632C9.1998 118.533 9.69989 119.438 10.2122 120.324ZM143.75 117.663C144.224 116.764 144.686 115.842 145.123 114.924L144.664 114.705C144.23 115.617 143.771 116.533 143.301 117.426L143.75 117.663ZM7.34926 114.882L7.80843 114.663C7.37334 113.748 6.9507 112.811 6.5526 111.878L6.08498 112.077C6.48581 113.017 6.91119 113.96 7.34926 114.882ZM146.384 112.133C146.784 111.197 147.17 110.242 147.531 109.294L147.055 109.114C146.697 110.054 146.314 111.003 145.917 111.933L146.384 112.133ZM4.93483 109.222L5.41016 109.042C5.04977 108.091 4.70427 107.122 4.38385 106.162L3.90184 106.323C4.22423 107.29 4.57196 108.265 4.93483 109.222ZM148.564 106.403C148.888 105.437 149.196 104.451 149.479 103.473L148.991 103.331C148.709 104.303 148.403 105.282 148.082 106.242L148.564 106.403ZM2.98946 103.391L3.47789 103.25C3.19743 102.28 2.93262 101.289 2.69063 100.304L2.19724 100.425C2.44072 101.417 2.70726 102.415 2.98946 103.391ZM150.275 100.508C150.519 99.5178 150.746 98.5104 150.95 97.5129L150.452 97.4111C150.25 98.4019 150.024 99.4029 149.782 100.386L150.275 100.508ZM1.5256 97.4297L2.024 97.3285C1.82295 96.3384 1.63928 95.329 1.47795 94.3285L0.97612 94.4094C1.13844 95.4166 1.32332 96.4327 1.5256 97.4297ZM151.503 94.4931C151.666 93.4896 151.811 92.4671 151.934 91.4537L151.429 91.3926C151.307 92.3993 151.163 93.4149 151.001 94.4117L151.503 94.4931ZM0.548721 91.3688L1.05353 91.3082C0.932663 90.302 0.830673 89.2812 0.750748 88.2742L0.243927 88.3144C0.3246 89.3283 0.427124 90.3559 0.548721 91.3688ZM152.242 88.3996C152.324 87.3844 152.387 86.3534 152.428 85.3352L151.92 85.3146C151.879 86.326 151.817 87.3501 151.736 88.3587L152.242 88.3996ZM0.0612793 85.2504L0.569077 85.2303C0.529358 84.2174 0.509033 83.1916 0.509033 82.1814L0.509262 82.0129H0.000976562L0.000717163 82.1802C0.000701904 83.1982 0.0210724 84.2307 0.0612793 85.2504ZM151.984 82.2656H152.492L152.492 82.1802C152.492 81.1887 152.473 80.1845 152.435 79.1968L151.927 79.2164C151.965 80.1977 151.984 81.1951 151.984 82.1814L151.984 82.2656ZM0.576294 78.9647C0.61824 77.9554 0.681259 76.9313 0.76416 75.9209L0.257355 75.8794C0.17421 76.8966 0.110657 77.9275 0.0684662 78.9436L0.576294 78.9647ZM151.749 76.1722L152.256 76.1325C152.176 75.1146 152.074 74.0868 151.954 73.0774L151.449 73.1375C151.569 74.1402 151.669 75.1613 151.749 76.1722ZM1.07339 72.8872C1.196 71.8847 1.34094 70.8691 1.50476 69.8686L1.00293 69.7866C0.838379 70.7938 0.692184 71.8162 0.569077 72.8256L1.07339 72.8872ZM151.028 70.1174L151.53 70.037C151.369 69.0306 151.185 68.0141 150.984 67.0161L150.486 67.1166C150.686 68.108 150.868 69.1176 151.028 70.1174ZM2.05775 66.8697C2.26176 65.8764 2.48837 64.8759 2.73137 63.8957L2.23795 63.7733C1.99321 64.7601 1.76512 65.7676 1.55986 66.7674L2.05775 66.8697ZM149.822 64.1404L150.316 64.0198C150.074 63.0304 149.808 62.0322 149.526 61.0526L149.038 61.1932C149.318 62.1662 149.582 63.1578 149.822 64.1404ZM3.52483 60.9513C3.80775 59.9805 4.11453 59.0015 4.43716 58.0416L3.9552 57.8798C3.63055 58.8461 3.32153 59.8317 3.03687 60.8091L3.52483 60.9513ZM148.135 58.2805L148.618 58.1202C148.296 57.1523 147.95 56.1763 147.588 55.2192L147.112 55.3989C147.472 56.3496 147.816 57.3191 148.135 58.2805ZM5.46721 55.1712C5.82834 54.2257 6.21254 53.2775 6.60916 52.3527L6.14204 52.1524C5.74271 53.0834 5.35574 54.038 4.99213 54.9898L5.46721 55.1712ZM145.973 52.5622L146.441 52.3631C146.042 51.4241 145.617 50.4799 145.18 49.5573L144.72 49.7749C145.155 50.6915 145.576 51.6293 145.973 52.5622ZM7.86453 49.5816C8.29962 48.6705 8.75923 47.7556 9.23082 46.8625L8.78157 46.6251C8.30653 47.5243 7.84364 48.4453 7.40582 49.3627L7.86453 49.5816ZM143.356 47.0415L143.806 46.8054C143.332 45.9024 142.833 44.9962 142.323 44.112L141.882 44.3661C142.39 45.2444 142.885 46.1446 143.356 47.0415ZM10.7066 44.1999C11.2149 43.3248 11.747 42.4495 12.2886 41.5978L11.8597 41.325C11.3144 42.1824 10.7788 43.0637 10.267 43.9445L10.7066 44.1999ZM140.303 41.7533L140.732 41.4815C140.187 40.6194 139.617 39.7568 139.037 38.9178L138.619 39.2065C139.195 40.04 139.761 40.8968 140.303 41.7533ZM13.9746 39.0606C14.5512 38.2298 15.1523 37.3993 15.7611 36.5927L15.3556 36.2864C14.7425 37.0985 14.1374 37.9344 13.5571 38.771L13.9746 39.0606ZM136.835 36.73L137.242 36.4248C136.629 35.6095 135.992 34.7959 135.348 34.0063L134.954 34.3278C135.594 35.1119 136.227 35.9202 136.835 36.73ZM17.6457 34.1976C18.2868 33.4154 18.9529 32.6354 19.625 31.8794L19.2453 31.5416C18.5685 32.3027 17.8981 33.0879 17.2525 33.8754L17.6457 34.1976ZM132.978 32.0032L133.358 31.6664C132.683 30.9039 131.983 30.1442 131.277 29.4083L130.911 29.7602C131.612 30.4912 132.307 31.2459 132.978 32.0032ZM21.696 29.6416C22.3993 28.9118 23.1258 28.1873 23.8555 27.4881L23.5038 27.121C22.7694 27.8249 22.0379 28.5542 21.3301 29.2889L21.696 29.6416ZM128.756 27.602L129.108 27.2357C128.375 26.53 127.617 25.8291 126.855 25.1522L126.517 25.5322C127.274 26.2046 128.027 26.901 128.756 27.602ZM26.0994 25.4223C26.8589 24.7508 27.6415 24.0863 28.425 23.4476L28.1039 23.0536C27.3151 23.6967 26.5273 24.3655 25.7629 25.0415L26.0994 25.4223ZM124.198 23.5541L124.52 23.1609C123.731 22.515 122.92 21.8773 122.108 21.2652L121.802 21.671C122.608 22.279 123.414 22.9126 124.198 23.5541ZM30.8288 21.5674C31.6396 20.9588 32.4733 20.3591 33.306 19.7848L33.0176 19.3663C32.1792 19.9445 31.3401 20.5482 30.5235 21.1609L30.8288 21.5674ZM119.332 19.8854L119.622 19.4677C118.784 18.887 117.925 18.3166 117.067 17.772L116.795 18.2011C117.646 18.7419 118.5 19.3086 119.332 19.8854ZM35.8538 18.1026C36.7108 17.5613 37.5901 17.0303 38.4677 16.5243L38.2136 16.084C37.3305 16.5933 36.4452 17.1279 35.5822 17.6729L35.8538 18.1026ZM114.192 16.6208L114.447 16.181C113.568 15.6713 112.666 15.1719 111.765 14.697L111.528 15.1465C112.423 15.6183 113.319 16.1143 114.192 16.6208ZM41.1435 15.0523C42.0413 14.582 42.9611 14.1234 43.8777 13.6894L43.6603 13.23C42.7375 13.6669 41.8112 14.1285 40.9078 14.6021L41.1435 15.0523ZM108.809 13.7815L109.027 13.3226C108.111 12.8857 107.172 12.461 106.237 12.0604L106.037 12.5276C106.966 12.9255 107.898 13.3473 108.809 13.7815ZM46.6657 12.4382C47.5999 12.0414 48.5544 11.6588 49.503 11.3007L49.3233 10.8251C48.3685 11.1856 47.4073 11.571 46.4671 11.9703L46.6657 12.4382ZM103.218 11.3872L103.399 10.9121C102.448 10.5495 101.475 10.2013 100.508 9.87704L100.347 10.359C101.307 10.681 102.273 11.027 103.218 11.3872ZM52.3853 10.2791C53.3459 9.96054 54.326 9.65738 55.2987 9.37803L55.1582 8.88958C54.179 9.17078 53.1925 9.47594 52.2255 9.79661L52.3853 10.2791ZM97.4363 9.44789L97.5783 8.95994C96.6008 8.67552 95.6033 8.40722 94.6136 8.16237L94.4915 8.65578C95.4746 8.89899 96.4654 9.16557 97.4363 9.44789ZM58.2461 8.59596C59.2275 8.35658 60.2291 8.13383 61.2228 7.9339L61.1226 7.43553C60.1221 7.63681 59.1138 7.86118 58.1257 8.10205L58.2461 8.59596ZM91.5172 7.98403L91.6192 7.48614C90.6227 7.28212 89.6069 7.09549 88.5998 6.9313L88.5179 7.43291C89.5184 7.59609 90.5274 7.78149 91.5172 7.98403ZM64.2238 7.39282C65.2234 7.23348 66.2396 7.09226 67.2443 6.97337L67.1845 6.46854C66.1731 6.58829 65.1501 6.73039 64.1439 6.89097L64.2238 7.39282ZM85.4991 7.00328L85.5607 6.49869C84.5495 6.37559 83.522 6.2712 82.5066 6.18882L82.4654 6.69539C83.4741 6.77742 84.4948 6.88092 85.4991 7.00328ZM70.279 6.67553C71.2867 6.59698 72.311 6.53766 73.3234 6.49932L73.304 5.99126C72.285 6.02998 71.254 6.08968 70.2396 6.16872L70.279 6.67553ZM79.4214 6.50912L79.4423 6.00132C78.4259 5.95937 77.3933 5.93728 76.3731 5.93555L76.3723 6.44384C77.3857 6.44558 78.4116 6.46755 79.4214 6.50912Z" fill="white"/>
<path d="M103.171 129.765C76.0809 129.765 54.1199 107.804 54.1199 80.7135C54.1199 53.6232 76.0809 31.6621 103.171 31.6621C130.262 31.6621 152.223 53.6232 152.223 80.7135C152.223 107.804 130.262 129.765 103.171 129.765Z" fill="url(#paint0_linear_351_1876)"/>
<path d="M120.582 116.55C106.195 116.55 94.5316 100.506 94.5316 80.7144C94.5316 60.923 106.195 44.8789 120.582 44.8789C134.97 44.8789 146.633 60.923 146.633 80.7144C146.633 100.506 134.97 116.55 120.582 116.55Z" fill="white"/>
<path d="M129.214 99.7429C125.199 99.7429 121.944 94.6224 121.944 88.306C121.944 81.9896 125.199 76.8691 129.214 76.8691C133.229 76.8691 136.484 81.9896 136.484 88.306C136.484 94.6224 133.229 99.7429 129.214 99.7429Z" fill="#1D1C1C"/>
<path d="M6.80001 58.15C4.13309 58.15 1.97112 55.988 1.97112 53.3211C1.97112 50.6542 4.13309 48.4922 6.80001 48.4922C9.46694 48.4922 11.6289 50.6542 11.6289 53.3211C11.6289 55.988 9.46694 58.15 6.80001 58.15Z" fill="url(#paint1_linear_351_1876)"/>
<path d="M62.5791 14.2325C58.6488 14.2325 55.4628 11.0465 55.4628 7.11626C55.4628 3.18606 58.6488 0 62.5791 0C66.5093 0 69.6953 3.18606 69.6953 7.11626C69.6953 11.0465 66.5093 14.2325 62.5791 14.2325Z" fill="url(#paint2_linear_351_1876)"/>
<path d="M67.2922 162.455C64.6253 162.455 62.4633 160.293 62.4633 157.626C62.4633 154.959 64.6253 152.797 67.2922 152.797C69.9591 152.797 72.1211 154.959 72.1211 157.626C72.1211 160.293 69.9591 162.455 67.2922 162.455Z" fill="url(#paint3_linear_351_1876)"/>
<defs>
<linearGradient id="paint0_linear_351_1876" x1="152.223" y1="31.6621" x2="62.7162" y2="148.15" gradientUnits="userSpaceOnUse">
<stop stop-color="#2B3422"/>
<stop offset="0.3125" stop-color="#A4F675"/>
<stop offset="0.822868" stop-color="#7DAF5C"/>
</linearGradient>
<linearGradient id="paint1_linear_351_1876" x1="11.6289" y1="48.4922" x2="2.81739" y2="59.9599" gradientUnits="userSpaceOnUse">
<stop stop-color="#2B3422"/>
<stop offset="0.3125" stop-color="#A4F675"/>
<stop offset="0.822868" stop-color="#7DAF5C"/>
</linearGradient>
<linearGradient id="paint2_linear_351_1876" x1="69.6953" y1="0" x2="56.7099" y2="16.8998" gradientUnits="userSpaceOnUse">
<stop stop-color="#2B3422"/>
<stop offset="0.3125" stop-color="#A4F675"/>
<stop offset="0.822868" stop-color="#7DAF5C"/>
</linearGradient>
<linearGradient id="paint3_linear_351_1876" x1="72.1211" y1="152.797" x2="63.3096" y2="164.265" gradientUnits="userSpaceOnUse">
<stop stop-color="#2B3422"/>
<stop offset="0.3125" stop-color="#A4F675"/>
<stop offset="0.822868" stop-color="#7DAF5C"/>
</linearGradient>
</defs>
</svg>
