<?xml version="1.0" encoding="UTF-8"?>
<svg id="Layer_1" data-name="Layer 1" xmlns="http://www.w3.org/2000/svg" viewBox="0 0 486.73 128.41">
  <defs>
    <style>
      .cls-1 {
        fill: #ac95ff;
      }
    </style>
  </defs>
  <g>
    <path class="cls-1" d="M0,2.95h31.36l34.5,84.32,21.96-42.43L67.53,2.95h31.36l7.01,14.39C115.5,7.38,128.41,0,147.41,0c41.51,0,53.14,35.61,36.9,66.97l-31.92,61.44h-23.98l-24.91-51.29-26.01,51.29h-23.98L0,2.95ZM140.4,88.37l14.02-27.67c11.07-21.77,7.38-37.64-8.67-37.64-11.07,0-18.08,7.93-26.2,22.51l20.85,42.8h0Z"/>
    <path class="cls-1" d="M234.77,2.95v125.46h-28.41V2.95h28.41Z"/>
    <path class="cls-1" d="M334.28,61.62V2.95h28.41v125.46h-28.41c0-32.84-25.09-65.87-49.45-92.25v92.25h-28.41V2.95h28.41c9.04,9.96,31.92,31.18,49.45,58.67Z"/>
  </g>
  <path class="cls-1" d="M392.64,53.57h50.62c7.54,0,13.7-5.95,13.7-13.3s-6.15-13.3-13.7-13.3h-50.62V2.95h51.61c20.65,0,39.3,16.08,39.3,35.73,0,10.12-4.96,19.25-12.7,25.81,9.53,6.55,15.88,16.87,15.88,28.19,0,19.65-18.86,35.73-39.5,35.73h-54.59v-24.02h53.8c7.54,0,13.5-5.95,13.5-13.3s-5.96-13.3-13.5-13.3h-53.8v-24.22Z"/>
</svg>