<?xml version="1.0" encoding="UTF-8"?>
<svg id="Layer_1" data-name="Layer 1" xmlns="http://www.w3.org/2000/svg" viewBox="0 0 490.99 129.64">
  <defs>
    <style>
      .cls-1 {
        fill: #5d9df9;
      }
    </style>
  </defs>
  <g>
    <path class="cls-1" d="M0,2.95h31.36l34.5,84.32,21.96-42.43L67.53,2.95h31.36l7.01,14.39C115.5,7.38,128.41,0,147.41,0c41.51,0,53.13,35.61,36.9,66.97l-31.92,61.44h-23.98l-24.91-51.29-26.01,51.29h-23.98L0,2.95ZM140.4,88.37l14.02-27.67c11.07-21.77,7.38-37.64-8.67-37.64-11.07,0-18.08,7.93-26.2,22.51l20.85,42.8h0Z"/>
    <path class="cls-1" d="M234.77,2.95v125.46h-28.41V2.95h28.41Z"/>
    <path class="cls-1" d="M334.28,61.62V2.95h28.41v125.46h-28.41c0-32.84-25.09-65.87-49.45-92.25v92.25h-28.41V2.95h28.41c9.04,9.96,31.92,31.18,49.45,58.67Z"/>
  </g>
  <path class="cls-1" d="M392.19,52.78l15.69-50.3h27.17l-17.1,54.33c-1.01,3.22-1.21,6.84-.4,10.26,2.21,8.05,8.85,9.86,20.12,9.86h26.16V2.47h27.17v127.17h-27.17v-28.37h-26.16c-19.72,0-36.02-7.24-43.46-21.53-4.43-8.25-4.83-17.91-2.01-26.96Z"/>
</svg>