<?xml version="1.0" encoding="UTF-8"?>
<svg id="Layer_1" data-name="Layer 1" xmlns="http://www.w3.org/2000/svg" viewBox="0 0 486.53 128.41">
  <defs>
    <style>
      .cls-1 {
        fill: #ff8e60;
      }
    </style>
  </defs>
  <g>
    <path class="cls-1" d="M0,2.95h31.36l34.5,84.32,21.96-42.43L67.53,2.95h31.36l7.01,14.39C115.5,7.38,128.41,0,147.41,0c41.51,0,53.13,35.61,36.9,66.97l-31.92,61.44h-23.98l-24.91-51.29-26.01,51.29h-23.98L0,2.95ZM140.4,88.37l14.02-27.67c11.07-21.77,7.38-37.64-8.67-37.64-11.07,0-18.08,7.93-26.2,22.51l20.85,42.8h0Z"/>
    <path class="cls-1" d="M234.77,2.95v125.46h-28.41V2.95h28.41Z"/>
    <path class="cls-1" d="M334.28,61.62V2.95h28.41v125.46h-28.41c0-32.84-25.09-65.87-49.45-92.25v92.25h-28.41V2.95h28.41c9.04,9.96,31.92,31.18,49.45,58.67Z"/>
  </g>
  <path class="cls-1" d="M486.53,86.96c0,22.94-19.12,41.45-40.04,41.45h-55.33v-24.35h54.53c7.65,0,13.68-7.65,13.68-17.1s-6.04-16.9-13.68-16.9h-54.53l4.23-68.82h82.7v24.35h-59.76l-1.21,20.12h29.38c20.93,0,40.04,18.51,40.04,41.25Z"/>
</svg>