<svg xmlns="http://www.w3.org/2000/svg" xmlns:xlink="http://www.w3.org/1999/xlink" xmlns:inkscape="http://www.inkscape.org/namespaces/inkscape" version="1.1" width="1191.71" height="433.354" viewBox="0 0 1191.71 433.354">
<defs>
<clipPath id="clip_1">
<path transform="matrix(1,0,0,-1,0,433.354)" d="M0 433.354H1191.708V0H0Z"/>
</clipPath>
</defs>
<g clip-path="url(#clip_1)">
<path transform="matrix(1,0,0,-1,167.9062,250.0493)" d="M0 0ZM180.606-183.305C178.882-183.305 177.172-183.237 175.481-183.105 152.353-182.486 130.049-177.716 109.114-168.9 104.826-167.096 100.637-165.138 96.546-163.029 92.449-165.142 88.252-167.104 83.958-168.911 63.014-177.73 40.704-182.498 17.564-183.107 15.883-183.238 14.182-183.305 12.466-183.305-35.688-183.305-80.573-165.223-113.921-132.39-148.733-98.114-167.906-50.184-167.906 2.574V146.061C-167.906 174.462-156.573 200.052-135.994 218.114-118.448 233.516-95.57 241.998-71.576 241.998-47.582 241.998-24.704 233.516-7.158 218.114 13.421 200.052 24.754 174.462 24.754 146.061V132.76C27.058 135.277 29.515 137.685 32.118 139.97 49.665 155.371 72.542 163.853 96.536 163.853 120.53 163.853 143.407 155.371 160.954 139.97 163.558 137.685 166.015 135.277 168.318 132.76V146.061C168.318 174.462 179.651 200.052 200.23 218.114 217.776 233.516 240.654 241.998 264.648 241.998 288.643 241.998 311.521 233.516 329.066 218.114 349.646 200.052 360.979 174.462 360.979 146.061V2.574C360.979-50.177 341.807-98.105 306.995-132.383 273.646-165.22 228.76-183.305 180.606-183.305" fill="#ffffff"/>
<path transform="matrix(1,0,0,-1,538.2539,432.0386)" d="M0 0C-23.994 0-46.871 8.481-64.418 23.883-84.997 41.945-96.33 67.535-96.33 95.937V328.05C-96.33 356.445-85.002 382.03-64.433 400.093-46.891 415.497-24.016 423.983-.023 423.987H-.006C23.982 423.987 46.855 415.509 64.401 400.113 84.98 382.056 96.32 356.472 96.33 328.073V328.05 95.937C96.33 67.535 84.997 41.945 64.418 23.883 46.871 8.481 23.994 0 0 0" fill="#ffffff"/>
<path transform="matrix(1,0,0,-1,832.71,432.0386)" d="M0 0C-23.994 0-46.871 8.481-64.418 23.883-78.083 35.878-87.672 51.19-92.572 68.442-97.474 51.196-107.06 35.889-120.722 23.897-138.269 8.496-161.146 .015-185.14 .015-209.134 .015-232.011 8.496-249.558 23.897-270.137 41.96-281.47 67.549-281.47 95.951L-281.412 329.896C-281.412 330.193-281.41 330.489-281.405 330.785-280.899 367.158-260.133 399.752-227.21 415.847-194.469 431.852-156.104 428.164-127.088 406.221-127.077 406.212-127.065 406.204-127.055 406.195L-84.972 374.326C-79.781 383.973-72.882 392.676-64.418 400.104-46.872 415.505-23.994 423.987 0 423.987 23.994 423.987 46.872 415.505 64.418 400.104 84.997 382.041 96.33 356.451 96.33 328.05V95.937C96.33 67.534 84.997 41.945 64.418 23.883 46.871 8.481 23.994 0 0 0" fill="#ffffff"/>
<path transform="matrix(1,0,0,-1,908.7598,122.11569)" d="M0 0-.015-.053ZM117.573-174.279C73.322-174.279 36.581-141.528 30.341-99.007 5.87-96.304-16.751-83.438-31.51-63.447-48.074-41.022-53.099-12.962-45.347 13.677-35.923 47.363-15.883 75.36 12.64 94.675 39.151 112.626 72.029 122.115 107.719 122.115H119.694C164.407 122.115 204.503 104.724 232.594 73.143 257.303 45.365 270.91 8.906 270.91-29.52 270.91-66.154 258.313-100.731 235.441-126.883 209.249-156.835 171.641-173.484 129.412-173.858L120.164-174.228C119.301-174.262 118.438-174.279 117.573-174.279" fill="#ffffff"/>
<path transform="matrix(1,0,0,-1,1058.5274,260.2222)" d="M0 0C.01-.02 .02-.04 .028-.06 .02-.04 .01-.02 0 0M-21.814-163.766H-56.913C-92.637-163.766-125.563-154.29-152.131-136.364-180.912-116.945-201.113-88.728-210.55-54.762-210.649-54.404-210.745-54.046-210.839-53.687-217.855-26.642-212.117 1.482-195.094 23.476-178.177 45.342-152.643 57.889-125.047 57.889-95.015 57.889-67.575 42.7-51.283 18.819-50.704 43.426-39.971 67.197-20.4 84.161-19.841 84.646-19.272 85.123-18.695 85.589L-18.333 85.882C-17.716 86.381-17.089 86.869-16.454 87.346-.722 99.141 17.986 105.375 37.647 105.375 54.149 105.375 70.221 100.918 84.122 92.485 98.624 83.688 110.12 71.016 117.417 55.794 128.723 32.748 134.126 6.76 133.046-19.407 131.944-46.083 124.158-71.796 110.527-93.766 82.927-138.251 34.69-163.766-21.814-163.766" fill="#ffffff"/>
<path transform="matrix(1,0,0,-1,974.498,166.39499)" d="M0 0C-23.235 0-42.14-18.903-42.14-42.139-42.14-65.374-23.235-84.277 0-84.277 23.235-84.277 42.139-65.374 42.139-42.139 42.139-18.903 23.235 0 0 0M0-130C-48.447-130-87.861-90.586-87.861-42.139-87.861 6.309-48.447 45.723 0 45.723 48.446 45.723 87.86 6.309 87.86-42.139 87.86-90.586 48.446-130 0-130" fill="#ffffff"/>
<path transform="matrix(1,0,0,-1,64.9996,105.0141)" d="M0 0C0 41.25 62.66 41.25 62.66 0V-143.486C62.66-180.439 85.613-201.705 115.372-201.705V-201.821C144.669-201.821 168.112-180.598 168.112-143.472V-78.145C168.112-36.896 230.772-36.896 230.772-78.145V-143.472C230.772-180.612 254.216-201.821 283.513-201.821V-201.706C313.271-201.706 336.225-180.439 336.225-143.486V0C336.225 41.25 398.885 41.25 398.885 0V-143.486C398.885-218.689 345.105-264.365 283.513-264.365V-264.235C250.914-264.222 220.752-251.591 199.442-228.768 178.133-251.605 147.971-264.235 115.372-264.235V-264.365C53.778-264.365 0-218.704 0-143.486Z" fill="#fdfa46"/>
<path transform="matrix(1,0,0,-1,432.5542,34.07669)" d="M0 0C-17.922 0-34.943-6.276-47.926-17.672-63.019-30.919-71.33-49.836-71.33-70.938V-214.424C-71.33-221.42-72.85-227.029-75.499-229.812-77.288-231.691-80.162-232.644-84.042-232.644-84.631-232.644-85.219-232.656-85.802-232.682-88.707-232.416-90.958-231.466-92.508-229.847-95.224-227.01-96.782-221.384-96.782-214.409V-149.082C-96.782-127.98-105.094-109.064-120.187-95.817-133.169-84.421-150.19-78.145-168.112-78.145-186.035-78.145-203.055-84.421-216.038-95.817-231.131-109.064-239.442-127.98-239.442-149.082V-214.409C-239.442-221.379-241.001-227.005-243.719-229.844-245.269-231.463-247.517-232.414-250.416-232.681-251.002-232.655-251.591-232.643-252.183-232.643-256.063-232.643-258.937-231.69-260.726-229.811-263.375-227.028-264.895-221.42-264.895-214.424V-70.938C-264.895-49.836-273.206-30.919-288.298-17.672-301.282-6.276-318.302 0-336.225 0-354.147 0-371.167-6.276-384.151-17.672-399.243-30.919-407.555-49.836-407.555-70.938V-214.424C-407.555-237.794-403.423-259.867-395.276-280.03-387.338-299.674-375.816-317.015-361.03-331.573-332.389-359.773-293.732-375.303-252.183-375.303-250.926-375.303-249.685-375.245-248.458-375.132-228.182-374.683-208.667-370.563-190.392-362.869-182.578-359.579-175.138-355.698-168.105-351.248-161.076-355.693-153.642-359.57-145.833-362.858-127.564-370.55-108.053-374.673-87.784-375.13-86.551-375.244-85.304-375.303-84.042-375.303-42.494-375.303-3.837-359.77 24.806-331.567 39.591-317.008 51.113-299.667 59.051-280.025 67.199-259.863 71.33-237.791 71.33-214.424V-70.938C71.33-49.836 63.019-30.919 47.926-17.672 34.943-6.276 17.922 0 0 0M0-40C15.665-40 31.33-50.313 31.33-70.938V-214.424C31.33-289.627-22.449-335.303-84.042-335.303V-335.173C-116.641-335.159-146.803-322.528-168.112-299.705-189.422-322.543-219.584-335.173-252.183-335.173V-335.303C-313.776-335.303-367.555-289.642-367.555-214.424V-70.938C-367.555-50.313-351.89-40-336.225-40-320.56-40-304.895-50.313-304.895-70.938V-214.424C-304.895-251.377-281.941-272.643-252.183-272.643V-272.759C-222.886-272.759-199.442-251.535-199.442-214.409V-149.082C-199.442-128.458-183.777-118.145-168.112-118.145-152.447-118.145-136.782-128.458-136.782-149.082V-214.409C-136.782-251.55-113.339-272.759-84.042-272.759V-272.644C-54.283-272.644-31.33-251.377-31.33-214.424V-70.938C-31.33-50.313-15.665-40 0-40" fill="#151e11"/>
<path transform="matrix(1,0,0,-1,569.5836,105.0141)" d="M0 0V-232.113C0-273.362-62.66-273.362-62.66-232.113V0C-62.66 41.25-.015 41.25 0 0" fill="#fdfa46"/>
<path transform="matrix(1,0,0,-1,538.248,34.07669)" d="M0 0C-17.923 0-34.943-6.277-47.926-17.675-63.015-30.922-71.325-49.837-71.325-70.938V-303.051C-71.325-324.152-63.013-343.069-47.92-356.316-34.938-367.711-17.917-373.988 .005-373.988 17.928-373.988 34.948-367.711 47.932-356.316 63.024-343.069 71.335-324.152 71.335-303.051V-70.938C71.328-49.826 63.014-30.914 47.924-17.671 34.94-6.275 17.92 0 0 0M0-40C15.663-40 31.328-50.313 31.335-70.938V-303.051C31.335-323.675 15.67-333.988 .005-333.988-15.66-333.988-31.325-323.675-31.325-303.051V-70.938C-31.325-50.313-15.664-40 0-40" fill="#151e11"/>
<path transform="matrix(1,0,0,-1,666.4136,78.68689)" d="M0 0 134.966-102.208V-26.327C134.966 14.923 197.626 14.923 197.626-26.327V-258.44C197.626-299.689 134.966-299.689 134.966-258.44V-180.699L12.486-87.935V-258.426C12.486-299.675-50.174-299.675-50.174-258.426L-50.116-24.496C-49.771 .346-20.646 15.614 0 0" fill="#fdfa46"/>
<path transform="matrix(1,0,0,-1,647.9097,32.366914)" d="M0 0V0H-.005C-18.229-.001-35.666-6.92-49.101-19.481-63.345-32.798-71.338-50.831-71.608-70.259-71.611-70.442-71.612-70.624-71.612-70.806L-71.67-304.736C-71.67-325.847-63.358-344.764-48.266-358.011-35.282-369.406-18.262-375.683-.34-375.683 17.583-375.683 34.603-369.406 47.586-358.011 62.679-344.764 70.99-325.847 70.99-304.746V-214.728L113.47-246.902V-304.76C113.47-325.862 121.781-344.779 136.874-358.025 149.857-369.421 166.877-375.697 184.8-375.697 202.722-375.697 219.743-369.421 232.726-358.025 247.818-344.778 256.13-325.862 256.13-304.76V-72.647C256.13-51.546 247.818-32.629 232.726-19.382 219.743-7.986 202.722-1.71 184.8-1.71 166.877-1.71 149.857-7.986 136.873-19.382 122.86-31.682 114.692-48.87 113.597-68.157L42.652-14.432C30.162-4.986 15.418 0 0 0M-.002-40C6.287-40 12.726-41.95 18.504-46.32L153.47-148.528V-72.647C153.47-52.022 169.135-41.71 184.8-41.71 200.465-41.71 216.13-52.022 216.13-72.647V-304.76C216.13-325.385 200.465-335.697 184.8-335.697 169.135-335.697 153.47-325.385 153.47-304.76V-227.019L30.99-134.255V-304.746C30.99-325.37 15.325-335.683-.34-335.683-16.005-335.683-31.67-325.37-31.67-304.746L-31.612-70.816C-31.363-52.926-16.187-40.001-.002-40" fill="#151e11"/>
<path transform="matrix(1,0,0,-1,948.7598,157.6803)" d="M0 0C10.843 0 20.044 7.287 22.85 17.959 25.941 28.524 35.884 46.248 67.719 46.248H79.694C106.338 46.248 118.471 26.356 118.471 7.873 118.471-1.919 115.114-10.938 109.015-17.524 102.112-24.979 91.973-28.92 79.694-28.92H77.524C64.993-28.92 54.406-39.317 54.406-51.623 54.406-64.37 64.777-74.74 77.573-74.74L87.953-74.326C112.088-74.326 132.341-65.76 146.515-49.552 159.022-35.252 165.91-15.872 165.91 5.02 165.91 48.072 136.295 91.655 79.694 91.655H67.719C21.561 91.655-12.291 68.731-22.856 30.323-24.997 23.245-23.675 15.733-19.217 9.698-14.666 3.535-7.662 0 0 0" fill="#f85714"/>
<path transform="matrix(1,0,0,-1,1028.4541,26.025605)" d="M0 0H-11.975C-76.079 0-125.476-34.586-141-90.3-146.603-109.421-143.003-129.588-131.087-145.721-118.917-162.201-100.184-171.655-79.694-171.655-74.285-171.655-68.915-170.954-63.723-169.601-64.753-174.075-65.288-178.665-65.288-183.278-65.288-218.08-36.952-246.394-2.121-246.394-1.59-246.394-1.06-246.384-.529-246.363L9.123-245.978C26.196-245.875 42.251-242.691 56.859-236.511 72.376-229.946 85.858-220.199 96.93-207.539 115.816-185.945 126.216-157.213 126.216-126.635 126.216-94.342 114.853-63.783 94.22-40.588 82.867-27.824 69.186-17.841 53.558-10.914 37.22-3.672 19.2 0 0 0M0-40C56.6-40 86.216-83.583 86.216-126.635 86.216-147.526 79.327-166.906 66.821-181.207 52.646-197.414 32.394-205.981 8.259-205.981L-2.121-206.394C-14.917-206.394-25.288-196.024-25.288-183.278-25.288-170.971-14.701-160.574-2.17-160.574H0C12.279-160.574 22.417-156.633 29.32-149.178 35.42-142.593 38.777-133.573 38.777-123.781 38.777-105.299 26.644-85.406 0-85.406H-11.975C-43.81-85.406-53.753-103.13-56.844-113.696-59.65-124.367-68.851-131.655-79.694-131.655-87.356-131.655-94.36-128.12-98.912-121.957-103.369-115.922-104.692-108.41-102.55-101.332-91.985-62.923-58.133-40-11.975-40Z" fill="#151e11"/>
<path transform="matrix(1,0,0,-1,1117.4326,233.7664)" d="M0 0C-3.71 7.953-11.854 12.893-21.258 12.893-26.828 12.893-31.912 11.199-36.368 7.858L-36.731 7.565C-45.069 .336-47.522-10.939-42.92-21.291-36.634-34.651-37.449-50.967-44.994-62.858-50.08-70.873-60.408-80.427-80.719-80.427H-115.818C-148.411-80.427-157.889-62.818-160.661-52.227-163.547-41.844-173.123-34.592-183.952-34.592-191.279-34.592-198.075-37.944-202.598-43.79-207.21-49.75-208.763-57.384-206.827-64.844-196.145-103.292-162.123-126.247-115.818-126.247H-80.719C-46.707-126.247-19.322-112.301-3.611-86.979 12.168-61.546 13.558-27.349 0 0" fill="#f85714"/>
<path transform="matrix(1,0,0,-1,1096.1748,180.873)" d="M0 0C-14.213 0-27.736-4.507-39.107-13.034-39.48-13.313-39.849-13.6-40.212-13.892L-40.575-14.185C-40.947-14.485-41.314-14.792-41.675-15.105-63.274-33.83-69.919-64.103-58.212-90.435-58.096-90.696-57.978-90.957-57.855-91.215-57.577-91.808-57.462-92.562-57.457-93.225-57.976-93.28-58.638-93.32-59.461-93.32H-94.561C-97.889-93.32-100.066-92.997-101.366-92.698-109.601-65.989-134.565-47.486-162.694-47.486-182.493-47.486-200.82-56.496-212.976-72.206-225.221-88.029-229.345-108.286-224.289-127.78-224.231-128.002-224.171-128.224-224.11-128.445-208.566-184.388-158.926-219.14-94.561-219.14H-59.461C-36.166-219.14-14.778-214.264 4.107-204.646 23.92-194.557 39.911-179.859 51.636-160.961 63.001-142.642 69.496-121.131 70.419-98.751 71.33-76.693 66.783-54.823 57.27-35.479 52.079-24.607 43.873-15.55 33.508-9.264 23.517-3.203 11.93 0 0 0M0-40C9.403-40 17.548-44.941 21.258-52.893 34.815-80.243 33.425-114.439 17.647-139.872 1.936-165.195-25.449-179.14-59.461-179.14H-94.561C-140.865-179.14-174.887-156.185-185.57-117.737-187.505-110.277-185.952-102.644-181.34-96.684-176.817-90.838-170.021-87.486-162.694-87.486-151.865-87.486-142.289-94.737-139.404-105.12-136.631-115.711-127.153-133.32-94.561-133.32H-59.461C-39.15-133.32-28.823-123.766-23.736-115.751-16.191-103.86-15.376-87.544-21.662-74.185-26.265-63.833-23.812-52.557-15.473-45.328L-15.11-45.036C-10.654-41.695-5.57-40 0-40" fill="#151e11"/>
<path transform="matrix(1,0,0,-1,997.3587,209.5591)" d="M0 0C0-12.626-10.235-22.861-22.861-22.861-35.487-22.861-45.722-12.626-45.722 0-45.722 12.626-35.487 22.861-22.861 22.861-10.235 22.861 0 12.626 0 0" fill="#f85714"/>
<path transform="matrix(1,0,0,-1,974.498,146.69821)" d="M0 0C-34.662 0-62.861-28.199-62.861-62.861-62.861-97.522-34.662-125.722 0-125.722 34.662-125.722 62.861-97.522 62.861-62.861 62.861-28.199 34.662 0 0 0M0-40C12.625-40 22.861-50.235 22.861-62.861 22.861-75.487 12.625-85.722 0-85.722-12.626-85.722-22.861-75.487-22.861-62.861-22.861-50.235-12.626-40 0-40" fill="#151e11"/>
<path transform="matrix(1,0,0,-1,948.7598,157.6803)" d="M0 0C10.843 0 20.044 7.287 22.85 17.959 25.941 28.524 35.884 46.248 67.719 46.248H79.694C106.338 46.248 118.471 26.356 118.471 7.873 118.471-1.919 115.114-10.938 109.015-17.524 102.112-24.979 91.973-28.92 79.694-28.92H77.524C64.993-28.92 54.406-39.317 54.406-51.623 54.406-64.37 64.777-74.74 77.573-74.74L87.953-74.326C112.088-74.326 132.341-65.76 146.515-49.552 159.022-35.252 165.91-15.872 165.91 5.02 165.91 48.072 136.295 91.655 79.694 91.655H67.719C21.561 91.655-12.291 68.731-22.856 30.323-24.997 23.245-23.675 15.733-19.217 9.698-14.666 3.535-7.662 0 0 0" fill="#fdfa46"/>
<path transform="matrix(1,0,0,-1,1117.4326,233.7664)" d="M0 0C-3.71 7.953-11.854 12.893-21.258 12.893-26.828 12.893-31.912 11.199-36.368 7.858L-36.731 7.565C-45.069 .336-47.522-10.939-42.92-21.291-36.634-34.651-37.449-50.967-44.994-62.858-50.08-70.873-60.408-80.427-80.719-80.427H-115.818C-148.411-80.427-157.889-62.818-160.661-52.227-163.547-41.844-173.123-34.592-183.952-34.592-191.279-34.592-198.075-37.944-202.598-43.79-207.21-49.75-208.763-57.384-206.827-64.844-196.145-103.292-162.123-126.247-115.818-126.247H-80.719C-46.707-126.247-19.322-112.301-3.611-86.979 12.168-61.546 13.558-27.349 0 0" fill="#fdfa46"/>
<path transform="matrix(1,0,0,-1,997.3587,209.5591)" d="M0 0C0-12.626-10.235-22.861-22.861-22.861-35.487-22.861-45.722-12.626-45.722 0-45.722 12.626-35.487 22.861-22.861 22.861-10.235 22.861 0 12.626 0 0" fill="#fdfa46"/>
<path transform="matrix(1,0,0,-1,0,433.354)" d="M986.648 142.911H1058.112V179.213H986.648Z" fill="#151e11"/>
<path transform="matrix(1,0,0,-1,0,433.354)" d="M901.855 188.108H932.535V261.55403H901.855Z" fill="#151e11"/>
</g>
</svg>
