<svg xmlns="http://www.w3.org/2000/svg" xmlns:xlink="http://www.w3.org/1999/xlink" xmlns:inkscape="http://www.inkscape.org/namespaces/inkscape" version="1.1" width="1240.93" height="427.252" viewBox="0 0 1240.93 427.252">
<defs>
<clipPath id="clip_1">
<path transform="matrix(1,0,0,-1,0,427.252)" d="M0 427.252H1240.933V0H0Z"/>
</clipPath>
</defs>
<g clip-path="url(#clip_1)">
<path transform="matrix(1,0,0,-1,1050.2022,346.3916)" d="M0 0H-64.86C-87.64 0-110.001 9.297-126.211 25.507-141.872 41.168-151.229 61.699-152.559 83.32-153.973 106.309-146.354 128.562-131.104 145.979-131.017 146.08-130.928 146.181-130.84 146.28L17.294 313.396C34.21 332.423 57.463 342.862 82.833 342.862 104.898 342.862 125.657 334.867 141.54 320.299 158.404 305.343 168.671 284.805 170.514 262.24 172.435 238.738 164.629 215.073 149.098 197.317 149.013 197.221 148.927 197.123 148.842 197.026L81.358 120.8C85.438 110.688 87.685 99.65 87.685 88.095 87.685 39.52 48.35 0 0 0" fill="#ffffff"/>
<path transform="matrix(1,0,0,-1,1153.25,427.252)" d="M0 0C-48.576 0-88.096 39.334-88.096 87.683V245.206C-88.096 293.555-48.576 332.89 0 332.89 48.349 332.89 87.683 293.555 87.683 245.206V87.683C87.683 39.334 48.349 0 0 0" fill="#ffffff"/>
<path transform="matrix(1,0,0,-1,1101.543,216.39162)" d="M0 0C-23.247 0-42.159-18.912-42.159-42.159-42.159-65.406-23.247-84.319 0-84.319 23.247-84.319 42.16-65.406 42.16-42.159 42.16-18.912 23.247 0 0 0M0-130C-48.435-130-87.84-90.595-87.84-42.159-87.84 6.275-48.435 45.681 0 45.681 48.436 45.681 87.841 6.275 87.841-42.159 87.841-90.595 48.436-130 0-130" fill="#ffffff"/>
<path transform="matrix(1,0,0,-1,167.9062,243.71202)" d="M0 0ZM180.606-183.305C178.882-183.305 177.172-183.237 175.481-183.105 152.353-182.486 130.049-177.716 109.114-168.9 104.826-167.096 100.637-165.138 96.546-163.029 92.449-165.142 88.252-167.104 83.958-168.911 63.014-177.73 40.704-182.498 17.564-183.107 15.883-183.238 14.182-183.305 12.466-183.305-35.688-183.305-80.573-165.223-113.921-132.39-148.733-98.114-167.906-50.184-167.906 2.574V146.061C-167.906 174.462-156.573 200.052-135.994 218.114-118.448 233.516-95.57 241.998-71.576 241.998-47.582 241.998-24.704 233.516-7.158 218.114 13.421 200.052 24.754 174.462 24.754 146.061V132.76C27.058 135.277 29.515 137.685 32.118 139.97 49.665 155.371 72.542 163.853 96.536 163.853 120.53 163.853 143.407 155.371 160.954 139.97 163.558 137.685 166.015 135.277 168.318 132.76V146.061C168.318 174.462 179.651 200.052 200.23 218.114 217.776 233.516 240.654 241.998 264.648 241.998 288.643 241.998 311.521 233.516 329.066 218.114 349.646 200.052 360.979 174.462 360.979 146.061V2.574C360.979-50.177 341.807-98.105 306.995-132.383 273.646-165.22 228.76-183.305 180.606-183.305" fill="#ffffff"/>
<path transform="matrix(1,0,0,-1,538.2539,425.7012)" d="M0 0C-23.994 0-46.871 8.481-64.418 23.883-84.997 41.945-96.33 67.535-96.33 95.937V328.05C-96.33 356.445-85.002 382.03-64.433 400.093-46.891 415.497-24.016 423.983-.023 423.987H-.006C23.982 423.987 46.855 415.509 64.401 400.113 84.98 382.056 96.32 356.472 96.33 328.073V328.05 95.937C96.33 67.535 84.997 41.945 64.418 23.883 46.871 8.481 23.994 0 0 0" fill="#ffffff"/>
<path transform="matrix(1,0,0,-1,832.71,425.7012)" d="M0 0C-23.994 0-46.871 8.481-64.418 23.883-78.083 35.878-87.672 51.19-92.572 68.442-97.474 51.196-107.06 35.889-120.722 23.897-138.269 8.496-161.146 .015-185.14 .015-209.134 .015-232.011 8.496-249.558 23.897-270.137 41.96-281.47 67.549-281.47 95.951L-281.412 329.896C-281.412 330.193-281.41 330.489-281.406 330.785-280.899 367.158-260.133 399.752-227.21 415.847-194.469 431.851-156.104 428.164-127.088 406.221-127.077 406.212-127.065 406.204-127.055 406.195L-84.972 374.326C-79.781 383.973-72.882 392.676-64.418 400.104-46.872 415.505-23.994 423.987 0 423.987 23.994 423.987 46.872 415.505 64.418 400.104 84.997 382.041 96.33 356.451 96.33 328.05V95.937C96.33 67.534 84.997 41.945 64.418 23.883 46.871 8.481 23.994 0 0 0" fill="#ffffff"/>
<path transform="matrix(1,0,0,-1,64.9998,98.67651)" d="M0 0C0 41.25 62.66 41.25 62.66 0V-143.486C62.66-180.439 85.613-201.705 115.372-201.705V-201.821C144.669-201.821 168.112-180.598 168.112-143.472V-78.145C168.112-36.896 230.772-36.896 230.772-78.145V-143.472C230.772-180.612 254.216-201.821 283.513-201.821V-201.706C313.271-201.706 336.225-180.439 336.225-143.486V0C336.225 41.25 398.885 41.25 398.885 0V-143.486C398.885-218.689 345.105-264.365 283.513-264.365V-264.235C250.914-264.222 220.752-251.591 199.442-228.768 178.133-251.605 147.971-264.235 115.372-264.235V-264.365C53.778-264.365 0-218.704 0-143.486Z" fill="#72cbd3"/>
<path transform="matrix(1,0,0,-1,432.5547,27.739106)" d="M0 0C-17.922 0-34.943-6.276-47.926-17.672-63.019-30.919-71.33-49.836-71.33-70.938V-214.424C-71.33-221.42-72.85-227.029-75.499-229.812-77.288-231.691-80.162-232.644-84.042-232.644-84.631-232.644-85.219-232.656-85.802-232.682-88.707-232.416-90.958-231.466-92.508-229.847-95.224-227.01-96.782-221.384-96.782-214.409V-149.082C-96.782-127.98-105.094-109.064-120.187-95.817-133.169-84.421-150.19-78.145-168.112-78.145-186.035-78.145-203.055-84.421-216.038-95.817-231.131-109.064-239.442-127.98-239.442-149.082V-214.409C-239.442-221.379-241.001-227.005-243.719-229.844-245.269-231.463-247.517-232.414-250.416-232.681-251.002-232.655-251.591-232.643-252.183-232.643-256.063-232.643-258.937-231.69-260.726-229.811-263.375-227.028-264.895-221.42-264.895-214.424V-70.938C-264.895-49.836-273.206-30.919-288.298-17.672-301.282-6.276-318.302 0-336.225 0-354.147 0-371.167-6.276-384.151-17.672-399.243-30.919-407.555-49.836-407.555-70.938V-214.424C-407.555-237.794-403.423-259.867-395.276-280.03-387.338-299.674-375.816-317.015-361.03-331.573-332.389-359.773-293.732-375.303-252.183-375.303-250.926-375.303-249.685-375.245-248.458-375.132-228.182-374.683-208.667-370.563-190.392-362.869-182.578-359.579-175.138-355.698-168.105-351.248-161.076-355.693-153.642-359.57-145.833-362.858-127.564-370.55-108.053-374.673-87.784-375.13-86.551-375.244-85.304-375.303-84.042-375.303-42.494-375.303-3.837-359.77 24.806-331.567 39.591-317.008 51.113-299.667 59.051-280.025 67.199-259.863 71.33-237.791 71.33-214.424V-70.938C71.33-49.836 63.019-30.919 47.926-17.672 34.943-6.276 17.922 0 0 0M0-40C15.665-40 31.33-50.313 31.33-70.938V-214.424C31.33-289.627-22.449-335.303-84.042-335.303V-335.173C-116.641-335.159-146.803-322.528-168.112-299.705-189.422-322.543-219.584-335.173-252.183-335.173V-335.303C-313.776-335.303-367.555-289.642-367.555-214.424V-70.938C-367.555-50.313-351.89-40-336.225-40-320.56-40-304.895-50.313-304.895-70.938V-214.424C-304.895-251.377-281.941-272.643-252.183-272.643V-272.759C-222.886-272.759-199.442-251.535-199.442-214.409V-149.082C-199.442-128.458-183.777-118.145-168.112-118.145-152.447-118.145-136.782-128.458-136.782-149.082V-214.409C-136.782-251.55-113.339-272.759-84.042-272.759V-272.644C-54.283-272.644-31.33-251.377-31.33-214.424V-70.938C-31.33-50.313-15.665-40 0-40" fill="#151e11"/>
<path transform="matrix(1,0,0,-1,569.5838,98.67651)" d="M0 0V-232.113C0-273.362-62.66-273.362-62.66-232.113V0C-62.66 41.25-.015 41.25 0 0" fill="#72cbd3"/>
<path transform="matrix(1,0,0,-1,538.2485,27.739106)" d="M0 0C-17.923 0-34.943-6.277-47.926-17.675-63.015-30.922-71.325-49.837-71.325-70.938V-303.051C-71.325-324.152-63.013-343.069-47.92-356.316-34.938-367.711-17.917-373.988 .005-373.988 17.928-373.988 34.948-367.711 47.932-356.316 63.024-343.069 71.335-324.152 71.335-303.051V-70.938C71.328-49.826 63.014-30.914 47.924-17.671 34.94-6.275 17.92 0 0 0M0-40C15.663-40 31.328-50.313 31.335-70.938V-303.051C31.335-323.675 15.67-333.988 .005-333.988-15.66-333.988-31.325-323.675-31.325-303.051V-70.938C-31.325-50.313-15.664-40 0-40" fill="#151e11"/>
<path transform="matrix(1,0,0,-1,666.4139,72.34943)" d="M0 0 134.966-102.208V-26.327C134.966 14.923 197.626 14.923 197.626-26.327V-258.44C197.626-299.689 134.966-299.689 134.966-258.44V-180.699L12.486-87.935V-258.426C12.486-299.675-50.174-299.675-50.174-258.426L-50.116-24.496C-49.771 .346-20.646 15.614 0 0" fill="#72cbd3"/>
<path transform="matrix(1,0,0,-1,647.9102,26.029328)" d="M0 0V0H-.005C-18.229-.001-35.666-6.92-49.101-19.481-63.345-32.798-71.338-50.831-71.608-70.259-71.611-70.442-71.612-70.624-71.612-70.806L-71.67-304.736C-71.67-325.847-63.358-344.764-48.266-358.011-35.282-369.406-18.262-375.683-.34-375.683 17.583-375.683 34.603-369.406 47.586-358.011 62.679-344.764 70.99-325.847 70.99-304.746V-214.728L113.47-246.902V-304.76C113.47-325.862 121.781-344.779 136.874-358.025 149.857-369.421 166.877-375.697 184.8-375.697 202.722-375.697 219.743-369.421 232.726-358.025 247.818-344.778 256.13-325.862 256.13-304.76V-72.647C256.13-51.546 247.818-32.629 232.726-19.382 219.743-7.986 202.722-1.71 184.8-1.71 166.877-1.71 149.857-7.986 136.873-19.382 122.86-31.682 114.692-48.87 113.597-68.157L42.652-14.432C30.162-4.986 15.418 0 0 0M-.002-40C6.287-40 12.726-41.95 18.504-46.32L153.47-148.528V-72.647C153.47-52.022 169.135-41.71 184.8-41.71 200.465-41.71 216.13-52.022 216.13-72.647V-304.76C216.13-325.385 200.465-335.697 184.8-335.697 169.135-335.697 153.47-325.385 153.47-304.76V-227.019L30.99-134.255V-304.746C30.99-325.37 15.325-335.683-.34-335.683-16.005-335.683-31.67-325.37-31.67-304.746L-31.612-70.816C-31.363-52.926-16.187-40.001-.002-40" fill="#151e11"/>
<path transform="matrix(1,0,0,-1,1050.202,235.6139)" d="M0 0H-14.326L100.173 129.334C104.203 133.941 106.227 140.077 105.73 146.173 105.247 152.092 102.501 157.438 97.99 161.256 94.148 164.964 88.646 167.085 82.833 167.085 76.188 167.085 70.348 164.465 65.936 159.502L-82.198-7.614C-90.244-16.804-89.424-30.134-80.249-39.309-76.138-43.42-70.529-45.777-64.861-45.777H0C12.509-45.777 22.685-35.418 22.685-22.683 22.685-10.175 12.509 0 0 0" fill="#f85714"/>
<path transform="matrix(1,0,0,-1,1133.0357,28.5289)" d="M0 0C-18.132 0-34.75-7.46-46.792-21.006-46.805-21.021-46.818-21.035-46.831-21.05L-194.965-188.166C-195.02-188.228-195.075-188.29-195.129-188.352-217.1-213.451-215.482-250.563-191.366-274.679-179.81-286.235-163.892-292.863-147.694-292.863H-82.833C-48.269-292.863-20.149-264.558-20.149-229.768-20.149-216.271-24.437-203.755-31.723-193.514L47.289-104.265 47.444-104.089C58.551-91.393 64.135-74.471 62.764-57.661 61.443-41.489 54.061-26.782 41.937-16.108 30.792-5.855 15.59 0 0 0M0-40C5.812-40 11.314-42.121 15.156-45.829 19.667-49.647 22.413-54.993 22.896-60.913 23.394-67.008 21.369-73.145 17.339-77.751L-97.16-207.085H-82.833C-70.324-207.085-60.149-217.26-60.149-229.768-60.149-242.503-70.324-252.863-82.833-252.863H-147.694C-153.362-252.863-158.971-250.505-163.082-246.394-172.257-237.219-173.077-223.89-165.032-214.699L-16.898-47.583C-12.486-42.62-6.645-40 0-40" fill="#151e11"/>
<path transform="matrix(1,0,0,-1,1153.2495,159.3627)" d="M0 0C-12.519 0-23.095-10.388-23.095-22.684V-180.206C-23.095-192.714-12.735-202.889 0-202.889 12.507-202.889 22.683-192.714 22.683-180.206V-22.684C22.683-10.388 12.295 0 0 0" fill="#f85714"/>
<path transform="matrix(1,0,0,-1,1153.2495,119.36282)" d="M0 0C-16.604 0-32.327-6.461-44.271-18.194-56.234-29.944-63.095-46.16-63.095-62.684V-220.206C-63.095-254.77-34.791-282.889 0-282.889 34.563-282.889 62.683-254.77 62.683-220.206V-62.684C62.683-46.053 56.132-30.343 44.237-18.448 32.342-6.552 16.631 0 0 0M0-40C12.295-40 22.683-50.388 22.683-62.684V-220.206C22.683-232.714 12.507-242.889 0-242.889-12.735-242.889-23.095-232.714-23.095-220.206V-62.684C-23.095-50.388-12.519-40 0-40" fill="#151e11"/>
<path transform="matrix(1,0,0,-1,1124.3834,258.5512)" d="M0 0C0-12.614-10.226-22.84-22.84-22.84-35.455-22.84-45.68-12.614-45.68 0-45.68 12.614-35.455 22.84-22.84 22.84-10.226 22.84 0 12.614 0 0" fill="#f85714"/>
<path transform="matrix(1,0,0,-1,1101.543,195.71102)" d="M0 0C-34.65 0-62.84-28.19-62.84-62.84-62.84-97.49-34.65-125.68 0-125.68 34.65-125.68 62.84-97.49 62.84-62.84 62.84-28.19 34.65 0 0 0M0-40C12.615-40 22.84-50.226 22.84-62.84 22.84-75.455 12.615-85.68 0-85.68-12.614-85.68-22.84-75.455-22.84-62.84-22.84-50.226-12.614-40 0-40" fill="#151e11"/>
<path transform="matrix(1,0,0,-1,1050.202,235.6139)" d="M0 0H-14.326L100.173 129.334C104.203 133.941 106.227 140.077 105.73 146.173 105.247 152.092 102.501 157.438 97.99 161.256 94.148 164.964 88.646 167.085 82.833 167.085 76.188 167.085 70.348 164.465 65.936 159.502L-82.198-7.614C-90.244-16.804-89.424-30.134-80.249-39.309-76.138-43.42-70.529-45.777-64.861-45.777H0C12.509-45.777 22.685-35.418 22.685-22.683 22.685-10.175 12.509 0 0 0" fill="#72cbd3"/>
<path transform="matrix(1,0,0,-1,1153.2495,159.3627)" d="M0 0C-12.519 0-23.095-10.388-23.095-22.684V-180.206C-23.095-192.714-12.735-202.889 0-202.889 12.507-202.889 22.683-192.714 22.683-180.206V-22.684C22.683-10.388 12.295 0 0 0" fill="#72cbd3"/>
<path transform="matrix(1,0,0,-1,1124.3834,258.5512)" d="M0 0C0-12.614-10.226-22.84-22.84-22.84-35.455-22.84-45.68-12.614-45.68 0-45.68 12.614-35.455 22.84-22.84 22.84-10.226 22.84 0 12.614 0 0" fill="#72cbd3"/>
</g>
</svg>
