<svg xmlns="http://www.w3.org/2000/svg" xmlns:xlink="http://www.w3.org/1999/xlink" xmlns:inkscape="http://www.inkscape.org/namespaces/inkscape" version="1.1" width="1279.17" height="427.017" viewBox="0 0 1279.17 427.017">
<defs>
<clipPath id="clip_1">
<path transform="matrix(1,0,0,-1,0,427.017)" d="M0 427.017H1279.172V0H0Z"/>
</clipPath>
</defs>
<g clip-path="url(#clip_1)">
<path transform="matrix(1,0,0,-1,65,97.651798)" d="M0 0C0 41.25 62.66 41.25 62.66 0V-143.486C62.66-180.439 85.613-201.705 115.372-201.705V-201.821C144.669-201.821 168.112-180.598 168.112-143.472V-78.145C168.112-36.896 230.772-36.896 230.772-78.145V-143.472C230.772-180.612 254.216-201.821 283.513-201.821V-201.706C313.271-201.706 336.225-180.439 336.225-143.486V0C336.225 41.25 398.885 41.25 398.885 0V-143.486C398.885-218.689 345.105-264.365 283.513-264.365V-264.235C250.914-264.222 220.752-251.591 199.442-228.768 178.133-251.605 147.971-264.235 115.372-264.235V-264.365C53.778-264.365 0-218.704 0-143.486Z" fill="#ffffff"/>
<path transform="matrix(1,0,0,-1,167.9062,243.7123)" d="M0 0ZM180.606-183.305C178.882-183.305 177.172-183.237 175.481-183.105 152.353-182.486 130.049-177.716 109.114-168.9 104.826-167.096 100.637-165.138 96.546-163.029 92.449-165.142 88.252-167.104 83.958-168.911 63.014-177.73 40.704-182.498 17.564-183.107 15.883-183.238 14.182-183.305 12.466-183.305-35.688-183.305-80.573-165.223-113.921-132.39-148.733-98.114-167.906-50.184-167.906 2.574V146.061C-167.906 174.462-156.573 200.052-135.994 218.114-118.448 233.516-95.57 241.998-71.576 241.998-47.582 241.998-24.704 233.516-7.158 218.114 13.421 200.052 24.754 174.462 24.754 146.061V132.76C27.058 135.277 29.515 137.685 32.118 139.97 49.665 155.371 72.542 163.853 96.536 163.853 120.53 163.853 143.407 155.371 160.954 139.97 163.558 137.685 166.015 135.277 168.318 132.76V146.061C168.318 174.462 179.651 200.052 200.23 218.114 217.776 233.516 240.654 241.998 264.648 241.998 288.643 241.998 311.521 233.516 329.066 218.114 349.646 200.052 360.979 174.462 360.979 146.061V2.574C360.979-50.177 341.807-98.105 306.995-132.383 273.646-165.22 228.76-183.305 180.606-183.305" fill="#ffffff"/>
<path transform="matrix(1,0,0,-1,569.584,97.651798)" d="M0 0V-232.113C0-273.362-62.66-273.362-62.66-232.113V0C-62.66 41.25-.015 41.25 0 0" fill="#ffffff"/>
<path transform="matrix(1,0,0,-1,538.2539,425.7016)" d="M0 0C-23.994 0-46.871 8.481-64.418 23.883-84.997 41.945-96.33 67.534-96.33 95.937V328.05C-96.33 356.445-85.002 382.03-64.433 400.093-46.891 415.497-24.016 423.983-.023 423.987H-.006C23.982 423.987 46.855 415.509 64.401 400.113 84.98 382.056 96.32 356.472 96.33 328.073V328.05 95.937C96.33 67.534 84.997 41.945 64.418 23.883 46.871 8.481 23.994 0 0 0" fill="#ffffff"/>
<path transform="matrix(1,0,0,-1,666.4141,71.324588)" d="M0 0 134.966-102.208V-26.327C134.966 14.923 197.626 14.923 197.626-26.327V-258.44C197.626-299.689 134.966-299.689 134.966-258.44V-180.699L12.486-87.935V-258.426C12.486-299.675-50.174-299.675-50.174-258.426L-50.116-24.496C-49.771 .346-20.646 15.614 0 0" fill="#ffffff"/>
<path transform="matrix(1,0,0,-1,832.71,425.7016)" d="M0 0C-23.994 0-46.871 8.481-64.418 23.883-78.083 35.878-87.672 51.19-92.572 68.442-97.474 51.196-107.06 35.889-120.722 23.897-138.269 8.496-161.146 .015-185.14 .015-209.134 .015-232.011 8.496-249.558 23.897-270.137 41.96-281.47 67.549-281.47 95.951L-281.412 329.896C-281.412 330.193-281.41 330.489-281.405 330.785-280.899 367.158-260.133 399.752-227.21 415.847-194.47 431.852-156.104 428.164-127.088 406.221-127.077 406.212-127.065 406.204-127.055 406.195L-84.972 374.326C-79.781 383.973-72.882 392.675-64.418 400.104-46.872 415.505-23.994 423.987 0 423.987 23.994 423.987 46.872 415.505 64.418 400.104 84.997 382.041 96.33 356.452 96.33 328.05V95.937C96.33 67.534 84.997 41.945 64.418 23.883 46.871 8.481 23.994 0 0 0" fill="#ffffff"/>
<path transform="matrix(1,0,0,-1,1075.0293,291.2934)" d="M0 0C45.186-26.197 96.7 25.317 68.687 71.166 54.254 94.797 22.535 100.752-.288 87.862-24.279 72.867-49.367 90.817-49.367 113.685V193.948C-49.367 220.391-27.74 225.278-7.974 225.278H84.59C125.839 225.278 125.839 162.618 84.59 162.618H13.293V156.447C62.429 161.638 113.107 135.095 132.14 82.6 168.098-16.581 60.079-107.11-31.345-54.11-66.957-33.464-35.598 20.617 0 0" fill="#ffffff"/>
<path transform="matrix(1,0,0,-1,1042.4522,347.5404)" d="M0 0V0C.002-.001 .003-.002 .005-.003 .003-.002 .002-.001 0 0M58.191-78.448C27.584-78.449-3.219-70.415-31.367-54.097-55.92-39.863-72.361-17.243-77.666 9.597-82.189 32.482-78.061 56.51-66.04 77.253-61.53 85.035-56.067 92.084-49.833 98.248-69.919 116.328-81.79 142.289-81.79 169.932V250.195C-81.79 285.505-65.062 315.37-35.894 332.133-19.041 341.817 .747 346.525 24.604 346.525H117.167C145.569 346.525 171.158 335.192 189.221 314.613 204.622 297.066 213.104 274.189 213.104 250.195 213.104 234.352 209.405 218.993 202.458 205.336 212.134 191.959 219.987 177.104 225.824 161.001 251.644 89.787 230.683 12.282 172.425-36.452 139.189-64.254 98.866-78.446 58.191-78.448" fill="#ffffff"/>
<path transform="matrix(1,0,0,-1,264.4414,285.04139)" d="M0 0C-.202-.462-.408-.924-.616-1.383-.205-1.378 .207-1.378 .616-1.383 .407-.924 .201-.463 0 0M84.071-116.976C82.811-116.976 81.565-116.917 80.334-116.804 51.01-116.148 23.497-107.891 .008-92.972-23.487-107.903-51.011-116.161-80.349-116.805-81.573-116.918-82.815-116.976-84.069-116.976-125.619-116.976-164.275-101.445-192.917-73.246-222.919-43.707-239.441-2.103-239.441 43.903V187.39C-239.441 208.491-231.13 227.408-216.038 240.655-203.055 252.051-186.034 258.327-168.111 258.327-150.188 258.327-133.168 252.051-120.185 240.655-105.093 227.408-96.781 208.491-96.781 187.39V43.903C-96.781 25.685-88.195 25.685-84.069 25.685-83.406 25.685-82.746 25.669-82.091 25.637-77.939 26.009-71.329 28.411-71.329 43.918V109.245C-71.329 130.347-63.018 149.263-47.925 162.51-34.941 173.906-17.921 180.182 .001 180.182 17.923 180.182 34.943 173.906 47.927 162.51 63.02 149.263 71.331 130.347 71.331 109.245V43.918C71.331 28.353 77.755 25.991 82.031 25.633 82.707 25.666 83.388 25.684 84.071 25.684 88.197 25.684 96.783 25.684 96.783 43.903V187.39C96.783 208.491 105.095 227.408 120.187 240.655 133.17 252.051 150.19 258.327 168.113 258.327 186.036 258.327 203.057 252.051 216.04 240.655 231.132 227.408 239.443 208.491 239.443 187.39V43.903C239.443-2.097 222.921-43.698 192.919-73.239 164.276-101.443 125.619-116.976 84.071-116.976"/>
<path transform="matrix(1,0,0,-1,529.584,97.66058)" d="M0 0V-.009ZM8.67-303.041C-9.252-303.041-26.272-296.766-39.256-285.369-54.349-272.122-62.66-253.206-62.66-232.104V.009C-62.66 21.105-54.353 40.02-39.268 53.267-26.287 64.664-9.27 70.943 8.651 70.946H8.664C26.582 70.946 43.6 64.673 56.583 53.28 71.676 40.037 79.992 21.123 80 .023V.009-232.104C80-253.206 71.688-272.122 56.596-285.369 43.612-296.766 26.592-303.041 8.67-303.041"/>
<path transform="matrix(1,0,0,-1,642.2861,103.227909)" d="M0 0V0C.003-.003 .006-.005 .009-.007ZM14.008-10.607 14.004-23.033C15.525-21.991 17.13-21.048 18.811-20.212 20.473-19.386 22.176-18.683 23.905-18.104ZM171.793-108.236 181.754-115.78V-103.269C180.218-104.323 178.598-105.278 176.899-106.123 175.232-106.951 173.526-107.655 171.793-108.236M190.424-297.474C172.502-297.474 155.481-291.198 142.498-279.802 127.405-266.555 119.094-247.639 119.094-226.537V-168.679L76.614-136.505V-226.522C76.614-247.624 68.303-266.54 53.21-279.787 40.227-291.184 23.206-297.459 5.284-297.459-12.638-297.459-29.658-291.184-42.642-279.787-57.734-266.54-66.046-247.624-66.046-226.522L-65.988 7.417C-65.988 7.6-65.987 7.781-65.984 7.964-65.61 34.86-50.215 58.98-25.807 70.913-1.58 82.757 26.799 80.035 48.256 63.807 48.263 63.802 48.27 63.797 48.276 63.791L119.221 10.066C120.316 29.353 128.484 46.541 142.497 58.842 155.48 70.237 172.501 76.514 190.424 76.514 208.347 76.514 225.367 70.237 238.351 58.842 253.442 45.594 261.754 26.678 261.754 5.576V-226.537C261.754-247.639 253.442-266.555 238.35-279.802 225.366-291.198 208.346-297.474 190.424-297.474"/>
<path transform="matrix(1,0,0,-1,1070.21,247.6147)" d="M0 0C8.514-1.421 16.906-4.454 24.866-9.065 24.872-9.068 24.877-9.071 24.882-9.074 29.648-11.837 34.078-11.174 38.054-7.105 44.03-.99 40.524 4.747 39.373 6.632 36.607 11.159 29.164 11.888 24.575 9.555 16.75 4.844 8.443 1.654 0 0M30.22-153.45C3.642-153.45-22.614-146.292-46.587-132.395-64.824-121.821-77.009-105.161-80.898-85.481-84.244-68.553-81.144-50.698-72.167-35.207-63.192-19.719-49.245-8.15-32.896-2.633-30.229-1.732-27.529-1.003-24.813-.444-32.7 .83-40.411 3.473-47.667 7.494-70.416 20.102-84.548 44.056-84.548 70.006V150.27C-84.548 176.385-72.391 198.35-51.194 210.531-38.235 217.979-22.521 221.6-3.154 221.6H89.409C110.511 221.6 129.427 213.288 142.674 198.195 154.07 185.212 160.346 168.191 160.346 150.27 160.346 132.984 154.508 116.537 143.869 103.742 157.168 89.144 167.552 71.896 174.563 52.555 186.009 20.987 187.106-12.15 177.739-43.277 169.099-71.99 152.115-97.553 128.626-117.202 105.139-136.851 76.983-149.047 47.203-152.475 41.541-153.126 35.872-153.45 30.22-153.45"/>
<path transform="matrix(1,0,0,-1,65,97.651798)" d="M0 0C0 41.25 62.66 41.25 62.66 0V-143.486C62.66-180.439 85.613-201.705 115.372-201.705V-201.821C144.669-201.821 168.112-180.598 168.112-143.472V-78.145C168.112-36.896 230.772-36.896 230.772-78.145V-143.472C230.772-180.612 254.216-201.821 283.513-201.821V-201.706C313.271-201.706 336.225-180.439 336.225-143.486V0C336.225 41.25 398.885 41.25 398.885 0V-143.486C398.885-218.689 345.105-264.365 283.513-264.365V-264.235C250.914-264.222 220.752-251.591 199.442-228.768 178.133-251.605 147.971-264.235 115.372-264.235V-264.365C53.778-264.365 0-218.704 0-143.486Z" fill="#f27beb"/>
<path transform="matrix(1,0,0,-1,96.3301,67.214298)" d="M0 0C-21.183 0-30.83-15.778-30.83-30.437V-173.924C-30.83-209.501-18.921-240.031 3.609-262.214 24.513-282.794 52.884-294.179 83.542-294.302V-294.173H84.042C116.774-294.173 146.501-281.633 167.747-258.864L168.112-258.473 168.478-258.864C189.725-281.619 219.451-294.159 252.183-294.173H252.683V-294.302C283.339-294.179 311.71-282.792 332.615-262.208 355.146-240.023 367.055-209.495 367.055-173.924V-30.437C367.055-15.778 357.407 0 336.225 0 315.042 0 305.395-15.778 305.395-30.437V-173.924C305.395-208.861 284.233-232.396 252.683-232.642V-232.759H252.183C220.338-232.759 198.942-209.109 198.942-173.909V-108.582C198.942-93.923 189.295-78.146 168.112-78.146 146.93-78.146 137.282-93.923 137.282-108.582V-173.909C137.282-209.109 115.887-232.759 84.042-232.759H83.542V-232.641C51.991-232.395 30.83-208.861 30.83-173.924V-30.437C30.83-15.778 21.183 0 0 0M252.183-295.303H251.683V-295.172C219.056-295.031 189.415-282.534 168.112-259.936 146.811-282.547 117.17-295.045 84.542-295.172V-295.303H84.042C52.927-295.303 24.113-283.805 2.907-262.926-19.818-240.552-31.83-209.774-31.83-173.924V-30.437C-31.83-8.838-15.33 1 0 1 15.33 1 31.83-8.838 31.83-30.437V-173.924C31.83-208.447 52.813-231.643 84.042-231.643H84.542V-231.757C115.511-231.509 136.282-208.325 136.282-173.909V-108.582C136.282-86.982 152.782-77.146 168.112-77.146 183.442-77.146 199.942-86.982 199.942-108.582V-173.909C199.942-208.325 220.714-231.509 251.683-231.757V-231.644H252.183C283.412-231.644 304.395-208.448 304.395-173.924V-30.437C304.395-8.838 320.895 1 336.225 1 351.555 1 368.055-8.838 368.055-30.437V-173.924C368.055-209.77 356.043-240.544 333.316-262.921 312.109-283.803 283.295-295.303 252.183-295.303" fill="#62100f"/>
<path transform="matrix(1,0,0,-1,569.584,97.651798)" d="M0 0V-232.113C0-273.362-62.66-273.362-62.66-232.113V0C-62.66 41.25-.015 41.25 0 0" fill="#f27beb"/>
<path transform="matrix(1,0,0,-1,538.25,67.214298)" d="M0 0H-.008C-21.182-.004-30.826-15.78-30.826-30.437V-262.551C-30.826-277.21-21.179-292.987 .004-292.987 21.187-292.987 30.834-277.21 30.834-262.551V-30.437C30.829-15.777 21.178 0 0 0M.004-293.987C-8.325-293.987-16.092-291.196-21.865-286.129-28.382-280.409-31.826-272.256-31.826-262.551V-30.437C-31.826-20.733-28.384-12.58-21.87-6.86-16.099-1.793-8.335 .998-.008 1H-.001C8.325 1 16.091-1.79 21.864-6.856 28.383-12.576 31.83-20.73 31.834-30.437V-262.551C31.834-272.256 28.39-280.409 21.873-286.129 16.1-291.196 8.333-293.987 .004-293.987" fill="#62100f"/>
<path transform="matrix(1,0,0,-1,666.4141,71.324588)" d="M0 0 134.966-102.208V-26.327C134.966 14.923 197.626 14.923 197.626-26.327V-258.44C197.626-299.689 134.966-299.689 134.966-258.44V-180.699L12.486-87.935V-258.426C12.486-299.675-50.174-299.675-50.174-258.426L-50.116-24.496C-49.771 .346-20.646 15.614 0 0" fill="#f27beb"/>
<path transform="matrix(1,0,0,-1,678.4004,158.2533)" d="M0 0 123.479-93.521V-171.512C123.479-186.171 133.127-201.948 154.31-201.948 175.492-201.948 185.14-186.171 185.14-171.512V60.602C185.14 75.261 175.492 91.039 154.31 91.039 133.127 91.039 123.479 75.261 123.479 60.602V-16.285L-12.288 86.53C-21.639 93.602-33.545 94.731-44.134 89.553-54.748 84.364-61.442 73.97-61.603 62.426L-61.66-171.497C-61.66-186.156-52.013-201.934-30.83-201.934-9.647-201.934 0-186.156 0-171.497ZM154.31-202.948C145.98-202.948 138.214-200.157 132.44-195.09 125.924-189.37 122.479-181.217 122.479-171.512V-94.019L1-2.012V-171.497C1-181.202-2.444-189.355-8.961-195.075-14.734-200.143-22.501-202.934-30.83-202.934-39.159-202.934-46.926-200.143-52.699-195.075-59.216-189.355-62.66-181.202-62.66-171.497L-62.603 62.433C-62.437 74.362-55.528 85.096-44.573 90.451-33.635 95.799-21.34 94.63-11.685 87.327L122.479-14.273V60.602C122.479 70.308 125.924 78.461 132.44 84.181 138.214 89.248 145.98 92.039 154.31 92.039 162.639 92.039 170.405 89.248 176.179 84.181 182.695 78.461 186.14 70.308 186.14 60.602V-171.512C186.14-181.217 182.695-189.37 176.179-195.09 170.405-200.157 162.639-202.948 154.31-202.948" fill="#62100f"/>
<path transform="matrix(1,0,0,-1,1075.0293,291.2934)" d="M0 0C45.186-26.197 96.7 25.317 68.687 71.166 54.254 94.797 22.535 100.752-.288 87.862-24.279 72.867-49.367 90.817-49.367 113.685V193.948C-49.367 220.391-27.74 225.278-7.974 225.278H84.59C125.839 225.278 125.839 162.618 84.59 162.618H13.293V156.447C62.429 161.638 113.107 135.095 132.14 82.6 168.098-16.581 60.079-107.11-31.345-54.11-66.957-33.464-35.598 20.617 0 0" fill="#f27beb"/>
<path transform="matrix(1,0,0,-1,1058.6572,287.2904)" d="M0 0C-9.373 0-18.988-4.474-25.573-15.837-36.168-34.122-27.375-50.345-14.722-57.681 6.753-70.13 30.566-75.274 54.125-72.564 76.021-70.044 96.793-61.019 114.193-46.463 131.598-31.903 144.155-13.047 150.51 8.069 157.347 30.787 156.493 55.115 148.042 78.426 139.005 103.351 122.435 123.509 100.122 136.723 79.181 149.124 54.171 154.527 29.718 151.947L29.165 151.889V159.115H100.962C110.371 159.115 118.265 162.442 123.789 168.735 128.696 174.327 131.398 181.859 131.398 189.945 131.398 211.128 115.621 220.775 100.962 220.775H8.398C-19.119 220.775-32.495 210.69-32.495 189.945V109.682C-32.495 98.447-26.359 88.067-16.481 82.593-6.513 77.067 5.261 77.684 15.819 84.283 27.06 90.633 40.905 92.602 53.827 89.694 67.325 86.658 78.568 78.749 85.485 67.424 98.294 46.461 95.58 21.669 78.572 4.265 61.557-13.149 37.043-16.564 16.121-4.436 11.331-1.661 5.71 0 0 0M41.84-74.27C22.185-74.27 2.677-68.923-15.224-58.546-23.603-53.688-28.918-46.635-30.595-38.147-32.081-30.628-30.604-22.526-26.438-15.336-22.271-8.145-15.976-2.834-8.713-.383-.517 2.382 8.245 1.282 16.623-3.57 37.134-15.462 61.169-12.112 77.857 4.963 94.535 22.03 97.194 46.343 84.632 66.902 77.857 77.994 66.84 85.742 53.608 88.719 40.924 91.572 27.34 89.642 16.33 83.424 5.473 76.636-6.67 76.012-16.967 81.718-27.162 87.369-33.495 98.084-33.495 109.682V189.945C-33.495 211.363-19.792 221.775 8.398 221.775H100.962C110.667 221.775 118.82 218.331 124.54 211.814 129.607 206.041 132.398 198.274 132.398 189.945 132.398 181.616 129.607 173.85 124.54 168.076 118.82 161.56 110.667 158.115 100.962 158.115H30.165V152.999C54.663 155.461 79.664 150 100.632 137.583 123.146 124.25 139.865 103.912 148.981 78.768 157.507 55.253 158.366 30.706 151.468 7.781 145.057-13.522 132.39-32.545 114.835-47.229 97.284-61.911 76.33-71.015 54.239-73.558 50.109-74.033 45.971-74.269 41.84-74.27" fill="#62100f"/>
</g>
</svg>
