<svg width="17" height="17" viewBox="0 0 17 17" fill="none" xmlns="http://www.w3.org/2000/svg">
<path d="M14.875 8.5C14.875 8.6409 14.819 8.77602 14.7194 8.87565C14.6198 8.97528 14.4846 9.03125 14.3438 9.03125H9.03125V14.3438C9.03125 14.4846 8.97528 14.6198 8.87565 14.7194C8.77602 14.819 8.6409 14.875 8.5 14.875C8.3591 14.875 8.22398 14.819 8.12435 14.7194C8.02472 14.6198 7.96875 14.4846 7.96875 14.3438V9.03125H2.65625C2.51535 9.03125 2.38023 8.97528 2.2806 8.87565C2.18097 8.77602 2.125 8.6409 2.125 8.5C2.125 8.3591 2.18097 8.22398 2.2806 8.12435C2.38023 8.02472 2.51535 7.96875 2.65625 7.96875H7.96875V2.65625C7.96875 2.51535 8.02472 2.38023 8.12435 2.2806C8.22398 2.18097 8.3591 2.125 8.5 2.125C8.6409 2.125 8.77602 2.18097 8.87565 2.2806C8.97528 2.38023 9.03125 2.51535 9.03125 2.65625V7.96875H14.3438C14.4846 7.96875 14.6198 8.02472 14.7194 8.12435C14.819 8.22398 14.875 8.3591 14.875 8.5Z" fill="#A4F675"/>
</svg>
