<svg width="25" height="12" viewBox="0 0 25 12" fill="none" xmlns="http://www.w3.org/2000/svg">
<g id="Group 122">
<g id="Group 121">
<g id="Vector">
<path d="M0.563751 6.59642C0.187917 6.59642 0 6.49807 0 6.30137V0.395153C0 0.265191 0.029856 0.172111 0.089568 0.115911C0.14928 0.0561995 0.244117 0.0263435 0.374078 0.0263435H2.34457C2.92764 0.0263435 3.44398 0.168599 3.89357 0.453109C4.34317 0.737619 4.56797 1.27854 4.56797 2.07587C4.56797 2.62381 4.438 3.05058 4.17808 3.35616C3.91816 3.65824 3.62487 3.86196 3.29821 3.96733C2.97506 4.07271 2.68704 4.1254 2.43414 4.1254H1.44362V6.30137C1.44362 6.49807 1.25571 6.59642 0.879874 6.59642H0.563751ZM2.27608 2.88725C2.50088 2.88725 2.69231 2.82754 2.85037 2.70811C3.01194 2.58869 3.09273 2.37794 3.09273 2.07587C3.09273 1.77028 3.01194 1.55602 2.85037 1.43309C2.6888 1.31015 2.49737 1.24868 2.27608 1.24868H1.44362V2.88725H2.27608Z" fill="white"/>
<path d="M5.90622 6.59642C5.53038 6.59642 5.34247 6.49807 5.34247 6.30137V0.305585C5.34247 0.203723 5.38813 0.128205 5.47945 0.0790306C5.57078 0.0263435 5.71303 0 5.90622 0H6.40148C6.70004 0 6.89498 0.0860555 6.9863 0.258166L8.56164 3.05585L8.64067 3.19283L8.7197 3.0295L10.3056 0.258166C10.4004 0.0860555 10.5971 0 10.8957 0H11.3857C11.7615 0 11.9494 0.101862 11.9494 0.305585V6.30137C11.9494 6.49807 11.7615 6.59642 11.3857 6.59642H11.1117C10.7359 6.59642 10.5479 6.49807 10.5479 6.30137V2.41834L10.5111 2.4078L9.15174 4.83667C9.07095 4.95609 8.94626 5.01581 8.77766 5.01581H8.50896C8.42115 5.01581 8.34738 5.00176 8.28767 4.97366C8.22796 4.94204 8.17703 4.89638 8.13488 4.83667L6.77028 2.4078L6.7334 2.41834V6.30137C6.7334 6.49807 6.54724 6.59642 6.17492 6.59642H5.90622Z" fill="white"/>
<path d="M15.922 6.65964C15.353 6.65964 14.8648 6.57007 14.4573 6.39094C14.0534 6.2118 13.7443 5.95364 13.53 5.61644C13.3158 5.27573 13.2086 4.86653 13.2086 4.38883V0.305585C13.2086 0.203723 13.2543 0.128205 13.3456 0.0790306C13.437 0.0263435 13.5792 0 13.7724 0H14.0885C14.2817 0 14.4222 0.0263435 14.51 0.0790306C14.6013 0.128205 14.647 0.203723 14.647 0.305585V4.29399C14.647 4.51177 14.6997 4.70671 14.8051 4.87882C14.9139 5.05093 15.065 5.18616 15.2582 5.28451C15.4514 5.37935 15.6726 5.42676 15.922 5.42676C16.1714 5.42676 16.3927 5.37935 16.5859 5.28451C16.7826 5.18616 16.9354 5.05093 17.0443 4.87882C17.1531 4.70671 17.2076 4.51177 17.2076 4.29399V0.305585C17.2076 0.203723 17.2515 0.128205 17.3393 0.0790306C17.4306 0.0263435 17.5729 0 17.7661 0H18.0769C18.2701 0 18.4106 0.0263435 18.4984 0.0790306C18.5897 0.128205 18.6354 0.203723 18.6354 0.305585V4.38883C18.6354 4.86653 18.5283 5.27573 18.314 5.61644C18.0998 5.95364 17.7889 6.2118 17.3815 6.39094C16.9775 6.57007 16.491 6.65964 15.922 6.65964Z" fill="white"/>
<path d="M19.8314 6.59642C19.4485 6.59642 19.2571 6.52792 19.2571 6.39094C19.2571 6.3523 19.2694 6.2961 19.294 6.22234L21.3593 0.200211C21.4085 0.0667369 21.5859 0 21.8915 0H22.3762C22.6818 0 22.8591 0.0667369 22.9083 0.200211L24.9737 6.22234C24.9912 6.29259 25 6.34879 25 6.39094C25 6.46119 24.9614 6.51387 24.8841 6.549C24.8103 6.58061 24.6927 6.59642 24.5311 6.59642H24.1201C23.9726 6.59642 23.8532 6.58237 23.7619 6.55427C23.674 6.52266 23.6196 6.47172 23.5985 6.40148L23.2192 5.25817H21.0116L20.6322 6.40148C20.5936 6.53144 20.4496 6.59642 20.2002 6.59642H19.8314ZM22.8188 4.02002L22.2866 2.35511C22.255 2.27081 22.2269 2.17422 22.2023 2.06533C22.1812 1.95645 22.1619 1.85283 22.1444 1.75448H22.1075L22.0864 1.87039C22.0513 2.07763 22.0109 2.2392 21.9652 2.35511L21.412 4.02002H22.8188Z" fill="white"/>
<path d="M12.9127 11.8216C12.8621 11.8216 12.8251 11.8099 12.8016 11.7864C12.7781 11.7629 12.7664 11.7268 12.7664 11.678V8.59446C12.7664 8.54388 12.7781 8.50775 12.8016 8.48608C12.8251 8.46259 12.8621 8.45085 12.9127 8.45085H13.8854C14.337 8.45085 14.6983 8.58453 14.9693 8.85187C15.2403 9.11922 15.3757 9.54644 15.3757 10.1335C15.3757 10.7242 15.2403 11.1532 14.9693 11.4206C14.6983 11.6879 14.337 11.8216 13.8854 11.8216H12.9127ZM13.8529 11.4558C14.1781 11.4558 14.44 11.3501 14.6387 11.1388C14.8374 10.9256 14.9368 10.5905 14.9368 10.1335C14.9368 9.82643 14.8898 9.57534 14.7959 9.38025C14.7019 9.18335 14.5737 9.04064 14.4111 8.95213C14.2485 8.86181 14.0625 8.81665 13.8529 8.81665H13.1918V11.4558H13.8529Z" fill="white"/>
<path d="M17.0963 11.8487C16.6971 11.8487 16.4 11.7448 16.2049 11.5371C16.0116 11.3276 15.9149 11.0078 15.9149 10.5779C15.9149 10.1516 16.0098 9.82824 16.1995 9.60786C16.3891 9.38567 16.6682 9.27457 17.0367 9.27457C17.3655 9.27457 17.613 9.38115 17.7792 9.59431C17.9472 9.80747 18.0312 10.12 18.0312 10.5318C18.0312 10.5499 18.0212 10.5752 18.0014 10.6077C17.9833 10.6384 17.9607 10.6664 17.9336 10.6917C17.9083 10.7152 17.8866 10.7269 17.8686 10.7269H16.3485C16.3684 10.9961 16.437 11.193 16.5544 11.3176C16.6736 11.4405 16.8525 11.5019 17.0909 11.5019C17.2246 11.5019 17.3393 11.4856 17.435 11.4531C17.5326 11.4206 17.6265 11.3809 17.7168 11.3339C17.7259 11.3303 17.7394 11.3239 17.7575 11.3149C17.7756 11.3059 17.7882 11.3014 17.7954 11.3014C17.8153 11.3014 17.8379 11.3176 17.8632 11.3501C17.8903 11.3809 17.9128 11.4161 17.9309 11.4558C17.9508 11.4938 17.9607 11.5218 17.9607 11.5398C17.9607 11.5796 17.921 11.6238 17.8415 11.6726C17.762 11.7214 17.6554 11.7629 17.5218 11.7972C17.3899 11.8316 17.2481 11.8487 17.0963 11.8487ZM17.6003 10.3801C17.6003 9.8743 17.4079 9.62141 17.0232 9.62141C16.6095 9.62141 16.3846 9.8743 16.3485 10.3801H17.6003Z" fill="white"/>
<path d="M21.2177 9.27457C21.4182 9.27457 21.5943 9.33148 21.746 9.44528C21.8978 9.55908 21.9737 9.7614 21.9737 10.0522V11.7241C21.9737 11.7602 21.9583 11.7873 21.9276 11.8054C21.8969 11.8216 21.8481 11.8297 21.7813 11.8297H21.765C21.6964 11.8297 21.6467 11.8216 21.616 11.8054C21.5853 11.7873 21.5699 11.7602 21.5699 11.7241V10.0929C21.5699 9.94656 21.5302 9.83185 21.4507 9.74876C21.373 9.66566 21.2583 9.62412 21.1066 9.62412C20.9801 9.62412 20.8654 9.66115 20.7625 9.73521C20.6613 9.80747 20.5791 9.88334 20.5159 9.96282C20.5195 10.0062 20.5213 10.0387 20.5213 10.0604V11.7241C20.5213 11.7945 20.4563 11.8297 20.3262 11.8297H20.3072C20.179 11.8297 20.1149 11.7945 20.1149 11.7241V10.0929C20.1149 9.94656 20.0751 9.83185 19.9956 9.74876C19.918 9.66566 19.8033 9.62412 19.6515 9.62412C19.5467 9.62412 19.451 9.64941 19.3643 9.69998C19.2776 9.74876 19.2053 9.80205 19.1475 9.85985C19.0915 9.91766 19.0635 9.95017 19.0635 9.9574V11.7241C19.0635 11.7602 19.0482 11.7873 19.0175 11.8054C18.9886 11.8216 18.9407 11.8297 18.8739 11.8297H18.8522C18.7853 11.8297 18.7366 11.8216 18.7059 11.8054C18.677 11.7873 18.6625 11.7602 18.6625 11.7241V10.0333C18.6625 9.82372 18.6526 9.67289 18.6327 9.58076C18.6128 9.48683 18.6029 9.43535 18.6029 9.42631C18.6029 9.38657 18.6327 9.35857 18.6923 9.34232C18.7537 9.32425 18.8106 9.31522 18.863 9.31522C18.9082 9.31522 18.9416 9.33961 18.9633 9.38838C18.9849 9.43715 19.0003 9.48683 19.0093 9.53741C19.0202 9.58799 19.0274 9.6205 19.031 9.63495C19.1195 9.53199 19.2279 9.44618 19.3562 9.37754C19.4844 9.3089 19.6199 9.27457 19.7626 9.27457C19.9089 9.27457 20.0453 9.30438 20.1718 9.36399C20.2982 9.4218 20.3912 9.52476 20.4509 9.67289C20.5502 9.55547 20.6667 9.45973 20.8004 9.38567C20.9341 9.31161 21.0732 9.27457 21.2177 9.27457Z" fill="white"/>
<path d="M23.7187 11.8487C23.3556 11.8487 23.0783 11.7403 22.8868 11.5236C22.6971 11.305 22.6023 10.988 22.6023 10.5725C22.6023 10.157 22.6989 9.83727 22.8922 9.61328C23.0855 9.38748 23.361 9.27457 23.7187 9.27457C24.0727 9.27457 24.3437 9.38657 24.5315 9.61057C24.7194 9.83276 24.8133 10.1534 24.8133 10.5725C24.8133 10.9898 24.7203 11.3068 24.5342 11.5236C24.35 11.7403 24.0781 11.8487 23.7187 11.8487ZM23.7051 11.5019C23.9399 11.5019 24.1134 11.426 24.2253 11.2743C24.3373 11.1207 24.3933 10.8841 24.3933 10.5644C24.3933 10.2428 24.3373 10.0053 24.2253 9.85172C24.1134 9.69818 23.9399 9.62141 23.7051 9.62141C23.4721 9.62141 23.3005 9.69818 23.1903 9.85172C23.0801 10.0035 23.025 10.241 23.025 10.5644C23.025 10.8859 23.0792 11.1225 23.1876 11.2743C23.2978 11.426 23.4703 11.5019 23.7051 11.5019Z" fill="white"/>
</g>
</g>
</g>
</svg>
