<svg width="20" height="12" viewBox="0 0 20 12" fill="none" xmlns="http://www.w3.org/2000/svg">
<path d="M0.97134 6.68064C0.590707 6.68064 0.400391 6.58104 0.400391 6.38183V0.400198C0.400391 0.268577 0.430628 0.174309 0.491102 0.117391C0.551577 0.0569171 0.647624 0.0266799 0.779245 0.0266799H2.7749C3.36541 0.0266799 3.88834 0.170751 4.34368 0.458894C4.79901 0.747037 5.02668 1.29486 5.02668 2.10237C5.02668 2.65732 4.89506 3.08953 4.63182 3.39902C4.36858 3.70495 4.07154 3.91127 3.74071 4.01799C3.41344 4.12471 3.12174 4.17807 2.86561 4.17807H1.86245V6.38183C1.86245 6.58104 1.67213 6.68064 1.2915 6.68064H0.97134ZM2.70553 2.92411C2.9332 2.92411 3.12707 2.86364 3.28715 2.74269C3.45079 2.62174 3.53261 2.4083 3.53261 2.10237C3.53261 1.79289 3.45079 1.57589 3.28715 1.45139C3.12352 1.32688 2.92964 1.26463 2.70553 1.26463H1.86245V2.92411H2.70553Z" fill="white"/>
<path d="M6.38202 6.68064C6.00139 6.68064 5.81107 6.58104 5.81107 6.38183V0.309487C5.81107 0.206324 5.85732 0.129842 5.94981 0.0800396C6.0423 0.0266799 6.18637 0 6.38202 0H6.8836C7.18597 0 7.3834 0.0871543 7.47589 0.261463L9.07135 3.09487L9.15139 3.2336L9.23143 3.06819L10.8376 0.261463C10.9336 0.0871543 11.1328 0 11.4352 0H11.9314C12.3121 0 12.5024 0.103162 12.5024 0.309487V6.38183C12.5024 6.58104 12.3121 6.68064 11.9314 6.68064H11.654C11.2733 6.68064 11.083 6.58104 11.083 6.38183V2.44921L11.0457 2.43854L9.66898 4.89843C9.58716 5.01937 9.46088 5.07985 9.29013 5.07985H9.01799C8.92906 5.07985 8.85435 5.06562 8.79388 5.03716C8.73341 5.00515 8.68183 4.9589 8.63914 4.89843L7.25712 2.43854L7.21977 2.44921V6.38183C7.21977 6.58104 7.03123 6.68064 6.65415 6.68064H6.38202Z" fill="white"/>
<path d="M16.5257 6.74467C15.9494 6.74467 15.455 6.65396 15.0423 6.47254C14.6332 6.29112 14.3202 6.02965 14.1032 5.68815C13.8862 5.34309 13.7777 4.92866 13.7777 4.44487V0.309487C13.7777 0.206324 13.8239 0.129842 13.9164 0.0800396C14.0089 0.0266799 14.153 0 14.3486 0H14.6688C14.8644 0 15.0067 0.0266799 15.0957 0.0800396C15.1882 0.129842 15.2344 0.206324 15.2344 0.309487V4.34882C15.2344 4.56937 15.2878 4.76681 15.3945 4.94111C15.5048 5.11542 15.6577 5.25238 15.8534 5.35198C16.049 5.44803 16.2731 5.49606 16.5257 5.49606C16.7783 5.49606 17.0024 5.44803 17.198 5.35198C17.3973 5.25238 17.552 5.11542 17.6623 4.94111C17.7726 4.76681 17.8277 4.56937 17.8277 4.34882V0.309487C17.8277 0.206324 17.8722 0.129842 17.9611 0.0800396C18.0536 0.0266799 18.1976 0 18.3933 0H18.7081C18.9038 0 19.0461 0.0266799 19.135 0.0800396C19.2275 0.129842 19.2737 0.206324 19.2737 0.309487V4.44487C19.2737 4.92866 19.1652 5.34309 18.9482 5.68815C18.7312 6.02965 18.4164 6.29112 18.0038 6.47254C17.5947 6.65396 17.102 6.74467 16.5257 6.74467Z" fill="white"/>
<path d="M7.54557 11.9726C7.49434 11.9726 7.45684 11.9607 7.43305 11.9369C7.40927 11.9131 7.39738 11.8765 7.39738 11.8271V8.7042C7.39738 8.65297 7.40927 8.61638 7.43305 8.59443C7.45684 8.57064 7.49434 8.55875 7.54557 8.55875H8.53074C8.98811 8.55875 9.35401 8.69413 9.62843 8.9649C9.90285 9.23566 10.0401 9.66833 10.0401 10.2629C10.0401 10.8612 9.90285 11.2957 9.62843 11.5664C9.35401 11.8372 8.98811 11.9726 8.53074 11.9726H7.54557ZM8.49781 11.6021C8.82712 11.6021 9.09239 11.4951 9.29363 11.281C9.49488 11.0651 9.5955 10.7258 9.5955 10.2629C9.5955 9.9519 9.54793 9.6976 9.4528 9.50002C9.35767 9.30061 9.22777 9.15608 9.06312 9.06643C8.89847 8.97496 8.71003 8.92922 8.49781 8.92922H7.82822V11.6021H8.49781Z" fill="#F5F5F5"/>
<path d="M11.7826 12C11.3783 12 11.0774 11.8948 10.8798 11.6844C10.684 11.4722 10.5862 11.1484 10.5862 10.713C10.5862 10.2812 10.6822 9.95373 10.8743 9.73053C11.0664 9.50551 11.3491 9.39299 11.7223 9.39299C12.0552 9.39299 12.3059 9.50093 12.4742 9.71681C12.6443 9.93269 12.7294 10.2492 12.7294 10.6663C12.7294 10.6846 12.7193 10.7102 12.6992 10.7431C12.6809 10.7743 12.658 10.8026 12.6306 10.8282C12.605 10.852 12.583 10.8639 12.5647 10.8639H11.0252C11.0454 11.1365 11.1149 11.3359 11.2338 11.4621C11.3545 11.5865 11.5357 11.6487 11.7771 11.6487C11.9125 11.6487 12.0287 11.6323 12.1257 11.5993C12.2245 11.5664 12.3196 11.5262 12.4111 11.4786C12.4202 11.4749 12.4339 11.4685 12.4522 11.4594C12.4705 11.4502 12.4833 11.4457 12.4906 11.4457C12.5108 11.4457 12.5336 11.4621 12.5593 11.4951C12.5867 11.5262 12.6096 11.5618 12.6279 11.6021C12.648 11.6405 12.658 11.6689 12.658 11.6872C12.658 11.7274 12.6178 11.7722 12.5373 11.8216C12.4568 11.871 12.3489 11.9131 12.2135 11.9479C12.0799 11.9826 11.9363 12 11.7826 12ZM12.2931 10.5126C12.2931 10.0004 12.0982 9.74425 11.7085 9.74425C11.2896 9.74425 11.0618 10.0004 11.0252 10.5126H12.2931Z" fill="#F5F5F5"/>
<path d="M15.9566 9.39299C16.1597 9.39299 16.338 9.45062 16.4917 9.56588C16.6454 9.68114 16.7222 9.88604 16.7222 10.1806V11.8738C16.7222 11.9104 16.7067 11.9378 16.6756 11.9561C16.6445 11.9726 16.5951 11.9808 16.5274 11.9808H16.5109C16.4414 11.9808 16.3911 11.9726 16.36 11.9561C16.3289 11.9378 16.3133 11.9104 16.3133 11.8738V10.2217C16.3133 10.0736 16.2731 9.95739 16.1926 9.87323C16.1139 9.78908 15.9978 9.747 15.8441 9.747C15.716 9.747 15.5998 9.7845 15.4956 9.85951C15.3931 9.93269 15.3099 10.0095 15.2458 10.09C15.2495 10.1339 15.2513 10.1669 15.2513 10.1888V11.8738C15.2513 11.9451 15.1855 11.9808 15.0537 11.9808H15.0345C14.9046 11.9808 14.8397 11.9451 14.8397 11.8738V10.2217C14.8397 10.0736 14.7994 9.95739 14.7189 9.87323C14.6403 9.78908 14.5241 9.747 14.3704 9.747C14.2643 9.747 14.1674 9.77261 14.0795 9.82384C13.9917 9.87323 13.9186 9.9272 13.86 9.98575C13.8033 10.0443 13.7749 10.0772 13.7749 10.0845V11.8738C13.7749 11.9104 13.7594 11.9378 13.7283 11.9561C13.699 11.9726 13.6505 11.9808 13.5828 11.9808H13.5609C13.4932 11.9808 13.4438 11.9726 13.4127 11.9561C13.3834 11.9378 13.3688 11.9104 13.3688 11.8738V10.1614C13.3688 9.94916 13.3587 9.79639 13.3386 9.70309C13.3185 9.60796 13.3084 9.55582 13.3084 9.54667C13.3084 9.50642 13.3386 9.47807 13.399 9.4616C13.4612 9.44331 13.5188 9.43416 13.5719 9.43416C13.6176 9.43416 13.6514 9.45886 13.6734 9.50825C13.6954 9.55765 13.7109 9.60796 13.7201 9.65918C13.731 9.71041 13.7383 9.74334 13.742 9.75798C13.8317 9.6537 13.9414 9.5668 14.0713 9.49728C14.2012 9.42776 14.3384 9.39299 14.4829 9.39299C14.6311 9.39299 14.7693 9.42318 14.8973 9.48355C15.0254 9.5421 15.1196 9.64638 15.18 9.79639C15.2806 9.67748 15.3986 9.58052 15.534 9.50551C15.6694 9.4305 15.8102 9.39299 15.9566 9.39299Z" fill="#F5F5F5"/>
<path d="M18.4895 12C18.1218 12 17.841 11.8902 17.647 11.6707C17.4549 11.4493 17.3589 11.1283 17.3589 10.7075C17.3589 10.2867 17.4568 9.96288 17.6525 9.73602C17.8483 9.50734 18.1273 9.39299 18.4895 9.39299C18.8481 9.39299 19.1225 9.50642 19.3128 9.73328C19.503 9.9583 19.5982 10.283 19.5982 10.7075C19.5982 11.1301 19.5039 11.4512 19.3155 11.6707C19.1289 11.8902 18.8536 12 18.4895 12ZM18.4758 11.6487C18.7136 11.6487 18.8892 11.5719 19.0027 11.4182C19.1161 11.2627 19.1728 11.0231 19.1728 10.6992C19.1728 10.3736 19.1161 10.133 19.0027 9.97751C18.8892 9.82201 18.7136 9.74425 18.4758 9.74425C18.2398 9.74425 18.066 9.82201 17.9544 9.97751C17.8428 10.1312 17.787 10.3718 17.787 10.6992C17.787 11.0249 17.8419 11.2646 17.9516 11.4182C18.0632 11.5719 18.2379 11.6487 18.4758 11.6487Z" fill="#F5F5F5"/>
</svg>
