<svg xmlns="http://www.w3.org/2000/svg" width="281" height="123" viewBox="0 0 281 123" fill="none">

<path d="M11.3129 108.183L10.7734 107.449L20.8808 92.9726H66.3105L89.2316 61.1337H134.074L156.698 30.1035H262.013V31.1415H157.016L134.392 62.1716H89.5522L66.6311 94.0105H21.1972L11.3129 108.183Z" fill="white"/>
<path d="M260.839 48.7823C271.418 48.7823 279.994 40.2062 279.994 29.627C279.994 19.0478 271.418 10.4717 260.839 10.4717C250.26 10.4717 241.684 19.0478 241.684 29.627C241.684 40.2062 250.26 48.7823 260.839 48.7823Z" fill="white"/>
<path d="M260.838 49.3002C256.947 49.3002 253.143 48.1464 249.908 45.9846C246.672 43.8228 244.151 40.7503 242.662 37.1554C241.173 33.5605 240.783 29.6048 241.542 25.7885C242.301 21.9722 244.175 18.4668 246.926 15.7154C249.678 12.964 253.183 11.0903 256.999 10.3312C260.816 9.57204 264.771 9.96166 268.366 11.4507C271.961 12.9397 275.034 15.4613 277.196 18.6966C279.357 21.9319 280.511 25.7356 280.511 29.6267C280.511 32.2102 280.002 34.7685 279.014 37.1554C278.025 39.5423 276.576 41.7111 274.749 43.5379C272.922 45.3648 270.753 46.8139 268.366 47.8026C265.979 48.7913 263.421 49.3002 260.838 49.3002ZM260.838 10.989C257.151 10.989 253.548 12.0821 250.483 14.1301C247.418 16.1781 245.029 19.089 243.618 22.4947C242.207 25.9004 241.838 29.648 242.557 33.2635C243.277 36.8789 245.052 40.2 247.658 42.8066C250.265 45.4132 253.586 47.1883 257.201 47.9075C260.817 48.6267 264.564 48.2576 267.97 46.8469C271.376 45.4362 274.287 43.0473 276.335 39.9822C278.383 36.9171 279.476 33.3136 279.476 29.6273C279.476 24.6841 277.512 19.9434 274.017 16.448C270.521 12.9526 265.781 10.989 260.838 10.989Z" fill="white"/>
<path d="M260.839 43.3136C268.398 43.3136 274.526 37.1859 274.526 29.627C274.526 22.0681 268.398 15.9404 260.839 15.9404C253.28 15.9404 247.152 22.0681 247.152 29.627C247.152 37.1859 253.28 43.3136 260.839 43.3136Z" fill="url(#paint0_linear_351_2037)"/>
<path d="M259.534 35.4074L255.438 30.1402L257.82 28.2871L259.76 30.7812L266.312 23.8643L268.503 25.9422L259.534 35.4074Z" fill="white"/>
<path d="M19.6748 112.529C30.254 112.529 38.8301 103.953 38.8301 93.3741C38.8301 82.7949 30.254 74.2188 19.6748 74.2188C9.09565 74.2188 0.519531 82.7949 0.519531 93.3741C0.519531 103.953 9.09565 112.529 19.6748 112.529Z" fill="white"/>
<path d="M19.6735 113.047C15.7825 113.047 11.9788 111.893 8.74351 109.732C5.50822 107.57 2.98662 104.497 1.49758 100.902C0.00853421 97.3076 -0.381081 93.3519 0.378027 89.5356C1.13713 85.7193 3.01086 82.2138 5.76225 79.4624C8.51364 76.7111 12.0191 74.8373 15.8354 74.0782C19.6517 73.3191 23.6074 73.7087 27.2023 75.1978C30.7971 76.6868 33.8697 79.2084 36.0315 82.4437C38.1932 85.679 39.3471 89.4827 39.3471 93.3737C39.3471 98.5915 37.2743 103.596 33.5848 107.285C29.8953 110.975 24.8913 113.047 19.6735 113.047ZM19.6735 74.736C15.9872 74.736 12.3837 75.8291 9.31863 77.8772C6.25357 79.9252 3.86465 82.8361 2.45396 86.2418C1.04327 89.6475 0.674165 93.395 1.39333 97.0105C2.11249 100.626 3.88763 103.947 6.49425 106.554C9.10087 109.16 12.4219 110.935 16.0374 111.655C19.6529 112.374 23.4004 112.005 26.8061 110.594C30.2118 109.183 33.1227 106.794 35.1707 103.729C37.2188 100.664 38.3119 97.0607 38.3119 93.3744C38.3119 88.4312 36.3482 83.6904 32.8528 80.1951C29.3575 76.6997 24.6167 74.736 19.6735 74.736Z" fill="white"/>
<path d="M19.671 107.061C27.2299 107.061 33.3575 100.933 33.3575 93.3741C33.3575 85.8152 27.2299 79.6875 19.671 79.6875C12.1121 79.6875 5.98438 85.8152 5.98438 93.3741C5.98438 100.933 12.1121 107.061 19.671 107.061Z" fill="url(#paint1_linear_351_2037)"/>
<path d="M260.838 49.3002C256.947 49.3002 253.143 48.1464 249.908 45.9846C246.672 43.8228 244.151 40.7503 242.662 37.1554C241.173 33.5605 240.783 29.6048 241.542 25.7885C242.301 21.9722 244.175 18.4668 246.926 15.7154C249.678 12.964 253.183 11.0903 256.999 10.3312C260.816 9.57204 264.771 9.96166 268.366 11.4507C271.961 12.9397 275.034 15.4613 277.196 18.6966C279.357 21.9319 280.511 25.7356 280.511 29.6267C280.511 32.2102 280.002 34.7685 279.014 37.1554C278.025 39.5423 276.576 41.7111 274.749 43.5379C272.922 45.3648 270.753 46.8139 268.366 47.8026C265.979 48.7913 263.421 49.3002 260.838 49.3002ZM260.838 10.989C257.151 10.989 253.548 12.0821 250.483 14.1301C247.418 16.1781 245.029 19.089 243.618 22.4947C242.207 25.9004 241.838 29.648 242.557 33.2635C243.277 36.8789 245.052 40.2 247.658 42.8066C250.265 45.4132 253.586 47.1883 257.201 47.9075C260.817 48.6267 264.564 48.2576 267.97 46.8469C271.376 45.4362 274.287 43.0473 276.335 39.9822C278.383 36.9171 279.476 33.3136 279.476 29.6273C279.476 24.6841 277.512 19.9434 274.017 16.448C270.521 12.9526 265.781 10.989 260.838 10.989Z" fill="white"/>
<path d="M260.839 43.3136C268.398 43.3136 274.526 37.1859 274.526 29.627C274.526 22.0681 268.398 15.9404 260.839 15.9404C253.28 15.9404 247.152 22.0681 247.152 29.627C247.152 37.1859 253.28 43.3136 260.839 43.3136Z" fill="url(#paint2_linear_351_2037)"/>
<path d="M259.216 34.9293C255.95 35.9796 254.34 30.5625 254.34 30.5625C254.34 30.5625 254.058 29.1729 254.655 28.7094C255.253 28.246 256.725 28.7094 256.725 28.7094L258.665 31.2036L265.217 24.2866C265.217 24.2866 266.293 23.9881 266.841 24.507C267.389 25.0258 267.408 26.3626 267.408 26.3626C267.408 26.3626 262.483 33.8797 259.216 34.9293Z" fill="white"/>
<path d="M152.569 49.2999C163.149 49.2999 171.725 40.7237 171.725 30.1446C171.725 19.5654 163.149 10.9893 152.569 10.9893C141.99 10.9893 133.414 19.5654 133.414 30.1446C133.414 40.7237 141.99 49.2999 152.569 49.2999Z" fill="white"/>
<path d="M152.572 49.8187C148.681 49.8187 144.877 48.6649 141.642 46.5032C138.407 44.3414 135.885 41.2688 134.396 37.6739C132.907 34.0791 132.517 30.1234 133.276 26.3071C134.036 22.4908 135.909 18.9853 138.661 16.2339C141.412 13.4825 144.918 11.6088 148.734 10.8497C152.55 10.0906 156.506 10.4802 160.101 11.9693C163.696 13.4583 166.768 15.9799 168.93 19.2152C171.092 22.4505 172.245 26.2542 172.245 30.1452C172.245 32.7288 171.737 35.287 170.748 37.6739C169.759 40.0608 168.31 42.2296 166.483 44.0565C164.656 45.8834 162.488 47.3325 160.101 48.3212C157.714 49.3099 155.156 49.8187 152.572 49.8187ZM152.572 11.5075C148.886 11.5075 145.282 12.6006 142.217 14.6486C139.152 16.6966 136.763 19.6075 135.352 23.0133C133.942 26.419 133.573 30.1665 134.292 33.782C135.011 37.3975 136.786 40.7185 139.393 43.3251C141.999 45.9318 145.32 47.7069 148.936 48.4261C152.551 49.1452 156.299 48.7761 159.705 47.3654C163.11 45.9547 166.021 43.5658 168.069 40.5007C170.117 37.4357 171.21 33.8322 171.21 30.1458C171.21 25.2026 169.247 20.4619 165.751 16.9665C162.256 13.4712 157.515 11.5075 152.572 11.5075Z" fill="white"/>
<path d="M152.569 43.8312C160.128 43.8312 166.256 37.7035 166.256 30.1446C166.256 22.5857 160.128 16.458 152.569 16.458C145.011 16.458 138.883 22.5857 138.883 30.1446C138.883 37.7035 145.011 43.8312 152.569 43.8312Z" fill="url(#paint3_linear_351_2037)"/>
<path d="M151.264 35.925L147.168 30.6578L149.55 28.8047L151.49 31.2988L158.042 24.3818L160.234 26.4598L151.264 35.925Z" fill="white"/>
<path d="M152.572 49.8187C148.681 49.8187 144.877 48.6649 141.642 46.5032C138.407 44.3414 135.885 41.2688 134.396 37.6739C132.907 34.0791 132.517 30.1234 133.276 26.3071C134.036 22.4908 135.909 18.9853 138.661 16.2339C141.412 13.4825 144.918 11.6088 148.734 10.8497C152.55 10.0906 156.506 10.4802 160.101 11.9693C163.696 13.4583 166.768 15.9799 168.93 19.2152C171.092 22.4505 172.245 26.2542 172.245 30.1452C172.245 32.7288 171.737 35.287 170.748 37.6739C169.759 40.0608 168.31 42.2296 166.483 44.0565C164.656 45.8834 162.488 47.3325 160.101 48.3212C157.714 49.3099 155.156 49.8187 152.572 49.8187ZM152.572 11.5075C148.886 11.5075 145.282 12.6006 142.217 14.6486C139.152 16.6966 136.763 19.6075 135.352 23.0133C133.942 26.419 133.573 30.1665 134.292 33.782C135.011 37.3975 136.786 40.7185 139.393 43.3251C141.999 45.9318 145.32 47.7069 148.936 48.4261C152.551 49.1452 156.299 48.7761 159.705 47.3654C163.11 45.9547 166.021 43.5658 168.069 40.5007C170.117 37.4357 171.21 33.8322 171.21 30.1458C171.21 25.2026 169.247 20.4619 165.751 16.9665C162.256 13.4712 157.515 11.5075 152.572 11.5075Z" fill="white"/>
<path d="M152.569 43.8312C160.128 43.8312 166.256 37.7035 166.256 30.1446C166.256 22.5857 160.128 16.458 152.569 16.458C145.011 16.458 138.883 22.5857 138.883 30.1446C138.883 37.7035 145.011 43.8312 152.569 43.8312Z" fill="url(#paint4_linear_351_2037)"/>
<path d="M150.77 30.8372C150.77 30.5164 150.897 30.2089 151.124 29.9821C151.351 29.7553 151.659 29.6278 151.98 29.6276C152.129 29.6277 152.277 29.6556 152.416 29.7101L154.912 27.3425V25.3087C154.912 25.2438 154.925 25.1796 154.95 25.1199C154.976 25.0602 155.013 25.0062 155.059 24.9611L157.682 22.4846C157.743 22.4256 157.821 22.3868 157.906 22.3734C157.99 22.36 158.076 22.3726 158.152 22.4097C158.23 22.4497 158.294 22.5105 158.338 22.5851C158.383 22.6597 158.406 22.7453 158.404 22.8322V24.8472H160.592C160.683 24.8492 160.771 24.8791 160.844 24.9328C160.917 24.9866 160.972 25.0616 161 25.1475C161.032 25.2352 161.037 25.33 161.016 25.4207C160.995 25.5114 160.948 25.594 160.881 25.6588L158.263 28.1296C158.183 28.2039 158.079 28.2457 157.97 28.2468H155.462L153.126 30.462C153.185 30.6431 153.2 30.8356 153.17 31.0237C153.14 31.2119 153.067 31.3903 152.955 31.5446C152.843 31.6988 152.696 31.8244 152.527 31.9111C152.357 31.9979 152.17 32.0433 151.979 32.0437C151.659 32.0435 151.352 31.9165 151.125 31.6903C150.898 31.4642 150.771 31.1574 150.77 30.8372ZM157.805 27.3186L159.442 25.7728H157.969C157.849 25.7688 157.737 25.7177 157.655 25.6307C157.573 25.5437 157.53 25.4279 157.533 25.3087V23.8661L155.787 25.5165V27.187C155.793 27.1933 155.801 27.2002 155.806 27.2072C155.838 27.2401 155.865 27.2775 155.886 27.318L157.805 27.3186Z" fill="white"/>
<path d="M151.977 34.8045C150.924 34.8045 149.915 34.3863 149.17 33.642C148.426 32.8976 148.008 31.888 148.008 30.8354C148.008 29.7827 148.426 28.7731 149.17 28.0287C149.915 27.2844 150.924 26.8662 151.977 26.8662C152.114 26.8662 152.246 26.9207 152.343 27.0178C152.44 27.1149 152.495 27.2465 152.495 27.3838C152.495 27.5211 152.44 27.6527 152.343 27.7498C152.246 27.8469 152.114 27.9014 151.977 27.9014C151.397 27.9019 150.83 28.0744 150.348 28.3972C149.865 28.7199 149.49 29.1784 149.268 29.7146C149.047 30.2508 148.989 30.8407 149.103 31.4096C149.216 31.9786 149.496 32.5011 149.907 32.911C150.317 33.321 150.84 33.6 151.409 33.7127C151.978 33.8255 152.568 33.767 153.104 33.5446C153.64 33.3222 154.098 32.9459 154.42 32.4633C154.742 31.9806 154.914 31.4133 154.913 30.8332C154.913 30.6959 154.968 30.5642 155.065 30.4672C155.162 30.3701 155.293 30.3156 155.431 30.3156C155.568 30.3156 155.7 30.3701 155.797 30.4672C155.894 30.5642 155.948 30.6959 155.948 30.8332C155.948 31.8862 155.529 32.896 154.784 33.6406C154.04 34.3852 153.03 34.8038 151.977 34.8045Z" fill="white"/>
<path d="M151.981 37.5644C151.065 37.5661 150.158 37.3808 149.316 37.0196C148.474 36.6585 147.714 36.1292 147.084 35.4642C146.453 34.7991 145.966 34.0124 145.65 33.1521C145.334 32.2919 145.198 31.3763 145.249 30.4614C145.299 29.5465 145.537 28.6516 145.945 27.8316C146.354 27.0116 146.926 26.2837 147.626 25.6925C148.326 25.1013 149.14 24.6593 150.017 24.3936C150.894 24.1279 151.816 24.0441 152.726 24.1473C152.863 24.1626 152.987 24.2314 153.073 24.3387C153.159 24.446 153.198 24.5829 153.183 24.7194C153.168 24.8558 153.099 24.9806 152.991 25.0662C152.884 25.1519 152.747 25.1915 152.611 25.1762C151.438 25.0446 150.253 25.2808 149.22 25.8521C148.187 26.4234 147.357 27.3016 146.845 28.3652C146.333 29.4288 146.164 30.6252 146.362 31.789C146.559 32.9528 147.114 34.0264 147.948 34.8613C148.783 35.6962 149.856 36.2511 151.02 36.4494C152.183 36.6476 153.38 36.4793 154.444 35.9678C155.508 35.4563 156.386 34.6268 156.958 33.5942C157.53 32.5615 157.767 31.3766 157.636 30.2035C157.628 30.1359 157.634 30.0676 157.653 30.0022C157.672 29.9369 157.703 29.876 157.746 29.8229C157.831 29.7156 157.956 29.6467 158.092 29.6314C158.229 29.6162 158.366 29.6557 158.473 29.7414C158.526 29.7838 158.57 29.8363 158.603 29.8958C158.636 29.9553 158.657 30.0207 158.665 30.0883C158.77 31.0288 158.676 31.9811 158.388 32.8827C158.1 33.7844 157.625 34.6152 156.995 35.3208C156.364 36.0264 155.591 36.591 154.727 36.9776C153.863 37.3642 152.928 37.5642 151.981 37.5644Z" fill="white"/>
<path d="M23.3615 85.999C23.5466 86.0031 23.7236 86.0753 23.8588 86.2019C23.9939 86.3284 24.0776 86.5003 24.0938 86.6847L24.0988 86.7754V88.4598C24.5489 88.2959 25.0407 88.2869 25.4964 88.4343C25.9521 88.5817 26.3456 88.8769 26.6144 89.2733C26.8969 89.68 27.0484 90.1634 27.0484 90.6586C27.0484 91.1538 26.8969 91.6372 26.6144 92.0439C26.3454 92.4399 25.952 92.7349 25.4965 92.882C25.0409 93.0291 24.5493 93.02 24.0995 92.8562V92.9884C24.0995 95.2609 23.7683 96.6078 21.6387 96.9875L21.0134 99.2045L22.6235 99.197C23.0139 99.197 24.0718 99.6321 24.0938 100.019C24.1159 100.405 23.0977 100.696 22.7085 100.744L22.6223 100.75H16.7229C16.3325 100.75 15.2746 100.406 15.2507 100.019C15.2267 99.6315 16.2493 99.2511 16.636 99.2001L16.7222 99.1945L18.6629 99.2001L18.2158 96.9849C16.148 96.6166 15.3281 95.366 15.2494 93.1603V92.9859V92.853C14.9262 92.9734 14.5785 93.0131 14.2365 92.9687C13.8944 92.9242 13.5684 92.797 13.2867 92.598C12.996 92.3918 12.7559 92.1222 12.5845 91.8098C12.413 91.4973 12.3147 91.15 12.2969 90.794V90.6586L12.3007 90.522C12.3177 90.166 12.4152 89.8186 12.5859 89.5058C12.7566 89.193 12.996 88.923 13.2861 88.7161C13.5677 88.5171 13.8936 88.3898 14.2355 88.3452C14.5774 88.3007 14.925 88.3402 15.2482 88.4604V86.7754C15.2454 86.676 15.2623 86.5771 15.2978 86.4842C15.3334 86.3913 15.3869 86.3064 15.4554 86.2343C15.5238 86.1622 15.6058 86.1043 15.6967 86.0639C15.7875 86.0235 15.8855 86.0015 15.9849 85.999H23.3615ZM14.5095 89.881C14.3113 89.8923 14.1249 89.979 13.9885 90.1233C13.8521 90.2677 13.7761 90.4588 13.7761 90.6573C13.7761 90.8559 13.8521 91.047 13.9885 91.1914C14.1249 91.3357 14.3113 91.4224 14.5095 91.4337C14.7078 91.4224 14.8942 91.3357 15.0306 91.1914C15.167 91.047 15.243 90.8559 15.243 90.6573C15.243 90.4588 15.167 90.2677 15.0306 90.1233C14.8942 89.979 14.7078 89.8923 14.5095 89.881ZM24.8362 89.881C24.681 89.8732 24.527 89.9121 24.394 89.9926C24.2611 90.0732 24.1554 90.1917 24.0905 90.333C24.0256 90.4742 24.0046 90.6316 24.03 90.785C24.0555 90.9383 24.1263 91.0805 24.2333 91.1932C24.3403 91.3059 24.4787 91.3839 24.6305 91.4172C24.7823 91.4505 24.9406 91.4376 25.085 91.38C25.2294 91.3225 25.3532 91.223 25.4405 91.0944C25.5278 90.9658 25.5746 90.814 25.5748 90.6586C25.5777 90.559 25.5609 90.4598 25.5254 90.3667C25.4898 90.2736 25.4362 90.1885 25.3676 90.1162C25.299 90.044 25.2168 89.986 25.1257 89.9456C25.0346 89.9052 24.9364 89.8832 24.8368 89.881H24.8362Z" fill="white"/>


<defs>
<linearGradient id="paint0_linear_351_2037" x1="247.152" y1="15.9404" x2="272.127" y2="48.4436" gradientUnits="userSpaceOnUse">
<stop stop-color="#2B3422"/>
<stop offset="0.3125" stop-color="#A4F675"/>
<stop offset="0.822868" stop-color="#7DAF5C"/>
</linearGradient>
<linearGradient id="paint1_linear_351_2037" x1="5.98437" y1="79.6875" x2="30.9589" y2="112.191" gradientUnits="userSpaceOnUse">
<stop stop-color="#2B3422"/>
<stop offset="0.3125" stop-color="#A4F675"/>
<stop offset="0.822868" stop-color="#7DAF5C"/>
</linearGradient>
<linearGradient id="paint2_linear_351_2037" x1="247.152" y1="15.9404" x2="272.127" y2="48.4436" gradientUnits="userSpaceOnUse">
<stop stop-color="#2B3422"/>
<stop offset="0.3125" stop-color="#A4F675"/>
<stop offset="0.822868" stop-color="#7DAF5C"/>
</linearGradient>
<linearGradient id="paint3_linear_351_2037" x1="138.883" y1="16.458" x2="163.857" y2="48.9612" gradientUnits="userSpaceOnUse">
<stop stop-color="#2B3422"/>
<stop offset="0.3125" stop-color="#A4F675"/>
<stop offset="0.822868" stop-color="#7DAF5C"/>
</linearGradient>
<linearGradient id="paint4_linear_351_2037" x1="138.883" y1="16.458" x2="163.857" y2="48.9612" gradientUnits="userSpaceOnUse">
<stop stop-color="#2B3422"/>
<stop offset="0.3125" stop-color="#A4F675"/>
<stop offset="0.822868" stop-color="#7DAF5C"/>
</linearGradient>
</defs>
</svg>