<svg width="41" height="41" viewBox="0 0 41 41" fill="none" xmlns="http://www.w3.org/2000/svg">
<g clip-path="url(#clip0_223_68411)">
<mask id="mask0_223_68411" style="mask-type:alpha" maskUnits="userSpaceOnUse" x="0" y="0" width="41" height="41">
<path d="M41 20.5C41 9.17816 31.8218 0 20.5 0C9.17816 0 0 9.17816 0 20.5C0 31.8218 9.17816 41 20.5 41C31.8218 41 41 31.8218 41 20.5Z" fill="white"/>
</mask>
<g mask="url(#mask0_223_68411)">
<path d="M41 0H0V41H41V0Z" fill="#F5F5F5"/>
<path d="M46.3214 -1.20664L13.7658 2.79068C9.27085 3.34259 6.07437 7.43391 6.62628 11.9289L10.6236 44.4844C11.1755 48.9794 15.2668 52.1759 19.7618 51.624L52.3173 47.6266C56.8123 47.0747 60.0088 42.9834 59.4569 38.4884L55.4596 5.93292C54.9077 1.43794 50.8163 -1.75855 46.3214 -1.20664Z" fill="#F7D956"/>
<path d="M21.2539 22.9519C23.5882 23.97 25.8628 23.8508 28.0779 22.5943L21.2539 22.9519Z" fill="#18191C"/>
<path d="M21.2539 22.9519C23.5882 23.97 25.8628 23.8508 28.0779 22.5943" stroke="#18191C" stroke-width="2.22222" stroke-linecap="round"/>
<path d="M18.0527 16.277C18.0198 15.6488 17.6112 15.1596 17.1401 15.1843C16.669 15.209 16.3138 15.7382 16.3467 16.3664C16.3796 16.9945 16.7882 17.4837 17.2593 17.459C17.7304 17.4343 18.0856 16.9051 18.0527 16.277Z" fill="#18191C"/>
<path d="M31.7011 15.5617C31.6682 14.9336 31.2596 14.4444 30.7885 14.4691C30.3174 14.4937 29.9622 15.023 29.9952 15.6511C30.0281 16.2792 30.4367 16.7684 30.9077 16.7437C31.3788 16.719 31.7341 16.1898 31.7011 15.5617Z" fill="#18191C"/>
</g>
</g>
<defs>
<clipPath id="clip0_223_68411">
<rect width="41" height="41" fill="white"/>
</clipPath>
</defs>
</svg>
