<svg width="15" height="15" viewBox="0 0 15 15" fill="none" xmlns="http://www.w3.org/2000/svg">
<path d="M12.2012 0.263672L14.2295 2.28125C14.4225 2.47317 14.4224 2.78458 14.2295 2.97656L12.2012 4.99414L12.1133 5.08203L12.0254 4.99414L11.5039 4.47656L11.415 4.3877L11.5039 4.29883L12.6885 3.12109H11.8164C8.07439 3.12109 6.11212 7.65935 8.80957 10.3408C9.58179 11.1086 10.6468 11.584 11.8164 11.584H12.6885L11.5039 10.4062L11.415 10.3174L11.5039 10.2285L12.0254 9.71094L12.1133 9.62305L12.2012 9.71094L14.2305 11.7285C14.4232 11.9205 14.4234 12.232 14.2305 12.4238L12.2012 14.4414L12.1133 14.5293L12.0254 14.4414L11.5039 13.9229L11.415 13.834L11.5039 13.7461L12.6895 12.5674H11.8164C9.74377 12.5673 7.91182 11.3482 7.06543 9.54688C6.21879 11.348 4.38792 12.5674 2.31543 12.5674H0.25L0.125 12.5684V11.585H2.31543C6.05729 11.5848 8.01869 7.04664 5.32129 4.36523C4.54913 3.59749 3.48493 3.12116 2.31543 3.12109H0.125V2.1377H2.31543C4.3876 2.13779 6.2188 3.35651 7.06543 5.15723C7.91216 3.35636 9.74408 2.1377 11.8164 2.1377H12.6885L11.5039 0.958984L11.4141 0.871094L11.5039 0.782227L12.0244 0.263672L12.1133 0.175781L12.2012 0.263672Z" fill="white" stroke="white" stroke-width="0.25"/>
</svg>
