<svg width="15" height="19" viewBox="0 0 15 19" fill="none" xmlns="http://www.w3.org/2000/svg">
<path d="M1.4502 3.68213V8.23389C1.45023 10.2003 2.00199 11.9843 3.10645 13.5923C4.19465 15.1765 5.55874 16.2297 7.19922 16.769C8.84039 16.2298 10.2054 15.177 11.2939 13.5923C12.3984 11.9843 12.9502 10.2003 12.9502 8.23389V3.68213L7.20019 1.54932L1.4502 3.68213ZM14.1504 8.23389C14.1504 10.5183 13.4969 12.57 12.1904 14.3804C10.8867 16.1868 9.24699 17.4045 7.27441 18.022L7.20019 18.0454L7.125 18.022C5.15265 17.4045 3.5136 16.1866 2.20996 14.3804C0.903446 12.57 0.250037 10.5183 0.25 8.23389V2.85986L0.413086 2.79932L7.1123 0.299316L7.20019 0.26709L7.28711 0.299316L13.9873 2.79932L14.1504 2.85986V8.23389Z" fill="#0B1705" stroke="#0B1705" stroke-width="0.5"/>
</svg>
