<?xml version="1.0" encoding="UTF-8"?>
<svg id="Layer_1" data-name="Layer 1" xmlns="http://www.w3.org/2000/svg" viewBox="0 0 558.85 250.75">
  <defs>
    <style>
      .cls-1 {
        fill: #fca965;
      }
    </style>
  </defs>
  <g>
    <path class="cls-1" d="M67.53,0C106.64,0,135.05,27.68,135.05,65.68c0,30.44-18.27,54.24-45.76,62.54,3.69,2.77,8.3,4.06,13.47,4.06,8.12,0,14.02-1.66,22.51-9.22h3.32v25.83c-7.75,3.51-16.6,6.64-27.67,6.64-22.32,0-37.82-8.86-44.83-24.91C22.88,125.64,0,99.81,0,65.68,0,27.67,28.41,0,67.53,0h0ZM106.27,65.68c0-24.54-16.24-42.43-38.74-42.43s-38.74,17.9-38.74,42.43,16.24,42.43,38.74,42.43,38.74-17.9,38.74-42.43Z"/>
    <path class="cls-1" d="M150,74.91V2.95h28.41v71.95c0,20.11,9.41,33.21,26.2,33.21s26.2-13.1,26.2-33.21V2.95h28.41v71.95c0,34.32-20.48,56.46-54.61,56.46s-54.61-22.14-54.61-56.46Z"/>
    <path class="cls-1" d="M307.34,2.95v125.46h-28.41V2.95h28.41Z"/>
    <path class="cls-1" d="M391.11,0c15.68,0,29.52,4.43,40.59,12.18v29.52h-3.32c-11.25-14.39-26.38-18.45-37.27-18.45-22.51,0-38.74,17.9-38.74,42.43s16.24,42.43,38.74,42.43c10.89,0,26.01-4.06,37.27-18.45h3.32v29.52c-11.07,7.75-24.91,12.18-40.59,12.18-39.11,0-67.53-27.67-67.53-65.68S352,0,391.11,0Z"/>
    <path class="cls-1" d="M478.41,2.95v32.29c16.42-19.93,40.04-32.29,66.42-32.29v23.25c-14.02,0-26.57,4.98-36.71,12.18l23.62,42.8c6.46,11.62,14.02,23.25,20.11,23.25,1.66,0,2.58-.74,3.69-1.84h3.32v25.83c-31.18,0-39.11-9.22-58.85-45.39l-12.55-23.06c-5.17,7.93-8.3,16.05-9.04,22.88v45.57h-28.41V2.95h28.41Z"/>
  </g>
  <g>
    <path class="cls-1" d="M137.7,248.71v-50.13c-7.51,9.42-15.01,17.43-15.01,27.61h-15.27c0-10.18-7.51-18.19-15.01-27.61v50.13h-19.59v-86.52h19.59c0,13.49,13.61,25.19,22.65,39.95,9.03-14.76,22.65-26.47,22.65-39.95h19.59v86.52h-19.59Z"/>
    <path class="cls-1" d="M213.76,162.19l41.99,86.52h-21.63c-1.78-3.44-5.85-8.27-12.21-8.27-9.92,0-20.48,10.31-36.26,10.31s-26.08-16.03-10.43-46.19l22.01-42.37h16.54ZM205.49,189.8l-9.67,19.09c-4.96,9.8-12.09,24.56-2.93,24.56,7.38,0,18.32-9.03,28.88-10.31l-16.29-33.34Z"/>
    <path class="cls-1" d="M292.15,178.23v70.49h-19.59v-70.49h-28.5v-16.03h76.6v16.03h-28.5Z"/>
    <path class="cls-1" d="M369.6,160.16c10.82,0,20.36,3.05,27.99,8.4v20.36h-2.29c-7.76-9.92-18.19-12.72-25.7-12.72-15.52,0-26.72,12.34-26.72,29.26s11.2,29.26,26.72,29.26c7.51,0,17.94-2.8,25.7-12.72h2.29v20.36c-7.63,5.34-17.18,8.4-27.99,8.4-26.97,0-46.57-19.08-46.57-45.3s19.59-45.3,46.57-45.3Z"/>
    <path class="cls-1" d="M429.81,162.19v22.52c0,12.85,21.38,5.22,36.64,8.78v-31.3h19.59v86.52h-19.59v-32.7c0-12.85-21.38-5.22-36.64-8.78v41.48h-19.59v-86.52h19.59Z"/>
  </g>
</svg>