<?xml version="1.0" encoding="UTF-8"?>
<svg id="Layer_1" data-name="Layer 1" xmlns="http://www.w3.org/2000/svg" viewBox="0 0 539.85 203.19">
  <defs>
    <style>
      .cls-1 {
        fill: #ffc370;
      }
    </style>
  </defs>
  <g>
    <path class="cls-1" d="M71.21,80.99l3.69,4.61c6.83,8.86,15.31,15.87,23.25,15.87,1.66,0,2.58-.74,3.69-1.85h3.32v25.83c-24.54,0-36.9-2.03-54.61-24.91l-22.14-28.6v53.5H0V0h57.56c28.23,0,48.71,17.34,48.71,40.96,0,20.48-14.21,36.16-35.05,40.04ZM59.41,58.67c10.7,0,18.45-7.38,18.45-17.71s-8.49-17.71-20.29-17.71h-29.15v1.85c0,15.87,12.54,33.58,31,33.58Z"/>
    <path class="cls-1" d="M184.22,0l60.88,125.46h-31.36c-2.58-4.98-8.49-11.99-17.71-11.99-14.39,0-29.7,14.94-52.58,14.94s-37.82-23.25-15.13-66.97L160.23,0h23.98ZM172.23,40.04l-14.02,27.67c-7.2,14.21-17.53,35.61-4.24,35.61,10.7,0,26.57-13.1,41.88-14.94l-23.62-48.34Z"/>
    <path class="cls-1" d="M317.67,81.92c-12.36,0-23.8-4.06-32.84-11.07v54.61h-28.41V0h57.56c28.23,0,48.71,17.34,48.71,40.96s-19,40.96-45.02,40.96ZM315.83,58.67c10.7,0,18.45-7.38,18.45-17.71s-8.49-17.71-20.29-17.71h-29.15v1.85c0,15.87,12.55,33.58,31,33.58Z"/>
    <path class="cls-1" d="M405.66,0v125.46h-28.41V0h28.41Z"/>
    <path class="cls-1" d="M539.85,62.73c0,36.35-28.41,62.73-67.53,62.73h-45.02V0h45.02c39.11,0,67.53,26.38,67.53,62.73ZM472.32,102.21c22.51,0,38.74-16.6,38.74-39.48s-16.23-39.48-38.74-39.48h-16.6v78.96h16.6Z"/>
  </g>
  <g>
    <path class="cls-1" d="M31.47,147.54l26.39,54.38h-13.59c-1.12-2.16-3.68-5.2-7.68-5.2-6.24,0-12.88,6.48-22.79,6.48s-16.39-10.08-6.56-29.03l13.83-26.63h10.4ZM26.28,164.89l-6.08,12c-3.12,6.16-7.6,15.43-1.84,15.43,4.64,0,11.52-5.68,18.15-6.48l-10.24-20.95Z"/>
    <path class="cls-1" d="M96.51,172.97v-25.43h12.31v54.38h-12.31c0-14.23-10.88-28.55-21.43-39.98v39.98h-12.32v-54.38h12.32c3.92,4.32,13.83,13.51,21.43,25.43Z"/>
    <path class="cls-1" d="M130.58,147.54v54.38h-12.32v-54.38h12.32Z"/>
    <path class="cls-1" d="M180.74,201.92v-31.51c-4.72,5.92-9.44,10.96-9.44,17.35h-9.6c0-6.4-4.72-11.44-9.44-17.35v31.51h-12.32v-54.38h12.32c0,8.48,8.56,15.83,14.23,25.11,5.68-9.28,14.23-16.63,14.23-25.11h12.31v54.38h-12.31Z"/>
    <path class="cls-1" d="M228.54,147.54l26.39,54.38h-13.59c-1.12-2.16-3.68-5.2-7.68-5.2-6.24,0-12.88,6.48-22.79,6.48s-16.39-10.08-6.56-29.03l13.83-26.63h10.4ZM223.35,164.89l-6.08,12c-3.12,6.16-7.6,15.43-1.84,15.43,4.64,0,11.52-5.68,18.15-6.48l-10.24-20.95Z"/>
    <path class="cls-1" d="M259.84,147.54h12.32v44.3h22.87v10.08h-35.19v-54.38Z"/>
    <path class="cls-1" d="M348.03,146.26c6.8,0,12.79,1.92,17.59,5.28v12.79h-1.44c-4.88-6.24-11.44-8-16.15-8-9.76,0-16.79,7.76-16.79,18.39s7.04,18.39,17.59,18.39c3.12,0,5.52-.32,7.68-1.28v-18.47h12.31v24.55c-4,2.56-12.39,5.28-20.79,5.28-16.95,0-29.27-12-29.27-28.47s12.31-28.47,29.27-28.47Z"/>
    <path class="cls-1" d="M403.06,147.54l26.39,54.38h-13.59c-1.12-2.16-3.68-5.2-7.68-5.2-6.24,0-12.88,6.48-22.79,6.48s-16.39-10.08-6.56-29.03l13.83-26.63h10.4ZM397.86,164.89l-6.08,12c-3.12,6.16-7.6,15.43-1.84,15.43,4.64,0,11.52-5.68,18.15-6.48l-10.24-20.95Z"/>
    <path class="cls-1" d="M475.14,201.92v-31.51c-4.72,5.92-9.44,10.96-9.44,17.35h-9.6c0-6.4-4.72-11.44-9.44-17.35v31.51h-12.32v-54.38h12.32c0,8.48,8.56,15.83,14.23,25.11,5.68-9.28,14.23-16.63,14.23-25.11h12.31v54.38h-12.31Z"/>
    <path class="cls-1" d="M537.49,147.54v10.08h-28.31c0,7.2,8.16,10.96,25.03,10.96v10.08c-9.68,0-18.55-1.36-25.03-5.76v18.95h28.31v10.08h-40.62v-54.38h40.62Z"/>
  </g>
</svg>