<?xml version="1.0" encoding="UTF-8"?>
<svg id="Layer_1" data-name="Layer 1" xmlns="http://www.w3.org/2000/svg" viewBox="0 0 544.42 224.61">
  <defs>
    <style>
      .cls-1 {
        fill: #d2ddff;
      }
    </style>
  </defs>
  <g>
    <path class="cls-1" d="M110.84,40.96c0,20.48-14.21,36.16-35.05,40.04l3.69,4.61c6.83,8.86,15.31,15.87,23.25,15.87,1.66,0,2.58-.74,3.69-1.85h3.32v25.83c-24.54,0-36.9-2.03-54.61-24.91l-22.14-28.6v53.5H4.57V0h57.56c28.23,0,48.71,17.34,48.71,40.96h0ZM63.98,58.67c10.7,0,18.45-7.38,18.45-17.71s-8.49-17.71-20.29-17.71h-29.15v1.84c0,15.87,12.55,33.58,31,33.58Z"/>
    <path class="cls-1" d="M188.79,0l60.88,125.46h-31.37c-2.58-4.98-8.49-11.99-17.71-11.99-14.39,0-29.7,14.94-52.58,14.94s-37.82-23.25-15.13-66.97L164.8,0h23.98ZM200.41,88.37l-23.62-48.34-14.02,27.67c-7.2,14.21-17.53,35.61-4.24,35.61,10.7,0,26.57-13.1,41.88-14.94h0Z"/>
    <path class="cls-1" d="M322.24,81.92c-12.36,0-23.8-4.06-32.84-11.07v54.61h-28.41V0h57.56c28.23,0,48.71,17.34,48.71,40.96s-19,40.96-45.02,40.96ZM320.4,58.67c10.7,0,18.45-7.38,18.45-17.71s-8.49-17.71-20.29-17.71h-29.15v1.84c0,15.87,12.54,33.58,30.99,33.58Z"/>
    <path class="cls-1" d="M410.23,0v125.46h-28.41V0h28.41Z"/>
    <path class="cls-1" d="M544.42,62.73c0,36.35-28.41,62.73-67.53,62.73h-45.02V0h45.02c39.11,0,67.53,26.38,67.53,62.73ZM476.89,102.21c22.51,0,38.74-16.61,38.74-39.48s-16.24-39.48-38.74-39.48h-16.61v78.96h16.61Z"/>
  </g>
  <g>
    <path class="cls-1" d="M54.1,150.48v13.42H16.4c0,9.58,10.86,14.59,33.33,14.59v13.42c-12.89,0-24.71-1.81-33.33-7.67v38.66H0v-72.42h54.1Z"/>
    <path class="cls-1" d="M59.35,186.69c0-21.94,16.4-37.91,38.98-37.91s38.98,15.97,38.98,37.91-16.4,37.91-38.98,37.91-38.98-15.97-38.98-37.91ZM98.33,211.19c12.99,0,22.37-10.33,22.37-24.5s-9.37-24.49-22.37-24.49-22.36,10.33-22.36,24.49,9.37,24.5,22.36,24.5Z"/>
    <path class="cls-1" d="M143.64,186.69c0-21.94,16.4-37.91,38.98-37.91s38.98,15.97,38.98,37.91-16.4,37.91-38.98,37.91-38.98-15.97-38.98-37.91ZM182.62,211.19c12.99,0,22.37-10.33,22.37-24.5s-9.37-24.49-22.37-24.49-22.36,10.33-22.36,24.49,9.37,24.5,22.36,24.5Z"/>
    <path class="cls-1" d="M263.93,163.9v59h-16.4v-59h-23.86v-13.42h64.11v13.42h-23.86Z"/>
    <path class="cls-1" d="M346.31,183.5c6.92,3.3,10.86,8.95,10.86,16.93,0,13.63-11.5,22.47-29.18,22.47h-33.23v-72.42h31.1c16.4,0,27.05,7.99,27.05,19.38,0,6.6-2.45,10.86-6.6,13.63ZM326.93,177.96c6.5,0,9.58-2.77,9.58-7.03s-4.15-7.03-10.65-7.03h-14.7c0,9.16,7.24,14.06,15.76,14.06ZM340.77,200.43c0-5.75-4.69-9.05-12.78-9.05-6.18,0-11.93-1.38-16.83-4.26v22.36h16.83c8.09,0,12.78-3.3,12.78-9.05Z"/>
    <path class="cls-1" d="M401.31,150.48l35.14,72.42h-18.1c-1.49-2.88-4.9-6.92-10.22-6.92-8.31,0-17.15,8.63-30.35,8.63s-21.83-13.42-8.73-38.66l18.42-35.46h13.84ZM394.39,173.59l-8.09,15.97c-4.15,8.2-10.12,20.55-2.45,20.55,6.18,0,15.34-7.56,24.18-8.63l-13.63-27.9Z"/>
    <path class="cls-1" d="M442.98,150.48h16.4v59h30.46v13.42h-46.86v-72.42Z"/>
    <path class="cls-1" d="M496.82,150.48h16.4v59h30.46v13.42h-46.86v-72.42Z"/>
  </g>
</svg>