<?xml version="1.0" encoding="UTF-8"?>
<svg id="Layer_1" data-name="Layer 1" xmlns="http://www.w3.org/2000/svg" viewBox="0 0 539.85 218.44">
  <defs>
    <style>
      .cls-1 {
        fill: #fca965;
      }
    </style>
  </defs>
  <g>
    <path class="cls-1" d="M71.21,80.99l3.69,4.61c6.83,8.86,15.31,15.87,23.25,15.87,1.66,0,2.58-.74,3.69-1.85h3.32v25.83c-24.54,0-36.9-2.03-54.61-24.91l-22.14-28.6v53.5H0V0h57.56c28.23,0,48.71,17.34,48.71,40.96,0,20.48-14.21,36.16-35.05,40.04ZM59.41,58.67c10.7,0,18.45-7.38,18.45-17.71s-8.49-17.71-20.29-17.71h-29.15v1.84c0,15.87,12.54,33.58,31,33.58Z"/>
    <path class="cls-1" d="M184.22,0l60.88,125.46h-31.36c-2.58-4.98-8.49-11.99-17.71-11.99-14.39,0-29.7,14.94-52.58,14.94s-37.82-23.25-15.13-66.97L160.23,0h23.98ZM172.23,40.04l-14.02,27.67c-7.2,14.21-17.53,35.61-4.24,35.61,10.7,0,26.57-13.1,41.88-14.94l-23.62-48.34Z"/>
    <path class="cls-1" d="M317.67,81.92c-12.36,0-23.8-4.06-32.84-11.07v54.61h-28.41V0h57.56c28.23,0,48.71,17.34,48.71,40.96s-19,40.96-45.02,40.96ZM315.83,58.67c10.7,0,18.45-7.38,18.45-17.71s-8.49-17.71-20.29-17.71h-29.15v1.84c0,15.87,12.55,33.58,31,33.58Z"/>
    <path class="cls-1" d="M405.66,0v125.46h-28.41V0h28.41Z"/>
    <path class="cls-1" d="M539.85,62.73c0,36.35-28.41,62.73-67.53,62.73h-45.02V0h45.02c39.11,0,67.53,26.38,67.53,62.73ZM472.32,102.21c22.51,0,38.74-16.61,38.74-39.48s-16.23-39.48-38.74-39.48h-16.6v78.96h16.6Z"/>
  </g>
  <g>
    <path class="cls-1" d="M66.57,178.18v-33.87h16.4v72.42h-16.4c0-18.96-14.48-38.02-28.54-53.25v53.25h-16.4v-72.42h16.4c5.22,5.75,18.42,18,28.54,33.87Z"/>
    <path class="cls-1" d="M94.38,185.85v-41.53h16.4v41.53c0,11.61,5.43,19.17,15.12,19.17s15.12-7.56,15.12-19.17v-41.53h16.4v41.53c0,19.81-11.82,32.59-31.52,32.59s-31.52-12.78-31.52-32.59Z"/>
    <path class="cls-1" d="M223.11,216.73v-41.96c-6.28,7.88-12.57,14.59-12.57,23.11h-12.78c0-8.52-6.28-15.23-12.57-23.11v41.96h-16.4v-72.42h16.4c0,11.29,11.4,21.09,18.96,33.44,7.56-12.35,18.96-22.15,18.96-33.44h16.4v72.42h-16.4Z"/>
    <path class="cls-1" d="M310.2,163.7c0,6.6-2.45,10.86-6.6,13.63,6.92,3.3,10.86,8.95,10.86,16.93,0,13.63-11.5,22.47-29.18,22.47h-33.23v-72.42h31.1c16.4,0,27.05,7.99,27.05,19.38h0ZM284.22,171.79c6.5,0,9.59-2.77,9.59-7.03s-4.15-7.03-10.65-7.03h-14.7c0,9.16,7.24,14.06,15.76,14.06ZM285.28,203.31c8.09,0,12.78-3.3,12.78-9.05s-4.69-9.05-12.78-9.05c-6.18,0-11.93-1.38-16.83-4.26v22.36h16.83Z"/>
    <path class="cls-1" d="M377.98,144.31v13.42h-37.7c0,9.58,10.86,14.59,33.33,14.59v13.42c-12.89,0-24.71-1.81-33.33-7.67v25.24h37.7v13.42h-54.1v-72.42h54.1Z"/>
    <path class="cls-1" d="M449.66,167.96c0,11.82-8.2,20.87-20.23,23.11l2.13,2.66c3.94,5.11,8.84,9.16,13.42,9.16.96,0,1.49-.43,2.13-1.06h1.92v14.91c-14.16,0-21.3-1.17-31.52-14.38l-12.78-16.51v30.88h-16.4v-72.42h33.23c16.3,0,28.12,10.01,28.12,23.64h0ZM422.61,178.18c6.18,0,10.65-4.26,10.65-10.22s-4.9-10.22-11.71-10.22h-16.83v1.06c0,9.16,7.24,19.38,17.89,19.38Z"/>
    <path class="cls-1" d="M513.11,149.64v17.04h-1.92c-6.5-8.31-15.23-10.65-23.64-10.65-8.84,0-13.85,2.88-13.85,7.45,0,14.91,44.52,1.49,44.52,31.31,0,15.02-12.14,23.64-33.44,23.64-11.18,0-20.24-2.56-26.62-7.03v-17.04h1.92c6.5,8.31,16.3,10.65,24.71,10.65,11.82,0,18.1-3.3,18.1-8.52,0-14.91-44.52-1.49-44.52-31.31,0-14.38,10.65-22.58,29.18-22.58,11.18,0,19.17,2.56,25.56,7.03Z"/>
  </g>
</svg>