<?xml version="1.0" encoding="UTF-8"?>
<svg id="Layer_1" data-name="Layer 1" xmlns="http://www.w3.org/2000/svg" viewBox="0 0 539.85 224.61">
  <defs>
    <style>
      .cls-1 {
        fill: #db90ff;
      }
    </style>
  </defs>
  <g>
    <path class="cls-1" d="M106.27,40.96c0,20.48-14.21,36.16-35.05,40.04l3.69,4.61c6.83,8.86,15.31,15.87,23.25,15.87,1.66,0,2.58-.74,3.69-1.84h3.32v25.83c-24.54,0-36.9-2.03-54.61-24.91l-22.14-28.6v53.5H0V0h57.56c28.23,0,48.71,17.34,48.71,40.96h0ZM59.41,58.67c10.7,0,18.45-7.38,18.45-17.71s-8.49-17.71-20.29-17.71h-29.15v1.85c0,15.87,12.55,33.58,31,33.58Z"/>
    <path class="cls-1" d="M184.22,0l60.88,125.46h-31.37c-2.58-4.98-8.49-11.99-17.71-11.99-14.39,0-29.7,14.94-52.58,14.94s-37.82-23.25-15.13-66.97L160.23,0h23.98ZM195.84,88.38l-23.62-48.34-14.02,27.67c-7.2,14.21-17.53,35.61-4.24,35.61,10.7,0,26.57-13.1,41.88-14.94h0Z"/>
    <path class="cls-1" d="M317.67,81.92c-12.36,0-23.8-4.06-32.84-11.07v54.61h-28.41V0h57.56c28.23,0,48.71,17.34,48.71,40.96s-19,40.96-45.02,40.96ZM315.83,58.67c10.7,0,18.45-7.38,18.45-17.71s-8.49-17.71-20.29-17.71h-29.15v1.85c0,15.87,12.54,33.58,30.99,33.58Z"/>
    <path class="cls-1" d="M405.66,0v125.46h-28.41V0h28.41Z"/>
    <path class="cls-1" d="M539.85,62.73c0,36.35-28.41,62.73-67.53,62.73h-45.02V0h45.02c39.11,0,67.53,26.38,67.53,62.73ZM472.33,102.21c22.51,0,38.74-16.6,38.74-39.48s-16.24-39.48-38.74-39.48h-16.61v78.96h16.61Z"/>
  </g>
  <g>
    <path class="cls-1" d="M66.29,150.48h16.4v59h30.46v13.42h-46.86v-72.42Z"/>
    <path class="cls-1" d="M117.64,192.02v-41.53h16.4v41.53c0,11.61,5.43,19.17,15.12,19.17s15.12-7.56,15.12-19.17v-41.53h16.4v41.53c0,19.81-11.82,32.59-31.52,32.59s-31.52-12.78-31.52-32.59Z"/>
    <path class="cls-1" d="M204.8,222.9h-20.02l27.37-38.77-24.18-33.65h20.02l15.23,21.09,14.8-21.09h20.02l-24.81,35.04,26.94,37.38h-20.02l-17.89-24.81-17.47,24.81Z"/>
    <path class="cls-1" d="M265.85,192.02v-41.53h16.4v41.53c0,11.61,5.43,19.17,15.12,19.17s15.12-7.56,15.12-19.17v-41.53h16.4v41.53c0,19.81-11.82,32.59-31.52,32.59s-31.52-12.78-31.52-32.59Z"/>
    <path class="cls-1" d="M381.38,197.23l2.13,2.66c3.94,5.11,8.84,9.16,13.42,9.16.96,0,1.49-.43,2.13-1.07h1.92v14.91c-14.17,0-21.3-1.17-31.52-14.38l-12.78-16.51v30.88h-16.4v-72.42h33.23c16.29,0,28.12,10.01,28.12,23.64,0,11.82-8.2,20.87-20.24,23.11ZM374.56,184.35c6.18,0,10.65-4.26,10.65-10.22s-4.9-10.22-11.71-10.22h-16.83v1.06c0,9.16,7.24,19.38,17.89,19.38Z"/>
    <path class="cls-1" d="M403.36,150.48h18.53l16.72,33.87,16.72-33.87h18.53l-35.78,72.42h-18.53l9.8-19.81-25.99-52.61Z"/>
  </g>
</svg>