<?xml version="1.0" encoding="UTF-8"?>
<svg id="Layer_1" data-name="Layer 1" xmlns="http://www.w3.org/2000/svg" viewBox="0 0 539.85 224.6">
  <defs>
    <style>
      .cls-1 {
        fill: #97ffeb;
      }
    </style>
  </defs>
  <g>
    <path class="cls-1" d="M106.27,40.96c0,20.48-14.21,36.16-35.05,40.04l3.69,4.61c6.83,8.86,15.31,15.87,23.25,15.87,1.66,0,2.58-.74,3.69-1.84h3.32v25.83c-24.54,0-36.9-2.03-54.61-24.91l-22.14-28.6v53.5H0V0h57.56c28.23,0,48.71,17.34,48.71,40.96h0ZM59.41,58.67c10.7,0,18.45-7.38,18.45-17.71s-8.49-17.71-20.29-17.71h-29.15v1.85c0,15.87,12.55,33.58,31,33.58Z"/>
    <path class="cls-1" d="M184.22,0l60.88,125.46h-31.37c-2.58-4.98-8.49-11.99-17.71-11.99-14.39,0-29.7,14.95-52.58,14.95s-37.82-23.25-15.13-66.97L160.23,0h23.98ZM195.84,88.37l-23.62-48.34-14.02,27.67c-7.2,14.21-17.53,35.61-4.24,35.61,10.7,0,26.57-13.1,41.88-14.94h0Z"/>
    <path class="cls-1" d="M317.67,81.92c-12.36,0-23.8-4.06-32.84-11.07v54.61h-28.41V0h57.56c28.23,0,48.71,17.34,48.71,40.96s-19,40.96-45.02,40.96ZM315.83,58.67c10.7,0,18.45-7.38,18.45-17.71s-8.49-17.71-20.29-17.71h-29.15v1.85c0,15.87,12.54,33.58,30.99,33.58Z"/>
    <path class="cls-1" d="M405.66,0v125.46h-28.41V0h28.41Z"/>
    <path class="cls-1" d="M539.85,62.73c0,36.35-28.41,62.73-67.53,62.73h-45.02V0h45.02c39.11,0,67.53,26.38,67.53,62.73ZM472.33,102.21c22.51,0,38.74-16.6,38.74-39.48s-16.24-39.48-38.74-39.48h-16.61v78.96h16.61Z"/>
  </g>
  <g>
    <path class="cls-1" d="M137.91,150.48v13.42h-37.7c0,9.58,10.86,14.59,33.33,14.59v13.42c-12.89,0-24.71-1.81-33.33-7.67v25.24h37.7v13.42h-54.1v-72.42h54.1Z"/>
    <path class="cls-1" d="M202.56,222.9v-41.96c-6.28,7.88-12.57,14.59-12.57,23.11h-12.78c0-8.52-6.28-15.23-12.57-23.11v41.96h-16.4v-72.42h16.4c0,11.29,11.4,21.09,18.96,33.44,7.56-12.35,18.96-22.15,18.96-33.44h16.4v72.42h-16.4Z"/>
    <path class="cls-1" d="M228.38,186.69c0-21.94,16.4-37.91,38.98-37.91s38.98,15.97,38.98,37.91-16.4,37.91-38.98,37.91-38.98-15.97-38.98-37.91ZM267.36,211.19c12.99,0,22.37-10.33,22.37-24.5s-9.37-24.49-22.37-24.49-22.36,10.33-22.36,24.49,9.37,24.5,22.36,24.5Z"/>
    <path class="cls-1" d="M309.97,220.77v-14.91h1.92c4.9,4.37,8.31,5.33,12.99,5.33,7.46,0,12.78-5,12.78-13.84v-46.86h16.61v46.86c0,17.36-10.33,27.26-28.33,27.26-6.39,0-11.5-1.81-15.98-3.83Z"/>
    <path class="cls-1" d="M382.4,150.48v72.42h-16.4v-72.42h16.4Z"/>
    <path class="cls-1" d="M448.08,155.81v17.04h-1.92c-6.5-8.31-15.23-10.65-23.64-10.65-8.84,0-13.84,2.88-13.84,7.45,0,14.91,44.52,1.49,44.52,31.31,0,15.02-12.14,23.64-33.44,23.64-11.18,0-20.23-2.56-26.62-7.03v-17.04h1.92c6.5,8.31,16.29,10.65,24.71,10.65,11.82,0,18.1-3.3,18.1-8.52,0-14.91-44.52-1.49-44.52-31.31,0-14.38,10.65-22.58,29.18-22.58,11.18,0,19.17,2.56,25.56,7.03Z"/>
  </g>
</svg>