<?xml version="1.0" encoding="UTF-8"?>
<svg id="Layer_1" data-name="Layer 1" xmlns="http://www.w3.org/2000/svg" viewBox="0 0 539.85 224.61">
  <defs>
    <style>
      .cls-1 {
        fill: #ffeb50;
      }
    </style>
  </defs>
  <g>
    <path class="cls-1" d="M106.27,40.96c0,20.48-14.21,36.16-35.05,40.04l3.69,4.61c6.83,8.86,15.31,15.87,23.25,15.87,1.66,0,2.58-.74,3.69-1.84h3.32v25.83c-24.54,0-36.9-2.03-54.61-24.91l-22.14-28.6v53.5H0V0h57.56c28.23,0,48.71,17.34,48.71,40.96h0ZM59.41,58.67c10.7,0,18.45-7.38,18.45-17.71s-8.49-17.71-20.29-17.71h-29.15v1.85c0,15.87,12.55,33.58,31,33.58Z"/>
    <path class="cls-1" d="M184.22,0l60.88,125.46h-31.37c-2.58-4.98-8.49-11.99-17.71-11.99-14.39,0-29.7,14.94-52.58,14.94s-37.82-23.25-15.13-66.97L160.23,0h23.98ZM195.84,88.38l-23.62-48.34-14.02,27.67c-7.2,14.21-17.53,35.61-4.24,35.61,10.7,0,26.57-13.1,41.88-14.94h0Z"/>
    <path class="cls-1" d="M317.67,81.92c-12.36,0-23.8-4.06-32.84-11.07v54.61h-28.41V0h57.56c28.23,0,48.71,17.34,48.71,40.96s-19,40.96-45.02,40.96ZM315.83,58.67c10.7,0,18.45-7.38,18.45-17.71s-8.49-17.71-20.29-17.71h-29.15v1.85c0,15.87,12.54,33.58,30.99,33.58Z"/>
    <path class="cls-1" d="M405.66,0v125.46h-28.41V0h28.41Z"/>
    <path class="cls-1" d="M539.85,62.73c0,36.35-28.41,62.73-67.53,62.73h-45.02V0h45.02c39.11,0,67.53,26.38,67.53,62.73ZM472.33,102.21c22.51,0,38.74-16.6,38.74-39.48s-16.24-39.48-38.74-39.48h-16.61v78.96h16.61Z"/>
  </g>
  <g>
    <path class="cls-1" d="M142.53,150.48v13.42h-37.7c0,9.58,10.86,14.59,33.33,14.59v13.42c-12.89,0-24.71-1.81-33.33-7.67v38.66h-16.4v-72.42h54.1Z"/>
    <path class="cls-1" d="M192.01,197.24l2.13,2.66c3.94,5.11,8.84,9.16,13.42,9.16.96,0,1.49-.43,2.13-1.07h1.92v14.91c-14.16,0-21.3-1.17-31.52-14.38l-12.78-16.51v30.88h-16.4v-72.42h33.23c16.29,0,28.12,10.01,28.12,23.64,0,11.82-8.2,20.87-20.23,23.11ZM185.19,184.35c6.18,0,10.65-4.26,10.65-10.22s-4.9-10.22-11.71-10.22h-16.83v1.06c0,9.16,7.24,19.38,17.89,19.38Z"/>
    <path class="cls-1" d="M221.37,192.02v-41.53h16.4v41.53c0,11.61,5.43,19.17,15.12,19.17s15.12-7.56,15.12-19.17v-41.53h16.4v41.53c0,19.81-11.82,32.59-31.52,32.59s-31.53-12.78-31.53-32.59Z"/>
    <path class="cls-1" d="M312.19,150.48v72.42h-16.4v-72.42h16.4Z"/>
    <path class="cls-1" d="M359.43,163.9v59h-16.4v-59h-23.86v-13.42h64.11v13.42h-23.86Z"/>
    <path class="cls-1" d="M443.45,155.81v17.04h-1.92c-6.5-8.31-15.23-10.65-23.64-10.65-8.84,0-13.84,2.88-13.84,7.45,0,14.91,44.52,1.49,44.52,31.31,0,15.02-12.14,23.64-33.44,23.64-11.18,0-20.23-2.56-26.62-7.03v-17.04h1.92c6.5,8.31,16.29,10.65,24.71,10.65,11.82,0,18.11-3.3,18.11-8.52,0-14.91-44.52-1.49-44.52-31.31,0-14.38,10.65-22.58,29.18-22.58,11.18,0,19.17,2.56,25.56,7.03Z"/>
  </g>
</svg>