<svg width="15" height="13" viewBox="0 0 15 13" fill="none" xmlns="http://www.w3.org/2000/svg">
<g clip-path="url(#clip0_1245_9188)">
<path d="M13.6102 8.84888C13.3047 8.84888 12.9992 9.07009 12.9992 9.43882V10.9136C12.9992 11.4298 12.5409 11.7985 12.0826 11.7985H10.5551C10.2496 11.7985 9.94409 12.0197 9.94409 12.3884C9.94409 12.7571 10.1732 12.9784 10.5551 12.9784H12.0826C13.2283 12.9784 14.2212 12.0935 14.2212 10.9136V9.43882C14.2212 9.14385 13.9157 8.84888 13.6102 8.84888Z" fill="#A4F675"/>
<path d="M10.5551 1.17986H12.0826C12.6173 1.17986 12.9992 1.6223 12.9992 2.06474V3.53955C12.9992 3.83452 13.2284 4.12948 13.6103 4.12948C13.9921 4.12948 14.2213 3.90826 14.2213 3.53955V2.06474C14.2213 0.958633 13.3047 0 12.0826 0H10.5551C10.2496 0 9.94409 0.221223 9.94409 0.589924C9.94409 0.958633 10.2496 1.17986 10.5551 1.17986Z" fill="#A4F675"/>
<path d="M4.44488 11.7985H2.91733C2.38268 11.7985 2.00079 11.3561 2.00079 10.9136V9.43882C2.00079 9.14385 1.77166 8.84888 1.38977 8.84888C1.00788 8.84888 0.778748 9.14385 0.778748 9.43882V10.9136C0.778748 12.0197 1.69528 12.9784 2.91733 12.9784H4.44488C4.75039 12.9784 5.0559 12.7571 5.0559 12.3884C5.0559 12.0197 4.75039 11.7985 4.44488 11.7985Z" fill="#A4F675"/>
<path d="M1.38977 4.12948C1.69528 4.12948 2.00079 3.90826 2.00079 3.53955V2.06474C2.00079 1.54856 2.45906 1.17986 2.91733 1.17986H4.44489C4.75039 1.17986 5.0559 0.958633 5.0559 0.589924C5.0559 0.221223 4.75039 0 4.44489 0H2.91733C1.77166 0 0.778748 0.958633 0.778748 2.06474V3.53955C0.778748 3.83452 1.08426 4.12948 1.38977 4.12948Z" fill="#A4F675"/>
<path d="M10.5551 10.9137C11.3953 10.9137 12.0827 10.25 12.0827 9.4389V8.11157H2.91736V9.4389C2.91736 10.25 3.60476 10.9137 4.44492 10.9137H10.5551Z" fill="#A4F675"/>
<path d="M14.3739 5.89944H12.0826V3.53975C12.0826 2.7286 11.3952 2.06494 10.555 2.06494H4.44481C3.60465 2.06494 2.91725 2.7286 2.91725 3.53975V6.04696H0.625918C0.320401 6.04696 0.0148926 6.26817 0.0148926 6.6369C0.0148926 7.00555 0.244024 7.22676 0.625918 7.22676H14.3739C14.6794 7.22676 14.985 7.00555 14.985 6.6369C14.985 6.26817 14.6794 5.89944 14.3739 5.89944Z" fill="#A4F675"/>
</g>
<defs>
<clipPath id="clip0_1245_9188">
<rect width="15" height="13" fill="white"/>
</clipPath>
</defs>
</svg>
