<svg width="19" height="19" viewBox="0 0 19 19" fill="none" xmlns="http://www.w3.org/2000/svg">
<path d="M17.8421 15.2043L14.0605 11.4201C13.3319 10.6909 12.15 10.6907 11.4211 11.4196C10.6923 12.1483 10.6923 13.3298 11.4211 14.0586L15.2063 17.8438C15.6252 18.2627 16.3147 18.2627 16.7336 17.8438L17.8421 16.7354C18.261 16.3128 18.261 15.6195 17.8421 15.2043Z" fill="#B7B7B7"/>
<path d="M9.52779 10.9092C9.90963 11.291 10.5287 11.291 10.9106 10.9092C11.2924 10.5273 11.2924 9.90824 10.9106 9.5264L10.7437 9.35952C10.3284 8.94429 10.2844 8.29601 10.5247 7.76021C11.433 5.73492 11.0584 3.27207 9.39619 1.60982C7.24976 -0.536607 3.76135 -0.536607 1.61121 1.60982C-0.538924 3.75625 -0.535217 7.24466 1.61121 9.3948C3.27346 11.057 5.73631 11.4316 7.7616 10.5233C8.2974 10.283 8.94569 10.3271 9.36091 10.7423L9.52779 10.9092ZM2.67887 8.31232C1.12187 6.75532 1.12187 4.23076 2.67887 2.67748C4.23586 1.12048 6.76042 1.12048 8.31371 2.67748C9.8707 4.23447 9.8707 6.75903 8.31371 8.31232C6.76042 9.86931 4.23586 9.86931 2.67887 8.31232Z" fill="#B7B7B7"/>
</svg>
