<svg width="15" height="16" viewBox="0 0 15 16" fill="none" xmlns="http://www.w3.org/2000/svg">
<g clip-path="url(#clip0_217_55751)">
<path fill-rule="evenodd" clip-rule="evenodd" d="M8.89495 0.120063C8.60292 3.52551e-08 8.23265 0 7.49211 0C6.75158 0 6.38131 3.52551e-08 6.08927 0.120063C5.69984 0.28015 5.39045 0.587208 5.22915 0.973683C5.15551 1.15011 5.12669 1.35528 5.11542 1.65457C5.09885 2.09439 4.87158 2.50149 4.48751 2.72155C4.10345 2.94161 3.63457 2.93339 3.2425 2.72773C2.97569 2.58778 2.78225 2.50995 2.59147 2.48503C2.17357 2.43043 1.75093 2.54282 1.41653 2.79748C1.16572 2.98847 0.98059 3.3067 0.610329 3.94316C0.240069 4.57963 0.054943 4.89786 0.0136812 5.20892C-0.0413425 5.62366 0.0719067 6.04311 0.328508 6.375C0.445629 6.5265 0.610227 6.65379 0.865692 6.81309C1.24125 7.04732 1.4829 7.44629 1.48288 7.88644C1.48285 8.32658 1.24121 8.72547 0.865692 8.95962C0.610188 9.11901 0.445558 9.24637 0.328429 9.39787C0.0718279 9.72973 -0.0414134 10.1491 0.0136024 10.5639C0.0548642 10.8749 0.239998 11.1932 0.61025 11.8297C0.980511 12.4661 1.16564 12.7844 1.41645 12.9753C1.75085 13.23 2.17349 13.3424 2.59139 13.2878C2.78216 13.2629 2.97559 13.185 3.24237 13.0451C3.63448 12.8394 4.10339 12.8312 4.48747 13.0513C4.87156 13.2714 5.09884 13.6785 5.11542 14.1184C5.12669 14.4176 5.15551 14.6228 5.22915 14.7992C5.39045 15.1856 5.69984 15.4927 6.08927 15.6528C6.38131 15.7729 6.75158 15.7729 7.49211 15.7729C8.23265 15.7729 8.60292 15.7729 8.89495 15.6528C9.28438 15.4927 9.59377 15.1856 9.75504 14.7992C9.8287 14.6228 9.85757 14.4176 9.86885 14.1183C9.88541 13.6785 10.1126 13.2714 10.4967 13.0513C10.8808 12.8312 11.3497 12.8394 11.7418 13.0451C12.0086 13.185 12.202 13.2628 12.3927 13.2877C12.8106 13.3424 13.2333 13.23 13.5677 12.9753C13.8185 12.7843 14.0036 12.4661 14.3739 11.8296C14.7442 11.1931 14.9293 10.8749 14.9706 10.5639C15.0255 10.1491 14.9123 9.72965 14.6558 9.39779C14.5386 9.24629 14.374 9.11893 14.1185 8.95962C13.743 8.72547 13.5013 8.3265 13.5013 7.88636C13.5013 7.44622 13.743 7.0474 14.1185 6.81325C14.3741 6.65387 14.5386 6.52658 14.6558 6.375C14.9124 6.04316 15.0256 5.62372 14.9707 5.20897C14.9293 4.89791 14.7442 4.57968 14.374 3.94322C14.0037 3.30676 13.8186 2.98853 13.5677 2.79753C13.2334 2.54287 12.8107 2.43048 12.3928 2.48509C12.202 2.51001 12.0086 2.58782 11.7419 2.72776C11.3498 2.93343 10.8808 2.94166 10.4968 2.72158C10.1127 2.50151 9.88541 2.09437 9.86877 1.65453C9.85749 1.35527 9.8287 1.1501 9.75504 0.973683C9.59377 0.587208 9.28438 0.28015 8.89495 0.120063ZM7.49211 10.2524C8.80875 10.2524 9.87602 9.19314 9.87602 7.88644C9.87602 6.57973 8.80875 5.52051 7.49211 5.52051C6.17547 5.52051 5.10817 6.57973 5.10817 7.88644C5.10817 9.19314 6.17547 10.2524 7.49211 10.2524Z" fill="white"/>
</g>
<defs>
<clipPath id="clip0_217_55751">
<rect width="15" height="15.8044" fill="white"/>
</clipPath>
</defs>
</svg>
