<svg width="50" height="45" viewBox="0 0 50 45" fill="none" xmlns="http://www.w3.org/2000/svg">
<path d="M29.5815 19.9734C32.009 19.9734 33.9769 18.0055 33.9769 15.578C33.9769 13.1506 32.009 11.1827 29.5815 11.1827C27.1541 11.1827 25.1862 13.1506 25.1862 15.578C25.1862 18.0055 27.1541 19.9734 29.5815 19.9734Z" fill="url(#paint0_linear_18_2991)" stroke="url(#paint1_linear_18_2991)" stroke-width="2"/>
<path fill-rule="evenodd" clip-rule="evenodd" d="M29.5815 10C29.4141 10 29.2784 10.1357 29.2784 10.3032V11.2732C29.2784 11.4407 29.4141 11.5764 29.5815 11.5764C29.749 11.5764 29.8847 11.4407 29.8847 11.2732V10.3032C29.8847 10.1357 29.749 10 29.5815 10ZM29.5815 19.5797C29.4141 19.5797 29.2784 19.7154 29.2784 19.8828V20.8529C29.2784 21.0204 29.4141 21.1561 29.5815 21.1561C29.749 21.1561 29.8847 21.0204 29.8847 20.8529V19.8828C29.8847 19.7154 29.749 19.5797 29.5815 19.5797ZM31.9564 10.8583C32.0401 10.7133 32.2256 10.6636 32.3706 10.7473C32.5155 10.831 32.5652 11.0164 32.4815 11.1614L31.9965 12.0016C31.9128 12.1466 31.7273 12.1962 31.5823 12.1125C31.4374 12.0288 31.3877 11.8434 31.4714 11.6984L31.9564 10.8583ZM27.5807 19.0436C27.4357 18.9599 27.2503 19.0095 27.1666 19.1545L26.6815 19.9947C26.5978 20.1396 26.6475 20.3251 26.7925 20.4088C26.9375 20.4925 27.1229 20.4428 27.2066 20.2978L27.6917 19.4577C27.7754 19.3127 27.7257 19.1273 27.5807 19.0436ZM33.9981 12.6781C34.1431 12.5943 34.3285 12.644 34.4123 12.789C34.496 12.934 34.4463 13.1194 34.3013 13.2031L33.4612 13.6882C33.3162 13.7719 33.1308 13.7222 33.0471 13.5772C32.9633 13.4322 33.013 13.2468 33.158 13.1631L33.9981 12.6781ZM26.116 17.5789C26.0323 17.4339 25.8469 17.3842 25.7019 17.4679L24.8618 17.9529C24.7168 18.0367 24.6671 18.2221 24.7508 18.3671C24.8345 18.5121 25.0199 18.5617 25.1649 18.478L26.005 17.993C26.15 17.9093 26.1997 17.7239 26.116 17.5789ZM34.8564 15.2749C35.0238 15.2749 35.1596 15.4106 35.1596 15.578C35.1596 15.7455 35.0238 15.8812 34.8564 15.8812H33.8863C33.7189 15.8812 33.5832 15.7455 33.5832 15.578C33.5832 15.4106 33.7189 15.2749 33.8863 15.2749H34.8564ZM25.5799 15.578C25.5799 15.4106 25.4442 15.2749 25.2767 15.2749H24.3066C24.1392 15.2749 24.0035 15.4106 24.0035 15.578C24.0035 15.7455 24.1392 15.8812 24.3066 15.8812H25.2767C25.4442 15.8812 25.5799 15.7455 25.5799 15.578ZM34.3013 17.9529C34.4463 18.0367 34.496 18.2221 34.4123 18.3671C34.3285 18.5121 34.1431 18.5617 33.9981 18.478L33.158 17.993C33.013 17.9093 32.9633 17.7239 33.0471 17.5789C33.1308 17.4339 33.3162 17.3842 33.4612 17.4679L34.3013 17.9529ZM26.116 13.5772C26.1997 13.4322 26.15 13.2468 26.005 13.1631L25.1649 12.6781C25.0199 12.5943 24.8345 12.644 24.7508 12.789C24.6671 12.934 24.7168 13.1194 24.8618 13.2031L25.7019 13.6882C25.8469 13.7719 26.0323 13.7222 26.116 13.5772ZM32.4815 19.9946C32.5652 20.1396 32.5155 20.3251 32.3706 20.4088C32.2256 20.4925 32.0401 20.4428 31.9564 20.2978L31.4714 19.4577C31.3877 19.3127 31.4374 19.1273 31.5823 19.0436C31.7273 18.9598 31.9128 19.0095 31.9965 19.1545L32.4815 19.9946ZM27.5807 12.1125C27.7257 12.0288 27.7754 11.8434 27.6917 11.6984L27.2066 10.8583C27.1229 10.7133 26.9375 10.6636 26.7925 10.7473C26.6475 10.831 26.5978 11.0164 26.6815 11.1614L27.1666 12.0016C27.2503 12.1466 27.4357 12.1962 27.5807 12.1125Z" fill="url(#paint2_linear_18_2991)"/>
<g filter="url(#filter0_bd_18_2991)">
<mask id="path-3-outside-1_18_2991" maskUnits="userSpaceOnUse" x="15" y="11.7187" width="20" height="14" fill="black">
<rect fill="white" x="15" y="11.7187" width="20" height="14"/>
<path fill-rule="evenodd" clip-rule="evenodd" d="M28.2107 17.9961C28.2107 18.1454 28.2031 18.2929 28.1882 18.4383C28.649 18.0378 29.2509 17.7953 29.9093 17.7953C31.3591 17.7953 32.5344 18.9706 32.5344 20.4204C32.5344 21.8702 31.3591 23.0455 29.9093 23.0455C29.9086 23.0455 29.9078 23.0455 29.9071 23.0455H19.7046C19.7038 23.0455 19.7031 23.0455 19.7023 23.0455C19.7015 23.0455 19.7008 23.0455 19.7 23.0455H19.6869V23.0455C18.2015 23.0372 17 21.8305 17 20.3432C17 18.8614 18.1927 17.6581 19.6705 17.6411C19.8509 15.4448 21.6906 13.7187 23.9334 13.7187C26.2957 13.7187 28.2107 15.6337 28.2107 17.9961Z"/>
</mask>
<path fill-rule="evenodd" clip-rule="evenodd" d="M28.2107 17.9961C28.2107 18.1454 28.2031 18.2929 28.1882 18.4383C28.649 18.0378 29.2509 17.7953 29.9093 17.7953C31.3591 17.7953 32.5344 18.9706 32.5344 20.4204C32.5344 21.8702 31.3591 23.0455 29.9093 23.0455C29.9086 23.0455 29.9078 23.0455 29.9071 23.0455H19.7046C19.7038 23.0455 19.7031 23.0455 19.7023 23.0455C19.7015 23.0455 19.7008 23.0455 19.7 23.0455H19.6869V23.0455C18.2015 23.0372 17 21.8305 17 20.3432C17 18.8614 18.1927 17.6581 19.6705 17.6411C19.8509 15.4448 21.6906 13.7187 23.9334 13.7187C26.2957 13.7187 28.2107 15.6337 28.2107 17.9961Z" fill="url(#paint3_linear_18_2991)" shape-rendering="crispEdges"/>
<path d="M28.1882 18.4383L26.1986 18.2339L25.6818 23.2663L29.5001 19.9478L28.1882 18.4383ZM19.6869 23.0455H17.6869V25.0455H19.6869V23.0455ZM19.6869 23.0455H21.6869V21.0566L19.6981 21.0455L19.6869 23.0455ZM19.6705 17.6411L19.6936 19.641L21.5147 19.62L21.6638 17.8048L19.6705 17.6411ZM30.1777 18.6426C30.1996 18.4295 30.2107 18.2138 30.2107 17.9961H26.2107C26.2107 18.077 26.2066 18.1563 26.1986 18.2339L30.1777 18.6426ZM29.9093 15.7953C28.7506 15.7953 27.6871 16.224 26.8762 16.9287L29.5001 19.9478C29.6109 19.8515 29.7511 19.7953 29.9093 19.7953V15.7953ZM34.5344 20.4204C34.5344 17.8661 32.4637 15.7953 29.9093 15.7953V19.7953C30.2546 19.7953 30.5344 20.0752 30.5344 20.4204H34.5344ZM29.9093 25.0455C32.4637 25.0455 34.5344 22.9748 34.5344 20.4204H30.5344C30.5344 20.7657 30.2546 21.0455 29.9093 21.0455V25.0455ZM29.9071 25.0455C29.9067 25.0455 29.9065 25.0455 29.9069 25.0455C29.9072 25.0455 29.9082 25.0455 29.9093 25.0455V21.0455C29.9097 21.0455 29.91 21.0455 29.9095 21.0455C29.9092 21.0455 29.9082 21.0455 29.9071 21.0455V25.0455ZM29.9071 21.0455H19.7046V25.0455H29.9071V21.0455ZM19.7023 25.0455C19.7034 25.0455 19.7044 25.0455 19.7047 25.0455C19.7052 25.0455 19.705 25.0455 19.7046 25.0455V21.0455C19.7035 21.0455 19.7025 21.0455 19.7022 21.0455C19.7017 21.0455 19.702 21.0455 19.7023 21.0455V25.0455ZM19.7 25.0455C19.6997 25.0455 19.6994 25.0455 19.6999 25.0455C19.7002 25.0455 19.7012 25.0455 19.7023 25.0455V21.0455C19.7027 21.0455 19.7029 21.0455 19.7024 21.0455C19.7021 21.0455 19.7011 21.0455 19.7 21.0455V25.0455ZM19.7 21.0455H19.6869V25.0455H19.7V21.0455ZM21.6869 23.0455V23.0455H17.6869V23.0455H21.6869ZM15 20.3432C15 22.9313 17.0908 25.031 19.6757 25.0455L19.6981 21.0455C19.3123 21.0434 19 20.7297 19 20.3432H15ZM19.6474 15.6412C17.0754 15.6709 15 17.7645 15 20.3432H19C19 19.9582 19.31 19.6454 19.6936 19.641L19.6474 15.6412ZM23.9334 11.7187C20.6409 11.7187 17.9422 14.2521 17.6772 17.4773L21.6638 17.8048C21.7597 16.6376 22.7402 15.7187 23.9334 15.7187V11.7187ZM30.2107 17.9961C30.2107 14.5292 27.4003 11.7187 23.9334 11.7187V15.7187C25.1911 15.7187 26.2107 16.7383 26.2107 17.9961H30.2107Z" fill="url(#paint4_linear_18_2991)" mask="url(#path-3-outside-1_18_2991)"/>
</g>
<defs>
<filter id="filter0_bd_18_2991" x="0" y="0.718689" width="49.5344" height="43.3268" filterUnits="userSpaceOnUse" color-interpolation-filters="sRGB">
<feFlood flood-opacity="0" result="BackgroundImageFix"/>
<feGaussianBlur in="BackgroundImageFix" stdDeviation="5"/>
<feComposite in2="SourceAlpha" operator="in" result="effect1_backgroundBlur_18_2991"/>
<feColorMatrix in="SourceAlpha" type="matrix" values="0 0 0 0 0 0 0 0 0 0 0 0 0 0 0 0 0 0 127 0" result="hardAlpha"/>
<feOffset dy="4"/>
<feGaussianBlur stdDeviation="7.5"/>
<feComposite in2="hardAlpha" operator="out"/>
<feColorMatrix type="matrix" values="0 0 0 0 0 0 0 0 0 0 0 0 0 0 0 0 0 0 0.1 0"/>
<feBlend mode="normal" in2="effect1_backgroundBlur_18_2991" result="effect2_dropShadow_18_2991"/>
<feBlend mode="normal" in="SourceGraphic" in2="effect2_dropShadow_18_2991" result="shape"/>
</filter>
<linearGradient id="paint0_linear_18_2991" x1="31.4914" y1="12.6678" x2="28.4097" y2="18.9999" gradientUnits="userSpaceOnUse">
<stop offset="0.182844" stop-color="#FFE600"/>
<stop offset="0.980542" stop-color="#F09000"/>
</linearGradient>
<linearGradient id="paint1_linear_18_2991" x1="27.8472" y1="11.4062" x2="32.6284" y2="22.8904" gradientUnits="userSpaceOnUse">
<stop stop-color="#FFE600"/>
<stop offset="1" stop-color="#9C8D00"/>
</linearGradient>
<linearGradient id="paint2_linear_18_2991" x1="33.6741" y1="11.4551" x2="25.398" y2="21.1561" gradientUnits="userSpaceOnUse">
<stop stop-color="#FFE600"/>
<stop offset="1" stop-color="#AA9900"/>
</linearGradient>
<linearGradient id="paint3_linear_18_2991" x1="21.8283" y1="13.6798" x2="25.5649" y2="23.0844" gradientUnits="userSpaceOnUse">
<stop stop-color="white"/>
<stop offset="0.708333" stop-color="#9DDCFF" stop-opacity="0.69"/>
</linearGradient>
<linearGradient id="paint4_linear_18_2991" x1="24.2634" y1="10.4889" x2="29.4276" y2="26.8631" gradientUnits="userSpaceOnUse">
<stop stop-color="white"/>
<stop offset="0.713542" stop-color="#85C6EC" stop-opacity="0.71"/>
</linearGradient>
</defs>
</svg>
