<svg width="65" height="67" viewBox="0 0 65 67" fill="none" xmlns="http://www.w3.org/2000/svg">
<path d="M3.93066 40.0513C2.71159 40.0513 2.10205 39.7323 2.10205 39.0942V19.9365C2.10205 19.515 2.19889 19.2131 2.39258 19.0308C2.58626 18.8371 2.89388 18.7402 3.31543 18.7402H9.70703C11.5983 18.7402 13.2731 19.2017 14.7314 20.1245C16.1898 21.0474 16.9189 22.8019 16.9189 25.3882C16.9189 27.1655 16.4974 28.5498 15.6543 29.541C14.8112 30.5208 13.8599 31.1816 12.8003 31.5234C11.7521 31.8652 10.8179 32.0361 9.99756 32.0361H6.78467V39.0942C6.78467 39.7323 6.17513 40.0513 4.95605 40.0513H3.93066ZM9.48486 28.02C10.214 28.02 10.835 27.8263 11.3477 27.439C11.8717 27.0516 12.1338 26.368 12.1338 25.3882C12.1338 24.397 11.8717 23.702 11.3477 23.3032C10.8236 22.9045 10.2026 22.7051 9.48486 22.7051H6.78467V28.02H9.48486ZM21.2598 40.0513C20.0407 40.0513 19.4312 39.7323 19.4312 39.0942V19.646C19.4312 19.3156 19.5793 19.0706 19.8755 18.9111C20.1717 18.7402 20.6331 18.6548 21.2598 18.6548H22.8662C23.8346 18.6548 24.467 18.9339 24.7632 19.4922L29.873 28.5669L30.1294 29.0112L30.3857 28.4814L35.5298 19.4922C35.8374 18.9339 36.4754 18.6548 37.4438 18.6548H39.0332C40.2523 18.6548 40.8618 18.9852 40.8618 19.646V39.0942C40.8618 39.7323 40.2523 40.0513 39.0332 40.0513H38.1445C36.9255 40.0513 36.3159 39.7323 36.3159 39.0942V26.499L36.1963 26.4648L31.7871 34.3433C31.5251 34.7306 31.1206 34.9243 30.5737 34.9243H29.7021C29.4173 34.9243 29.1781 34.8787 28.9844 34.7876C28.7907 34.6851 28.6255 34.5369 28.4888 34.3433L24.0625 26.4648L23.9429 26.499V39.0942C23.9429 39.7323 23.339 40.0513 22.1313 40.0513H21.2598ZM53.7476 40.2563C51.9019 40.2563 50.3182 39.9658 48.9966 39.3848C47.6864 38.8037 46.6838 37.9663 45.9888 36.8726C45.2938 35.7674 44.9463 34.4401 44.9463 32.8906V19.646C44.9463 19.3156 45.0944 19.0706 45.3906 18.9111C45.6868 18.7402 46.1483 18.6548 46.7749 18.6548H47.8003C48.4269 18.6548 48.8826 18.7402 49.1675 18.9111C49.4637 19.0706 49.6118 19.3156 49.6118 19.646V32.583C49.6118 33.2894 49.7827 33.9217 50.1245 34.48C50.4777 35.0382 50.9676 35.4769 51.5942 35.7959C52.2209 36.1035 52.9386 36.2573 53.7476 36.2573C54.5565 36.2573 55.2743 36.1035 55.9009 35.7959C56.5389 35.4769 57.0345 35.0382 57.3877 34.48C57.7409 33.9217 57.9175 33.2894 57.9175 32.583V19.646C57.9175 19.3156 58.0599 19.0706 58.3447 18.9111C58.641 18.7402 59.1024 18.6548 59.729 18.6548H60.7373C61.3639 18.6548 61.8197 18.7402 62.1045 18.9111C62.4007 19.0706 62.5488 19.3156 62.5488 19.646V32.8906C62.5488 34.4401 62.2013 35.7674 61.5063 36.8726C60.8114 37.9663 59.8031 38.8037 58.4814 39.3848C57.1712 39.9658 55.5933 40.2563 53.7476 40.2563Z" fill="#F7D956"/>
<path d="M24.9863 57C24.8223 57 24.7021 56.9619 24.626 56.8857C24.5498 56.8096 24.5117 56.6924 24.5117 56.5342V46.5322C24.5117 46.3682 24.5498 46.251 24.626 46.1807C24.7021 46.1045 24.8223 46.0664 24.9863 46.0664H28.1416C29.6064 46.0664 30.7783 46.5 31.6572 47.3672C32.5361 48.2344 32.9756 49.6201 32.9756 51.5244C32.9756 53.4404 32.5361 54.832 31.6572 55.6992C30.7783 56.5664 29.6064 57 28.1416 57H24.9863ZM28.0361 55.8135C29.0908 55.8135 29.9404 55.4707 30.585 54.7852C31.2295 54.0938 31.5518 53.0068 31.5518 51.5244C31.5518 50.5283 31.3994 49.7139 31.0947 49.0811C30.79 48.4424 30.374 47.9795 29.8467 47.6924C29.3193 47.3994 28.7158 47.2529 28.0361 47.2529H25.8916V55.8135H28.0361ZM38.5566 57.0879C37.2617 57.0879 36.2979 56.751 35.665 56.0771C35.0381 55.3975 34.7246 54.3604 34.7246 52.9658C34.7246 51.583 35.0322 50.5342 35.6475 49.8193C36.2627 49.0986 37.168 48.7383 38.3633 48.7383C39.4297 48.7383 40.2324 49.084 40.7715 49.7754C41.3164 50.4668 41.5889 51.4805 41.5889 52.8164C41.5889 52.875 41.5566 52.957 41.4922 53.0625C41.4336 53.1621 41.3604 53.2529 41.2725 53.335C41.1904 53.4111 41.1201 53.4492 41.0615 53.4492H36.1309C36.1953 54.3223 36.418 54.9609 36.7988 55.3652C37.1855 55.7637 37.7656 55.9629 38.5391 55.9629C38.9727 55.9629 39.3447 55.9102 39.6553 55.8047C39.9717 55.6992 40.2764 55.5703 40.5693 55.418C40.5986 55.4062 40.6426 55.3857 40.7012 55.3564C40.7598 55.3271 40.8008 55.3125 40.8242 55.3125C40.8887 55.3125 40.9619 55.3652 41.0439 55.4707C41.1318 55.5703 41.2051 55.6846 41.2637 55.8135C41.3281 55.9365 41.3604 56.0273 41.3604 56.0859C41.3604 56.2148 41.2314 56.3584 40.9736 56.5166C40.7158 56.6748 40.3701 56.8096 39.9365 56.9209C39.5088 57.0322 39.0488 57.0879 38.5566 57.0879ZM40.1914 52.3242C40.1914 50.6836 39.5674 49.8633 38.3193 49.8633C36.9775 49.8633 36.248 50.6836 36.1309 52.3242H40.1914ZM51.9248 48.7383C52.5752 48.7383 53.1465 48.9229 53.6387 49.292C54.1309 49.6611 54.377 50.3174 54.377 51.2607V56.6836C54.377 56.8008 54.3271 56.8887 54.2275 56.9473C54.1279 57 53.9697 57.0264 53.7529 57.0264H53.7002C53.4775 57.0264 53.3164 57 53.2168 56.9473C53.1172 56.8887 53.0674 56.8008 53.0674 56.6836V51.3926C53.0674 50.918 52.9385 50.5459 52.6807 50.2764C52.4287 50.0068 52.0566 49.8721 51.5645 49.8721C51.1543 49.8721 50.7822 49.9922 50.4482 50.2324C50.1201 50.4668 49.8535 50.7129 49.6484 50.9707C49.6602 51.1113 49.666 51.2168 49.666 51.2871V56.6836C49.666 56.9121 49.4551 57.0264 49.0332 57.0264H48.9717C48.5557 57.0264 48.3477 56.9121 48.3477 56.6836V51.3926C48.3477 50.918 48.2188 50.5459 47.9609 50.2764C47.709 50.0068 47.3369 49.8721 46.8447 49.8721C46.5049 49.8721 46.1943 49.9541 45.9131 50.1182C45.6318 50.2764 45.3975 50.4492 45.21 50.6367C45.0283 50.8242 44.9375 50.9297 44.9375 50.9531V56.6836C44.9375 56.8008 44.8877 56.8887 44.7881 56.9473C44.6943 57 44.5391 57.0264 44.3223 57.0264H44.252C44.0352 57.0264 43.877 57 43.7773 56.9473C43.6836 56.8887 43.6367 56.8008 43.6367 56.6836V51.1992C43.6367 50.5195 43.6045 50.0303 43.54 49.7314C43.4756 49.4268 43.4434 49.2598 43.4434 49.2305C43.4434 49.1016 43.54 49.0107 43.7334 48.958C43.9326 48.8994 44.1172 48.8701 44.2871 48.8701C44.4336 48.8701 44.542 48.9492 44.6123 49.1074C44.6826 49.2656 44.7324 49.4268 44.7617 49.5908C44.7969 49.7549 44.8203 49.8604 44.832 49.9072C45.1191 49.5732 45.4707 49.2949 45.8867 49.0723C46.3027 48.8496 46.7422 48.7383 47.2051 48.7383C47.6797 48.7383 48.1221 48.835 48.5322 49.0283C48.9424 49.2158 49.2441 49.5498 49.4375 50.0303C49.7598 49.6494 50.1377 49.3389 50.5713 49.0986C51.0049 48.8584 51.4561 48.7383 51.9248 48.7383ZM60.0371 57.0879C58.8594 57.0879 57.96 56.7363 57.3389 56.0332C56.7236 55.3242 56.416 54.2959 56.416 52.9482C56.416 51.6006 56.7295 50.5635 57.3564 49.8369C57.9834 49.1045 58.877 48.7383 60.0371 48.7383C61.1855 48.7383 62.0645 49.1016 62.6738 49.8281C63.2832 50.5488 63.5879 51.5889 63.5879 52.9482C63.5879 54.3018 63.2861 55.3301 62.6826 56.0332C62.085 56.7363 61.2031 57.0879 60.0371 57.0879ZM59.9932 55.9629C60.7549 55.9629 61.3174 55.7168 61.6807 55.2246C62.0439 54.7266 62.2256 53.959 62.2256 52.9219C62.2256 51.8789 62.0439 51.1084 61.6807 50.6104C61.3174 50.1123 60.7549 49.8633 59.9932 49.8633C59.2373 49.8633 58.6807 50.1123 58.3232 50.6104C57.9658 51.1025 57.7871 51.873 57.7871 52.9219C57.7871 53.9648 57.9629 54.7324 58.3145 55.2246C58.6719 55.7168 59.2314 55.9629 59.9932 55.9629Z" fill="#F5F5F5"/>
</svg>
